<svg width="34" height="17" viewBox="0 0 34 17" fill="none" xmlns="http://www.w3.org/2000/svg">
<path d="M0.652931 9.18187H32.414C32.7559 9.18187 33.0334 8.87642 33.0334 8.50006C33.0334 8.12369 32.7559 7.81824 32.414 7.81824H0.652931C0.310974 7.81824 0.0334473 8.12369 0.0334473 8.50006C0.0334473 8.87642 0.310974 9.18187 0.652931 9.18187Z" fill="#FFBA0B"/>
<path d="M25.1875 16.0001C25.2649 16.0001 25.3423 15.9719 25.4015 15.9161L32.9788 8.70209C33.035 8.648 33.067 8.57493 33.067 8.49841C33.067 8.42188 33.035 8.34881 32.9788 8.29473L25.4009 1.08421C25.283 0.972012 25.0914 0.972012 24.9736 1.08421C24.8557 1.19641 24.8557 1.3788 24.9736 1.49099L32.3375 8.49841L24.9736 15.5087C24.8557 15.6209 24.8557 15.8033 24.9736 15.9155C25.0328 15.9719 25.1102 16.0001 25.1875 16.0001Z" fill="#FFBA0B" stroke="#FFBA0B" stroke-width="0.681818"/>
</svg>
