<svg width="35" height="17" viewBox="0 0 35 17" fill="none" xmlns="http://www.w3.org/2000/svg">
<path d="M33.4141 9.18187H1.65305C1.3111 9.18187 1.03357 8.87642 1.03357 8.50006C1.03357 8.12369 1.3111 7.81824 1.65305 7.81824H33.4141C33.756 7.81824 34.0336 8.12369 34.0336 8.50006C34.0336 8.87642 33.756 9.18187 33.4141 9.18187Z" fill="#FFBA0B"/>
<path d="M8.87947 16.0001C8.80211 16.0001 8.72475 15.9719 8.66552 15.9161L1.08824 8.70209C1.03203 8.648 1 8.57493 1 8.49841C1 8.42188 1.03203 8.34881 1.08824 8.29473L8.66612 1.08421C8.78398 0.972012 8.97557 0.972012 9.09343 1.08421C9.21128 1.19641 9.21128 1.3788 9.09343 1.49099L1.7295 8.49841L9.09343 15.5087C9.21128 15.6209 9.21128 15.8033 9.09343 15.9155C9.0342 15.9719 8.95683 16.0001 8.87947 16.0001Z" stroke="#FFBA0B" stroke-width="0.681818"/>
</svg>
