<svg width="117" height="44" viewBox="0 0 117 44" fill="none" xmlns="http://www.w3.org/2000/svg">
<path d="M22.7209 18.2154C25.3189 19.0809 27.7801 20.1285 30.1502 21.4038C32.8849 22.9069 35.4829 24.6378 37.7162 26.8241C37.9441 27.0519 38.1264 27.3252 38.172 27.6896C38.3087 28.5094 38.5822 29.3293 38.8101 30.1492C38.9468 30.5591 38.8101 30.8324 38.3999 30.969C36.8958 31.6067 35.3461 31.6523 33.7965 31.6067C29.4665 31.4701 25.41 30.1492 21.3079 28.8283C17.2515 27.5074 13.0582 26.733 8.77386 26.5964C7.22419 26.5508 5.67452 26.6419 4.17043 26.9152C3.85138 26.9608 3.66906 26.8697 3.48675 26.6419C2.5296 25.6399 1.57246 24.6378 0.61531 23.6357C-0.205103 22.7703 -0.205103 21.8593 0.61531 20.9939C1.52688 20.0829 2.39287 19.1264 3.30444 18.2154C3.71465 17.8055 3.85138 17.3045 3.66907 16.7579C3.35002 15.5281 3.03097 14.2982 2.71192 13.114C2.39287 11.7931 2.80308 11.0643 4.12485 10.6999C4.89969 10.4722 5.67452 10.29 6.44935 10.0622C6.81398 9.92558 7.13303 10.0622 7.4065 10.2444C7.58882 10.3355 7.63439 10.5633 7.58882 10.6999C7.54324 10.9276 7.36093 10.6999 7.22419 10.7455C7.17861 10.7455 7.13303 10.7455 7.08746 10.7455C6.17589 10.9732 6.08473 11.7931 5.81126 12.4763C5.62894 12.9773 5.7201 13.4784 6.26704 13.7972C6.67725 14.0705 7.13303 14.2527 7.58882 14.4349C7.95344 14.5715 8.09018 14.7537 8.13576 15.1637C8.31808 17.3045 8.45481 19.4908 8.6827 21.6316C8.77386 22.497 9.22964 23.0891 9.91332 23.5446C10.8705 24.1823 11.5997 23.8179 11.6909 22.6792C11.782 21.3127 11.8732 19.9007 11.9644 18.5343C12.0555 16.849 12.1922 15.2092 12.8759 13.6606C13.0582 13.2051 13.2406 13.0684 13.6963 13.2506C15.4283 13.9339 17.1603 14.5715 18.8923 15.2092C19.2569 15.3459 19.3937 15.5736 19.3937 15.8925C19.4392 16.439 19.4848 16.9856 19.5304 17.4867C19.6215 18.3976 20.1229 19.0353 20.8977 19.4908C21.8549 20.0829 22.5386 19.7185 22.6753 18.6254C22.6753 18.5343 22.7209 18.3976 22.7209 18.2154Z" fill="#FFBA0B"/>
<path d="M41.533 23.3276C37.1119 18.1806 31.4145 15.0378 25.0336 12.8514C25.2159 12.6237 25.3526 12.396 25.4893 12.2138C25.854 11.6216 25.7172 11.075 25.1247 10.7562C24.2587 10.3007 23.3927 10.2552 22.5267 10.8018C21.9798 11.1206 21.4784 11.5761 20.9771 11.986C20.7492 12.1682 20.5669 12.2138 20.2934 12.0771C18.607 11.1661 16.875 10.2552 15.1886 9.38974C14.824 9.20755 14.8696 9.02535 14.9607 8.70651C15.6444 6.93012 16.9662 5.56366 18.1968 4.1972C19.1084 3.24067 19.9743 2.2386 20.8403 1.23653C21.0682 0.963242 21.2505 1.00879 21.524 1.09989C22.0254 1.32763 22.2988 1.78312 22.6635 2.14751C23.3927 2.87629 24.0764 3.60506 24.8057 4.37939C25.2159 4.83488 25.7172 4.92598 26.3098 4.74378C27.4948 4.42494 28.6798 4.1061 29.8649 3.74171C31.0955 3.42287 31.8703 3.83281 32.1894 5.06262C32.5084 6.29244 32.8275 7.52225 33.1465 8.79761C33.2833 9.38974 33.6479 9.75413 34.286 9.93633C35.471 10.2552 36.7017 10.574 37.8867 10.8928C38.9806 11.2117 39.4819 11.986 39.2085 13.0792C38.935 14.2634 38.616 15.4477 38.2969 16.632C38.069 17.4519 38.2057 18.0895 38.8438 18.6817C39.7554 19.5015 40.5758 20.4125 41.3962 21.3235C41.9888 21.9156 42.0343 22.5989 41.533 23.3276Z" fill="#FFBA0B"/>
<path d="M10.7233 6.42906C10.5409 6.33797 10.4954 6.29242 10.4042 6.24687C9.35591 5.74583 9.26475 4.92596 10.0396 4.10608C10.2675 3.87834 10.4954 3.92389 10.7233 4.01498C11.179 4.24273 11.6804 4.42492 12.1362 4.69821C12.4552 4.88041 12.6831 4.83486 12.9566 4.60712C14.5974 3.28621 16.1927 2.01084 17.8335 0.689933C18.426 0.188897 19.0641 -0.175492 19.9301 0.0978001C20.6138 0.325543 20.7049 0.553287 20.2492 1.09987C18.7906 2.73962 17.3321 4.28828 15.9192 5.92803C15.1444 6.79345 14.7342 7.93217 14.2784 8.97979C14.1872 9.20753 14.2328 9.38972 14.4607 9.52637C16.4206 10.6651 18.4716 11.6672 20.477 12.7148C20.7505 12.8514 20.9328 12.7603 21.1151 12.5781C21.6165 12.1682 22.1179 11.7583 22.6648 11.3483C23.2573 10.8928 23.941 10.8473 24.6703 11.1206C25.2172 11.3483 25.3084 11.5761 24.9437 12.0315C24.4424 12.6692 23.8954 13.3069 23.3941 13.9446C23.1206 14.2179 23.1206 14.4456 23.4852 14.6734C23.7131 14.81 23.941 14.9922 24.1233 15.22C24.3056 15.4021 24.6247 15.5388 24.488 15.8576C24.3512 16.222 23.9866 16.0398 23.7131 16.0398C23.3941 16.0398 23.1206 15.9943 22.8015 15.9032C22.4825 15.8121 22.4369 15.9487 22.3913 16.222C22.3002 17.0874 22.1635 17.9529 22.0723 18.7727C21.9811 19.3649 21.7532 19.5015 21.2063 19.1827C20.4315 18.7727 20.0668 18.0895 19.9757 17.2241C19.9301 16.6775 19.8845 16.0854 19.839 15.5388C19.839 15.22 19.7022 15.0378 19.3832 14.9011C17.3321 14.0812 15.2811 13.3069 13.1845 12.5781C12.8199 12.4415 12.7287 12.5781 12.5464 12.8514C11.4981 14.8556 11.3614 17.0874 11.2702 19.2738C11.2246 20.4125 11.1335 21.5968 11.0423 22.7355C10.9967 23.2821 10.7688 23.4187 10.2675 23.1454C9.72053 22.8266 9.26475 22.3711 9.17359 21.6423C8.90012 19.5471 8.76338 17.4518 8.62665 15.3566C8.58107 14.5823 8.48991 13.9901 7.57834 13.8535C7.44161 13.8535 7.30488 13.7624 7.21372 13.6713C6.11984 13.1703 6.07425 13.0336 6.57562 11.986C6.94025 11.3028 6.98582 11.2572 7.71508 11.5761C7.85181 11.6216 8.03413 11.8494 8.21645 11.6672C8.35318 11.5305 8.26202 11.3028 8.21645 11.1661C8.17087 10.2551 7.71508 9.66302 6.75794 9.38972C5.66405 9.07088 4.66132 8.5243 3.61302 8.06881C2.70145 7.65888 2.06335 6.97565 1.65314 6.11022C1.37967 5.56364 1.47083 5.38144 2.06335 5.19925C3.0205 4.97151 3.93207 5.01705 4.84364 5.42699C6.02868 5.97358 7.16814 6.47461 8.3076 7.06674C8.80896 7.34004 9.17359 7.34004 9.62937 7.02119C9.994 6.839 10.3131 6.65681 10.7233 6.42906Z" fill="white"/>
<path d="M7.57847 33.1206C11.9996 33.1206 16.1928 34.1682 20.386 35.4891C23.2575 36.4001 26.1289 37.22 29.0915 37.4932C30.0943 37.5843 31.097 37.721 32.0997 37.6754C32.6011 37.6754 32.7834 37.8121 32.6011 38.3131C32.4188 38.8597 32.3276 39.4063 32.1909 39.9529C31.9174 41.046 31.097 41.5015 30.0031 41.2282C28.8181 40.9094 27.5874 40.5906 26.4024 40.2262C25.7643 40.044 25.2629 40.1806 24.8527 40.6361C23.9867 41.5471 23.1207 42.4125 22.2547 43.3235C21.3888 44.1889 20.4772 44.2344 19.6568 43.369C18.7452 42.458 17.8792 41.5471 16.9676 40.5906C16.5574 40.1806 16.1016 40.044 15.5547 40.2262C14.3241 40.5906 13.139 40.9094 11.9084 41.2282C10.769 41.5471 9.99413 41.0916 9.67508 39.9529C9.35603 38.6775 8.9914 37.4477 8.71793 36.1723C8.58119 35.5802 8.21656 35.2158 7.57847 35.0792C6.39342 34.7603 5.25397 34.4415 4.1145 34.1226C4.02335 34.0771 3.93219 34.0771 3.84103 34.0315C3.65872 33.986 3.38525 33.9405 3.43083 33.6672C3.43083 33.3939 3.7043 33.3939 3.88661 33.3939C4.79818 33.3028 5.70975 33.2117 6.6669 33.1661C6.89479 33.1206 7.25942 33.1206 7.57847 33.1206Z" fill="#FFBA0B"/>
<path d="M33.0554 35.6713C29.1357 35.6713 25.3526 34.8514 21.6608 33.6672C18.1968 32.574 14.7328 31.663 11.1321 31.2986C8.12396 30.9798 5.16136 31.1165 2.19876 31.663C1.74297 31.7541 1.28719 31.7541 0.831402 31.8908C0.330038 31.9819 0.284457 31.7997 0.330036 31.3897C0.421193 30.661 0.876976 30.2055 1.56065 29.9777C2.70012 29.6134 3.83958 29.3856 5.02462 29.249C10.6308 28.5202 16.0546 29.5223 21.3873 31.2531C24.3499 32.2096 27.3581 33.2117 30.4574 33.6672C33.1921 34.0316 35.9724 34.4415 38.7071 33.7583C39.7554 33.485 40.667 33.075 41.4418 32.3463C42.4446 31.4353 42.6269 30.2966 42.2623 29.0668C41.7609 27.2904 40.667 25.8784 39.3908 24.603C36.4282 21.5968 32.9187 19.456 29.1357 17.6341C27.9506 17.0875 26.7656 16.5864 25.535 16.1309C25.2615 16.0399 25.0792 15.9488 25.0336 15.6299C24.988 15.3111 24.669 15.1289 24.4411 14.9011C24.3043 14.7189 23.8485 14.6734 24.1676 14.309C24.4411 13.9902 24.5322 13.4436 25.1703 13.7169C26.2186 14.1268 27.2669 14.4456 28.2697 14.9011C32.554 16.7231 36.4738 19.0461 39.7554 22.4167C41.4418 24.102 42.9004 25.9695 43.4929 28.338C44.131 30.661 43.4017 32.4829 41.3507 33.8494C38.9806 35.398 36.3826 35.8991 33.6023 35.8991C33.42 35.6713 33.2377 35.6713 33.0554 35.6713Z" fill="white"/>
<path d="M41.8523 30.0233C41.8523 30.0688 41.8523 30.1599 41.8523 30.251C41.7612 30.6154 41.8068 31.162 41.3965 31.2075C40.9863 31.2986 41.0319 30.7065 40.9408 30.4332C40.0748 28.5202 38.7074 27.0171 37.1578 25.6506C33.1924 22.1889 28.589 19.7748 23.6665 18.044C22.9373 17.7707 22.8005 17.4974 23.074 16.7231C23.1196 16.5409 23.2107 16.4498 23.4386 16.4953C23.8944 16.5864 24.3958 16.632 24.8516 16.3587C24.9883 16.2676 25.125 16.3587 25.2618 16.4042C30.3666 18.3628 35.1523 20.868 39.0265 24.7852C40.2571 26.015 41.351 27.3815 41.8068 29.1579C41.8523 29.4767 41.8523 29.7044 41.8523 30.0233Z" fill="white"/>
<path d="M85.1382 9.58493C85.2749 9.49384 85.3661 9.44829 85.4117 9.35719C85.6851 8.9928 85.6396 8.53732 85.4117 8.17293C85.2749 7.89964 85.0015 7.85409 84.728 7.99073C84.1355 8.35512 83.5429 8.76506 82.9504 9.12945C83.5885 9.12945 83.5885 9.58494 83.5885 9.94932V15.9162C83.5885 17.0549 83.5885 17.0549 82.4491 17.0549C82.0844 17.0549 81.7198 17.0549 81.3552 17.0094C81.4008 16.645 81.4463 16.3261 81.4463 15.9617C81.7198 13.5021 79.8055 11.9079 77.4354 12.5456C76.7973 12.7278 76.2048 13.0011 75.6579 13.3655C75.1565 13.6843 74.7463 14.0943 74.2449 14.5497C74.2449 14.2309 74.2449 13.9576 74.1993 13.7299C74.1082 13.2744 73.7436 13.0466 73.3334 13.2744C72.7408 13.6388 72.1939 14.0487 71.6014 14.4131C72.1939 14.4131 72.1939 14.7775 72.1939 15.1874C72.1939 15.4152 72.1939 15.6885 72.1939 15.9162C72.1939 17.0094 72.1939 17.0094 71.0544 17.0094C70.5986 17.0094 70.5075 16.8727 70.5531 16.4628C70.5986 15.6429 70.5986 14.823 70.5531 14.0032C70.5531 13.3655 70.1429 13.1377 69.5959 13.4566C69.049 13.7754 68.502 14.1398 68.0007 14.5042C68.4565 14.5953 68.5932 14.823 68.5932 15.233C68.5932 15.6885 68.5476 16.1439 68.5932 16.5994C68.5932 16.9183 68.4565 17.0094 68.183 17.0094C67.4537 17.0094 66.6789 16.9638 65.9496 17.0094C65.4939 17.0549 65.3571 16.9183 65.3571 16.4628C65.4027 13.9576 65.3571 11.498 65.3571 8.9928C65.3571 8.81061 65.3571 8.62841 65.3571 8.44622C65.266 7.89963 64.9013 7.71744 64.4455 7.99073C63.853 8.35512 63.3061 8.71951 62.5312 9.22055C63.3972 9.0839 63.3517 9.49384 63.3517 9.90378C63.3517 12.7733 63.3517 15.6429 63.3517 18.5125C63.3517 18.9224 63.4428 19.0591 63.853 19.0591C65.1748 19.0135 66.451 19.0135 67.7728 19.0591C68.3653 19.0591 68.9122 19.0135 69.2769 18.4669C69.4136 18.2847 69.5503 18.1936 69.6871 18.5125C69.915 18.968 70.3252 19.1046 70.781 19.0591C71.2367 19.0135 71.7381 18.968 72.1483 19.0591C72.6041 19.1502 72.6497 18.4669 73.0599 18.7402C73.3789 18.9224 73.698 19.0591 74.1082 19.0591C77.1164 19.0591 80.079 19.0591 83.0872 19.0591C83.6797 19.0591 85.3661 17.5559 85.4572 17.0094C85.4572 16.9638 85.4572 16.8727 85.4572 16.8272C85.4572 14.5497 85.4572 12.2723 85.4572 9.94932C85.5484 9.76713 85.5028 9.58493 85.1382 9.58493ZM78.666 17.0549H76.7973C76.1136 17.0549 75.4755 17.0549 74.7919 17.0549C74.6096 17.0549 74.3361 17.1916 74.2905 16.9183C74.2449 16.6905 74.1538 16.3717 74.3817 16.1895C75.2932 15.3696 76.2504 14.5953 77.481 14.322C78.6205 14.0487 79.3497 14.5953 79.4409 15.7796C79.4409 15.9617 79.4409 16.0984 79.4409 16.2806C79.4409 17.0549 79.4409 17.0549 78.666 17.0549Z" fill="white"/>
<path d="M111.712 13.9576C111.712 13.411 111.256 13.1833 110.8 13.5021C110.254 13.8209 109.707 14.2309 109.114 14.5953C109.296 14.7775 109.661 14.6408 109.707 14.9597C109.798 15.6429 109.934 16.3717 109.661 16.9638C109.479 17.2826 108.749 17.0549 108.248 17.0549C108.157 17.0549 108.066 17.0549 107.929 17.0549C107.428 17.0094 106.79 17.2826 106.516 16.9638C106.288 16.6905 106.425 16.0528 106.425 15.5518C106.379 13.1377 106.698 13.8665 104.921 12.0446C104.647 11.7713 104.419 11.7257 104.055 11.8168C102.368 12.2267 101.229 13.5021 100.955 15.233C100.773 16.3717 100.91 17.5104 100.864 18.6491C100.819 19.059 101.001 19.1501 101.366 19.1501C102.232 19.1046 103.052 19.1501 103.918 19.1501C104.283 19.1501 104.419 19.2412 104.374 19.6056C104.192 20.881 103.736 21.9286 102.551 22.6118C102.551 22.8396 102.687 22.7485 102.779 22.7485C104.739 22.4296 105.924 21.3365 106.334 19.469C106.425 19.1501 106.562 19.1501 106.79 19.1501C107.61 19.1501 108.476 19.1501 109.342 19.1501C109.889 19.1501 111.666 17.6015 111.712 17.0549C111.712 16.0073 111.712 14.9597 111.712 13.9576ZM104.1 17.0549C102.961 17.1915 102.915 17.146 102.915 16.0073C102.915 14.7775 103.417 13.9576 104.374 13.5932C104.374 14.6408 104.374 15.734 104.374 16.7816C104.374 17.0094 104.283 17.0094 104.1 17.0549Z" fill="white"/>
<path d="M113.717 30.8106C113.125 31.3116 111.621 31.4027 111.074 30.9017C110.891 30.765 110.8 30.8561 110.709 30.9472C110.208 31.2205 109.752 31.4938 109.296 30.9017C109.205 30.765 109.068 30.9017 108.977 30.9472C108.111 31.3572 107.291 31.3572 106.425 30.9928C106.334 30.9472 106.288 30.9017 106.242 30.9928C105.923 31.3572 105.468 31.2205 105.057 31.2205C103.189 31.2205 101.365 31.2205 99.4967 31.2205C99.041 31.2205 98.8586 31.1294 98.9042 30.6284C98.9498 29.4441 98.9498 28.2598 98.9042 27.0756C98.9042 26.8023 99.041 26.4834 98.7219 26.2557C98.5852 26.1646 98.7219 26.0735 98.8131 26.028C98.9498 25.9369 99.0865 25.8458 99.2233 25.7547C99.7702 25.4358 99.9525 25.4814 99.9525 26.1191C99.9525 27.3033 99.9525 28.442 99.9525 29.6263C99.9525 30.0362 100.089 30.1729 100.499 30.1729C102.095 30.1273 103.69 30.1729 105.285 30.1729C105.513 30.1729 105.832 30.3095 105.923 30.0362C106.014 29.7174 106.06 29.353 105.832 29.0797C105.741 28.9431 105.65 28.9431 105.832 28.852L105.878 28.8064C106.197 28.6698 106.425 28.2598 106.744 28.3965C107.108 28.5787 106.88 28.9886 106.926 29.3075C106.972 29.4441 106.926 29.6263 106.926 29.8085C106.926 29.9451 106.835 30.1729 107.063 30.2184C107.245 30.264 107.473 30.3095 107.564 30.1729C107.655 30.0362 107.655 29.8085 107.564 29.6719C107.473 29.5808 107.291 29.4897 107.519 29.3986C107.838 29.2619 108.02 28.8975 108.43 28.9431C108.658 28.9886 108.658 29.1708 108.658 29.353C108.658 29.5352 108.658 29.7629 108.658 29.9451C108.658 30.2184 108.795 30.2184 109.023 30.2184C109.205 30.2184 109.342 30.1273 109.296 29.9451C109.296 29.7174 109.387 29.353 109.251 29.2619C109.023 29.0797 109.114 28.9886 109.296 28.8975C109.615 28.7609 109.797 28.3509 110.162 28.5331C110.527 28.7153 110.299 29.1708 110.344 29.4897C110.436 29.7629 110.025 30.264 110.755 30.264C110.937 30.264 111.028 30.1729 111.028 30.0362C110.983 29.6263 111.165 29.1708 110.937 28.8064C110.846 28.6242 110.937 28.5787 111.028 28.5331C111.302 28.3965 111.529 28.0776 111.849 28.1232C112.031 28.1232 112.076 28.3054 112.076 28.4876C112.076 28.9431 112.122 29.3986 112.076 29.854C112.031 30.3095 112.35 30.264 112.623 30.264C112.897 30.264 113.17 30.3551 113.17 29.854C113.125 28.8064 113.261 27.7588 113.125 26.7112C113.034 26.1191 113.216 25.9824 113.581 25.7547C113.991 25.4814 114.173 25.6636 114.173 26.1191C114.173 27.3033 114.219 28.5331 114.173 29.7174C114.173 30.264 114.446 30.2184 114.811 30.2184C115.176 30.2184 115.404 30.1729 115.358 29.7174C115.312 28.7153 115.495 27.6677 115.312 26.6656C115.176 26.028 115.54 25.9369 115.859 25.7547C116.178 25.5269 116.406 25.6636 116.452 26.028C116.452 27.3944 116.498 28.8064 116.452 30.1729C116.452 30.6284 115.951 30.8561 115.632 31.1294C115.13 31.4027 114.036 31.175 113.717 30.8106Z" fill="white"/>
<path d="M53.7352 13.5932C54.6012 13.0466 55.5127 12.5 56.3787 11.999C56.8801 11.7257 57.1991 12.0445 57.427 12.4545C58.1107 13.6843 58.84 14.823 59.7971 15.8251C60.3896 16.4628 61.0277 17.0549 62.076 17.0549C61.8026 17.6015 61.5747 18.1025 61.3012 18.6035C61.0733 19.0135 60.6631 19.1046 60.2073 19.1046C58.9311 19.1046 57.6549 19.0135 56.4243 19.1957C56.1508 19.2412 55.9229 19.2868 55.6495 19.3779C54.5556 19.7423 54.1454 20.6077 54.5556 21.7009C54.7835 22.293 55.2393 22.794 55.695 23.4317C54.6467 22.9762 53.8263 22.5207 53.2338 21.7009C52.3678 20.471 52.5501 19.059 53.7807 18.1025C54.7835 17.3282 55.9229 17.1004 57.1536 17.0549C57.5638 17.0549 57.9284 17.0549 58.4298 17.0549C57.4726 16.0984 56.6978 15.1418 56.1052 14.0487C55.9685 13.8209 55.7862 13.7298 55.5127 13.7298C54.9202 13.7298 54.3277 13.7298 53.6896 13.7298C53.7352 13.6387 53.7352 13.6387 53.7352 13.5932Z" fill="white"/>
<path d="M71.7843 28.8975C71.7387 28.5787 71.9666 28.1232 71.602 27.9866C71.1918 27.8499 70.9639 28.3054 70.5993 28.4421C70.5537 28.4876 70.417 28.4876 70.5081 28.5787C70.9639 28.9431 70.5993 29.3986 70.736 29.8541C70.7816 30.0818 70.6449 30.1729 70.417 30.1729C70.1891 30.1729 70.0523 30.1274 70.0523 29.8541C70.0523 29.6719 70.0523 29.4441 70.0523 29.2619C70.0068 28.9886 70.1891 28.5787 69.87 28.4421C69.551 28.2599 69.3231 28.6242 69.0952 28.7609C68.9129 28.852 68.7761 28.8975 68.9584 29.1708C69.0952 29.353 69.004 29.7174 69.004 29.9907C69.004 30.2184 68.7761 30.1729 68.6394 30.1729C68.5027 30.1729 68.3659 30.1729 68.3659 29.9452C68.3659 29.763 68.3659 29.6263 68.3659 29.4441C68.3659 29.2164 68.4115 28.9431 68.0925 28.852C68.0013 28.852 67.0897 29.3986 67.0897 29.4897C67.0897 29.5352 67.1809 29.5352 67.2265 29.5808C67.4088 29.7174 67.4088 29.8996 67.3176 30.0818C67.1809 30.264 66.953 30.1729 66.7707 30.1729C66.4972 30.1729 66.5884 29.9452 66.5884 29.8085C66.5884 29.4441 66.5884 29.0342 66.5884 28.6698C66.5884 28.2599 65.8591 27.44 65.4945 27.4855C64.8108 27.5311 64.2639 27.941 63.9448 28.5332C63.6713 29.0342 63.4435 29.6263 64.1271 30.2184C61.6203 30.2184 59.2502 30.2184 56.8801 30.2184C56.3788 30.2184 56.242 30.0818 56.242 29.5808C56.2876 28.4421 56.2876 27.3033 56.242 26.1646C56.242 25.618 56.0597 25.5269 55.6039 25.8002C55.3305 25.9824 54.8291 26.0735 55.2393 26.6201C55.2849 26.7112 55.2393 26.8479 55.2393 26.9845C55.2393 28.2143 55.2849 29.4897 55.2393 30.7195C55.2393 31.2205 55.3761 31.3116 55.8318 31.3116C59.1591 31.3116 62.5319 31.3116 65.8591 31.3116C66.3149 31.3116 66.7707 31.4483 67.1809 31.0383C67.272 30.9472 67.3632 30.9472 67.4544 31.0839C67.8646 31.4938 68.2748 31.3572 68.685 31.1294C68.8217 31.0383 68.9129 30.8561 69.1408 31.0383C69.551 31.4027 70.417 31.4027 70.8727 31.0839C71.5564 30.4462 71.9666 29.8541 71.7843 28.8975ZM65.4945 29.2619C65.4945 29.4441 65.4945 29.6719 65.4945 29.8541C65.4945 30.0363 65.4033 30.1729 65.221 30.1274C64.9931 30.1274 64.7196 30.2184 64.6741 29.8996C64.5829 29.3986 64.6741 28.8975 65.0387 28.5332C65.1299 28.4421 65.2666 28.3054 65.4033 28.351C65.5856 28.3965 65.4945 28.5787 65.4945 28.7153C65.4945 28.8975 65.4945 29.0797 65.4945 29.2619Z" fill="white"/>
<path d="M115.722 20.1978C113.99 20.4255 113.169 19.6967 113.169 17.9659C113.169 15.2785 113.169 12.5912 113.169 9.90379C113.169 9.49385 113.124 9.12946 112.395 9.22056C113.124 8.71952 113.671 8.35514 114.263 7.99075C114.673 7.763 115.084 7.9452 115.175 8.40068C115.22 8.53733 115.175 8.62843 115.175 8.76507C115.175 11.7713 115.175 14.7319 115.175 17.7382C115.175 18.6036 115.175 19.4235 115.722 20.1978Z" fill="white"/>
<path d="M96.6699 9.12937C97.1713 8.81053 97.6726 8.49169 98.174 8.17285C98.4019 8.03621 98.6298 7.80846 98.9488 7.99066C99.2679 8.17285 99.2679 8.44614 99.2679 8.76498C99.2679 11.8167 99.2679 14.8685 99.2679 17.9203C99.2679 18.6946 99.3135 19.4689 99.7693 20.1521C98.2652 20.5165 97.2624 19.7422 97.2624 18.1936C97.2624 15.4606 97.2624 12.7277 97.2624 10.0403C97.2624 9.58486 97.308 9.17492 96.6699 9.12937Z" fill="white"/>
<path d="M89.6045 20.1978C87.827 20.38 87.0522 19.7423 87.0522 18.057C87.0522 15.3696 87.0522 12.6822 87.0522 9.99486C87.0522 9.58492 87.0977 9.12944 86.4141 9.17499C86.961 8.8106 87.5079 8.44621 88.0549 8.08182C88.5562 7.76298 88.9209 7.94517 89.012 8.5373C89.0576 8.67395 89.012 8.85615 89.012 9.03834C89.012 12.0446 88.9665 15.0052 88.9665 18.0114C89.012 18.7402 89.1032 19.469 89.6045 20.1978Z" fill="white"/>
<path d="M97.6724 29.9907C97.3078 29.7174 97.0343 29.4441 96.7608 29.1253C96.4874 28.7153 96.2139 28.3054 95.9404 27.8499C95.8037 27.6222 95.667 27.3944 95.3935 27.5766C94.9377 27.8499 94.5275 28.1232 94.0261 28.3965C94.4819 28.5787 94.9833 28.2598 95.2568 28.6242C95.5758 29.1253 95.9404 29.5807 96.3962 30.1273H87.7363C87.554 30.1273 87.4173 30.0818 87.4173 29.854C87.4628 28.9886 87.1894 28.0321 87.9642 27.2578C87.2805 27.1667 86.8703 27.4855 86.5968 27.941C86.3234 28.3965 85.9587 28.5331 85.503 28.5331C85.2751 28.5331 85.0472 28.5331 84.8193 28.5331C84.3635 28.5787 84.09 28.8064 83.9533 29.2164C83.771 29.6263 83.9533 29.8996 84.2723 30.1273C84.4091 30.264 84.5458 30.4006 84.6825 30.5373C85.6397 31.4938 85.7308 31.4938 86.4601 30.3095V30.264C86.9615 30.9472 87.5996 31.0838 88.42 31.0838C91.2458 31.0383 94.0261 31.0838 96.852 31.0838H97.2622C97.8091 31.0838 97.9459 30.6284 98.0826 30.264C98.2649 29.9907 97.8091 30.1273 97.6724 29.9907ZM86.4601 30.4006C85.7764 30.5828 85.5485 29.8996 85.0472 29.5807C85.5485 29.4441 85.9587 29.3986 86.2778 29.1253C86.4601 29.5352 86.1866 29.9907 86.4601 30.4006C86.4601 30.3551 86.5057 30.3551 86.4601 30.4006Z" fill="white"/>
<path d="M91.9297 22.6118C93.2515 21.8375 93.7528 20.5621 93.7984 19.1501C93.844 17.8748 93.7984 16.645 93.7984 15.3696C93.7984 14.9597 93.7528 14.6408 93.2059 14.5953C93.7984 14.2309 94.3909 13.8209 94.9834 13.4566C95.3481 13.2288 95.8039 13.5021 95.8039 13.9576C95.8039 15.8251 95.895 17.7381 95.7583 19.6056C95.6671 21.1998 94.1175 22.4296 92.2032 22.7485C92.0664 22.7485 91.9297 22.8396 91.9297 22.6118Z" fill="white"/>
<path d="M72.6038 31.7671C72.1936 30.5828 72.5126 29.4897 73.5153 28.5787C72.9684 28.3054 73.1051 27.8044 73.0596 27.3489C73.0596 27.0756 73.2419 26.7567 72.8772 26.5745C72.7861 26.529 72.8317 26.4834 72.8317 26.4379C72.8772 26.3924 72.8772 26.3924 72.9228 26.3468C73.2419 26.2102 73.5153 25.7547 73.8344 25.8913C74.2446 26.028 74.0167 26.529 74.0623 26.8478C74.1079 27.2122 74.0623 27.5766 74.0623 27.941C74.0623 28.1232 74.0167 28.3509 74.3358 28.3509C74.6092 28.3509 74.7915 28.2598 74.7004 27.9866C74.6092 27.3944 74.8371 26.8023 74.5636 26.2102C74.4725 25.9824 75.0194 25.8458 75.2473 25.6636C75.3841 25.5725 75.5664 25.5269 75.6575 25.6636C75.7943 25.8913 75.8398 26.1191 75.6119 26.3013C75.4752 26.4379 75.2017 26.529 75.6575 26.6201C75.7031 26.6201 75.7487 26.7112 75.7487 26.7567C75.7487 27.5766 75.7487 28.3509 75.7487 29.1708C75.7487 29.3986 75.5208 29.353 75.3841 29.353C75.0194 29.3986 74.6092 29.3986 74.2446 29.3986C73.9711 29.4441 73.7432 29.5808 73.6065 29.8085C73.5153 29.9907 73.4698 30.1729 73.7888 30.1273C74.3813 29.9907 75.065 30.4006 75.6119 29.8996C75.7031 29.8085 75.7487 29.9451 75.7487 29.9907C75.8398 30.1729 75.9766 30.3095 76.0677 30.4917C76.3412 30.9928 76.25 31.1294 75.7031 31.1294C75.2017 31.1294 74.7004 31.1294 74.199 31.1294C73.6065 31.175 73.0596 31.2661 72.6038 31.7671Z" fill="white"/>
<path d="M81.5375 28.852C81.583 28.1688 81.0817 27.8044 80.6259 27.5311C80.2613 27.3033 79.8511 27.6677 79.4864 27.8955C79.1218 28.1688 78.9395 28.5332 78.8028 28.9431C78.6204 29.5808 78.7116 30.264 78.666 30.9017C78.666 31.0383 78.7116 31.175 78.8939 31.175C79.3953 31.1294 79.9422 31.3116 80.4436 30.9472C80.4892 31.7671 80.2157 32.4503 79.5776 32.9969C80.8538 32.8147 81.4919 32.1315 81.4919 30.9928C81.5375 30.264 81.4919 29.5352 81.5375 28.852ZM80.5347 29.353C80.398 29.6263 80.8538 30.2185 80.0334 30.1274C79.8966 30.1274 79.8055 30.0818 79.8055 29.8996C79.8055 29.4441 79.7599 29.0342 80.0789 28.6698C80.1701 28.5787 80.2613 28.4421 80.398 28.4421C80.5803 28.4876 80.4892 28.6698 80.5347 28.8065C80.5347 28.9886 80.5347 29.1708 80.5347 29.353Z" fill="white"/>
<path d="M78.2559 31.7216C77.2988 31.7671 76.9797 31.4939 76.9342 30.674C76.9342 29.3986 76.9342 28.1688 76.9342 26.8934C76.9342 26.7112 77.1165 26.3924 76.7518 26.3013C76.6607 26.2558 76.7063 26.1647 76.7518 26.1191C76.7974 26.1191 76.7974 26.0736 76.843 26.0736C77.1621 25.9369 77.3899 25.4814 77.8001 25.6636C78.1648 25.8458 77.9825 26.3013 77.9825 26.6201C77.9825 27.9411 77.9369 29.3075 77.9369 30.6284C77.9825 30.9473 77.9825 31.3572 78.2559 31.7216Z" fill="white"/>
<path d="M112.713 7.62634C112.713 7.58079 112.713 7.53524 112.713 7.53524C112.895 6.85201 113.488 6.35097 113.26 5.44C113.078 4.71122 114.49 4.11909 115.22 4.57458C115.63 4.84787 115.721 5.25781 115.539 5.66774C115.448 5.89549 115.356 6.12323 115.083 5.75884C114.946 5.57665 114.764 5.57665 114.536 5.57665C114.263 5.57665 114.08 5.71329 114.08 5.94104C114.08 6.16878 114.263 6.30543 114.49 6.30543C114.81 6.30543 115.083 6.30543 115.402 6.30543C115.858 6.35097 115.995 6.53317 115.767 6.98866C115.675 7.17085 115.584 7.35304 115.448 7.48969C115.402 7.58079 115.356 7.71743 115.22 7.67189C114.399 7.3075 113.533 7.58079 112.713 7.62634Z" fill="white"/>
<path d="M55.5584 39.1004C55.1938 39.0549 55.1482 38.7816 55.057 38.5083C54.6924 37.5518 54.3734 36.5497 54.0087 35.5932C53.872 35.2288 53.6441 34.9555 53.2339 35.0011C53.0972 35.0466 52.8693 35.1377 53.006 35.3199C53.2795 35.5932 53.0972 35.8665 53.006 36.0942C52.6414 36.9141 52.2768 37.6884 51.9121 38.5083C51.7754 38.7816 51.6387 39.0093 51.7754 39.3282C51.8665 39.5104 52.0489 39.6015 52.3223 39.5104C52.5502 39.4193 52.5046 39.3282 52.4591 39.1004C52.3223 38.3717 52.687 38.0073 53.4618 38.0073C53.5074 38.0073 53.5985 38.0073 53.6441 38.0073C53.872 38.0528 54.2366 37.8706 54.2822 38.235C54.3278 38.5083 54.8747 38.8727 54.2366 39.146C54.0999 39.1915 54.1455 39.4648 54.4189 39.4648C54.7836 39.4648 55.1026 39.4648 55.4672 39.4648C55.5584 39.4648 55.6496 39.4648 55.6951 39.3282C55.6951 39.1915 55.6951 39.1004 55.5584 39.1004ZM52.9604 37.4607C53.1427 37.0052 53.3251 36.5953 53.5529 36.0487C53.7353 36.5497 53.872 36.9597 54.0543 37.4607H52.9604Z" fill="white"/>
<path d="M103.461 36.5497C104.464 36.1398 105.056 36.2309 105.512 36.823C105.968 37.4151 105.922 38.4172 105.421 39.0093C105.056 39.4648 104.418 39.647 103.963 39.4648C103.78 39.3737 103.552 39.2826 103.689 39.0093C103.826 38.7361 103.963 38.9183 104.099 39.0093C104.145 39.0549 104.236 39.1004 104.327 39.1004C104.829 39.1004 105.056 38.7816 105.193 38.3261C105.376 37.5973 105.148 36.9597 104.646 36.7775C104.236 36.6408 103.826 36.823 103.598 37.324C103.37 37.8251 103.507 38.3261 103.461 38.8272C103.416 39.3282 103.097 39.6015 102.641 39.4648C102.55 39.4648 102.458 39.4193 102.458 39.3737C102.413 39.2826 102.458 39.146 102.595 39.146C103.005 39.146 102.914 38.8272 102.914 38.5994C102.914 37.734 102.914 36.8686 102.914 36.0031C102.914 35.6843 103.097 35.2744 102.55 35.2288C102.413 35.2288 102.413 35.0466 102.55 34.9555C102.96 34.7278 103.461 35.0011 103.461 35.5021C103.461 35.6843 103.461 35.8665 103.461 36.0487C103.461 36.1853 103.461 36.3675 103.461 36.5497Z" fill="white"/>
<path d="M114.308 36.5042C114.582 36.4131 114.764 36.322 114.946 36.2764C115.721 36.0942 116.314 36.4586 116.405 37.2785C116.45 37.6884 116.405 38.0984 116.405 38.4628C116.405 38.6905 116.268 39.0549 116.724 39.1005C116.815 39.1005 116.815 39.2371 116.815 39.2827C116.815 39.3738 116.724 39.3738 116.633 39.3738C116.177 39.4648 115.858 39.2371 115.858 38.7816C115.858 38.3261 115.858 37.8706 115.858 37.4152C115.858 37.0508 115.767 36.7319 115.357 36.6408C114.992 36.5953 114.627 36.7775 114.536 37.0963C114.354 37.734 114.08 38.4628 114.673 39.1005C114.81 39.2371 114.764 39.3738 114.582 39.3738C114.354 39.3738 114.126 39.3738 113.898 39.3738C113.716 39.3738 113.488 39.4648 113.397 39.2827C113.26 39.0094 113.579 39.0549 113.716 38.9638C113.852 38.8727 113.807 38.6905 113.807 38.5539C113.807 37.5518 113.807 36.5497 113.807 35.5477C113.807 35.411 113.807 35.3199 113.761 35.1833C113.716 35.0011 113.26 35.1833 113.442 34.8189C113.533 34.6822 113.761 34.7278 113.944 34.7733C114.217 34.7733 114.354 35.0011 114.399 35.2744C114.308 35.7299 114.308 36.0942 114.308 36.5042Z" fill="white"/>
<path d="M58.4305 38.2806C58.5216 38.5539 58.2481 39.0093 58.7495 39.2371C58.8862 39.2826 58.7495 39.4648 58.5672 39.4648C58.2481 39.4648 57.9747 39.4648 57.6556 39.4648C57.5645 39.4648 57.4277 39.4648 57.4277 39.3282C57.4277 39.2371 57.4733 39.1915 57.61 39.1004C57.9747 38.8727 58.0203 36.9141 57.61 36.6408C57.5189 36.5953 57.4277 36.5497 57.4277 36.4586C57.4277 36.322 57.5645 36.2764 57.6556 36.322C58.2481 36.5497 58.7495 36.322 59.2965 36.2309C59.9346 36.1398 60.3903 36.5953 60.4359 37.2785C60.4815 37.6884 60.4359 38.0984 60.4359 38.4628C60.4359 38.736 60.2992 39.0549 60.755 39.1004C60.8005 39.1004 60.8461 39.2371 60.8461 39.2826C60.8461 39.4193 60.7094 39.4193 60.6182 39.4193C60.1624 39.4648 59.889 39.2826 59.8434 38.7816C59.7978 38.3261 59.8434 37.8706 59.8434 37.4151C59.8434 37.0508 59.7978 36.7319 59.3876 36.6864C58.9774 36.5953 58.7039 36.823 58.5216 37.1419C58.4305 37.5062 58.476 37.8706 58.4305 38.2806Z" fill="white"/>
<path d="M100.317 39.3282C100.271 39.3737 100.18 39.4193 100.134 39.4193C99.8152 39.4648 99.5417 39.3737 99.3594 39.0549C99.3594 37.9162 99.2227 37.734 98.4022 38.0073C98.0376 38.0984 97.8097 38.3261 97.9465 38.6905C98.0832 39.1004 98.4022 39.146 98.7213 38.9638C99.0859 38.736 99.1771 38.8271 99.1771 39.0549C99.1771 39.146 99.1315 39.1915 99.1315 39.3282C98.9036 39.4648 98.6301 39.4648 98.3567 39.4648C97.8097 39.4193 97.3539 39.1004 97.3539 38.6449C97.3083 38.0984 97.6274 37.7795 98.1288 37.6429C98.4022 37.5973 98.6301 37.5973 98.9036 37.5518C99.0859 37.5062 99.3594 37.6884 99.3594 37.324C99.3594 37.0507 99.3138 36.7774 99.0403 36.6864C98.6757 36.5953 98.3111 36.5953 98.1288 37.0052C98.0832 37.1418 98.1288 37.4607 97.8097 37.2785C97.5818 37.1418 97.5362 36.9141 97.673 36.6864C97.992 36.1853 98.4934 36.1398 98.9948 36.2309C99.4505 36.2764 99.8152 36.5497 99.8608 37.0052C99.9063 37.5062 99.9063 38.0073 99.9519 38.5083C99.9519 38.7816 99.8152 39.1004 100.271 39.1915C100.317 39.146 100.362 39.2826 100.317 39.3282Z" fill="white"/>
<path d="M85.2758 38.0984C85.1391 38.0984 85.0024 38.0984 84.8656 38.0984C84.7289 38.0984 84.501 38.2806 84.4554 37.9617C84.4099 37.6884 84.6377 37.6429 84.8201 37.6429C85.0024 37.6429 85.1391 37.6429 85.3214 37.6429C85.5037 37.5973 85.8228 37.7795 85.8684 37.5062C85.9139 37.233 85.8228 37.0052 85.5949 36.823C85.5037 36.7319 85.367 36.6864 85.2758 36.6864C84.8201 36.5953 84.501 36.823 84.3187 37.233C84.0452 37.7795 84.182 38.645 84.5922 38.9638C85.0024 39.2371 85.367 39.1915 85.7772 38.9183C85.9139 38.8272 86.0051 38.4628 86.233 38.7361C86.4609 39.0094 86.233 39.2371 86.0051 39.3737C85.5037 39.7381 84.5466 39.6015 84.0908 39.1916C83.5894 38.6905 83.4527 37.6884 83.8173 37.0052C84.1364 36.4131 84.8656 36.0942 85.5037 36.2764C86.0507 36.4131 86.5065 37.0052 86.4609 37.5973C86.4609 37.9162 86.3241 38.1439 85.9595 38.1439C85.7316 38.0528 85.5037 38.0528 85.2758 38.0984C85.2758 38.0528 85.2758 38.0984 85.2758 38.0984Z" fill="white"/>
<path d="M77.0252 39.3282C77.0252 39.4193 76.934 39.4193 76.8429 39.4193C76.5238 39.4648 76.2504 39.3737 76.068 39.0549C76.068 37.8706 75.9769 37.734 75.1109 37.9617C74.7463 38.0528 74.5184 38.2806 74.6551 38.6449C74.7918 39.0549 75.1109 39.1004 75.4299 38.9182C75.7946 38.6905 75.8857 38.7816 75.8857 38.9638C75.8857 39.0549 75.8402 39.1004 75.8402 39.2371C75.7034 39.2826 75.5667 39.3282 75.4299 39.3737C74.7007 39.5104 74.1538 39.1915 74.0626 38.5994C73.9714 38.0528 74.3361 37.6429 75.0653 37.5062C75.2021 37.4607 75.2932 37.5062 75.4299 37.4607C75.6578 37.3696 76.0225 37.6884 76.068 37.2329C76.1136 36.9596 76.0225 36.6408 75.7034 36.5497C75.3388 36.4586 75.0197 36.5042 74.8374 36.9141C74.7463 37.0963 74.7463 37.3696 74.4728 37.1418C74.2905 37.0052 74.2905 36.7775 74.3816 36.5953C74.7463 36.0942 75.2476 36.0487 75.7946 36.1398C76.2504 36.1853 76.5694 36.5042 76.615 36.9596C76.6606 37.4151 76.615 37.8251 76.615 38.2806C76.615 38.5539 76.4783 38.9638 76.9796 39.0549C76.9796 39.146 77.0252 39.2826 77.0252 39.3282Z" fill="white"/>
<path d="M111.163 39.3282C111.163 39.4193 111.072 39.4193 110.981 39.4193C110.662 39.4648 110.388 39.3737 110.206 39.0549C110.206 37.9162 110.115 37.734 109.294 37.9617C108.93 38.0528 108.702 38.2806 108.839 38.6449C108.975 39.0093 109.294 39.1004 109.614 38.9182C109.978 38.6905 110.069 38.7816 110.069 38.9638C110.069 39.0549 110.024 39.1004 110.024 39.2371C109.887 39.2826 109.75 39.3282 109.614 39.3737C108.884 39.4648 108.337 39.146 108.246 38.5994C108.155 38.0528 108.52 37.6429 109.249 37.5062C109.386 37.4607 109.477 37.5062 109.614 37.4607C109.841 37.3696 110.206 37.6884 110.252 37.2329C110.297 36.9596 110.252 36.6864 109.933 36.5953C109.614 36.5042 109.294 36.5042 109.067 36.823C109.021 36.8685 109.021 36.9141 109.021 36.9141C108.975 37.0507 109.021 37.3696 108.702 37.1874C108.474 37.0507 108.429 36.823 108.565 36.5953C108.884 36.0942 109.431 36.0487 109.978 36.1398C110.434 36.1853 110.753 36.5042 110.799 36.9596C110.844 37.4151 110.799 37.8251 110.799 38.2806C110.799 38.5539 110.662 38.9638 111.163 39.0549C111.163 39.146 111.209 39.2826 111.163 39.3282Z" fill="white"/>
<path d="M52.6875 32.8147C53.1433 32.4503 53.4168 31.9493 53.4168 31.3572C53.4168 30.7195 53.4623 30.0363 53.4623 29.3986C53.4623 29.1708 53.4168 28.9886 53.0977 28.852C53.5991 28.7153 53.8725 28.1232 54.2827 28.351C54.7385 28.5787 54.4195 29.1253 54.4651 29.4897C54.5106 29.8996 54.4651 30.3096 54.4651 30.765C54.4651 31.9949 54.1004 32.4959 52.9154 32.9514C52.7787 32.9969 52.6875 33.0425 52.6875 32.8147Z" fill="white"/>
<path d="M64.7196 36.1853C63.7624 36.1853 63.1699 36.7775 63.1699 37.8251C63.1699 38.8272 63.7624 39.5104 64.7196 39.5104C65.6312 39.5104 66.2693 38.8272 66.2693 37.8251C66.2693 36.823 65.6767 36.1853 64.7196 36.1853ZM64.7196 39.1004C64.0815 39.1004 63.7624 38.6905 63.7169 37.9162C63.7169 37.0963 64.0815 36.6408 64.7196 36.6408C65.3577 36.6408 65.6767 37.0508 65.6767 37.8251C65.6767 38.645 65.3577 39.1004 64.7196 39.1004Z" fill="white"/>
<path d="M71.3749 37.7795C71.3749 38.0983 71.3749 38.4172 71.3749 38.736C71.3749 38.9182 71.3749 39.0549 71.6028 39.1004C71.7851 39.1004 71.8762 39.1915 71.8307 39.3282C71.7851 39.5104 71.5572 39.4648 71.466 39.4193C70.9647 39.1915 70.4633 39.3282 69.9619 39.4648C69.2783 39.647 68.8225 39.1915 68.8225 38.4627C68.8225 38.0528 68.8225 37.6429 68.8225 37.1874C68.8225 36.9596 68.8681 36.6863 68.5034 36.6408C68.3667 36.6408 68.3211 36.5497 68.3667 36.413C68.3667 36.3219 68.4579 36.3219 68.549 36.3219C69.0504 36.2308 69.3238 36.4586 69.3238 36.9141C69.3238 37.4151 69.3238 37.9161 69.3238 38.4172C69.3238 38.6905 69.415 38.9638 69.7341 39.0549C70.0531 39.146 70.3266 39.0093 70.5089 38.736C70.9191 38.235 70.8735 37.2329 70.4633 36.5952C70.3722 36.4586 70.4177 36.3675 70.5545 36.3219C70.9647 36.1853 71.3293 36.413 71.3293 36.8685C71.3749 37.1874 71.3749 37.4607 71.3749 37.7795Z" fill="white"/>
<path d="M94.4819 37.4152C94.4819 36.7775 94.1628 36.5953 93.6159 36.6408C93.4336 36.6864 93.2512 36.7319 93.2057 36.9141C93.1601 37.1419 93.2968 37.3241 93.4791 37.4152C93.7982 37.5518 94.1628 37.6884 94.4819 37.8251C94.8465 37.9617 95.12 38.235 95.0744 38.645C95.0288 39.0549 94.7553 39.3282 94.3451 39.4648C93.7982 39.647 93.2512 39.5559 92.7954 39.2371C92.5676 39.0549 92.522 38.8272 92.7043 38.645C92.9322 38.4172 93.0233 38.6905 93.1601 38.8272C93.2968 39.0094 93.4791 39.1005 93.707 39.1005C93.9805 39.1005 94.2995 39.146 94.4363 38.7816C94.573 38.4172 94.254 38.3261 93.9805 38.1895C93.6614 38.0528 93.3424 37.9617 93.0689 37.7795C92.522 37.4607 92.4764 36.7775 93.0689 36.4131C93.5247 36.0942 94.0717 36.0942 94.573 36.322C95.0288 36.5497 95.0288 37.0052 94.4819 37.4152Z" fill="white"/>
<path d="M79.487 37.9617C79.487 37.5973 79.487 37.324 79.487 37.0507C79.487 36.9141 79.487 36.7775 79.3959 36.7319C79.3047 36.6408 78.9401 36.6864 79.1224 36.4131C79.2136 36.2309 79.5326 36.2764 79.6694 36.3675C79.9428 36.5953 80.1251 36.4586 80.3986 36.322C80.9 36.0942 81.4925 36.4131 81.4469 36.9141C81.4469 37.1418 81.3558 37.324 81.1279 37.324C80.9 37.324 80.9 37.1874 80.9456 37.0052C80.9456 36.8685 80.9456 36.7775 80.7632 36.7319C80.5809 36.6864 80.4442 36.7319 80.3075 36.8685C80.0796 37.0963 79.9884 37.4151 80.034 37.6884C80.1251 38.1895 79.7149 38.8271 80.353 39.2371C80.4442 39.2826 80.3986 39.4648 80.2163 39.4648C79.9884 39.4648 79.7149 39.4648 79.487 39.4648C79.3503 39.4648 79.1224 39.5559 79.0768 39.3737C78.9857 39.146 79.3047 39.1915 79.3503 39.1004C79.6238 38.6905 79.3959 38.2806 79.487 37.9617Z" fill="white"/>
<path d="M109.568 11.999C109.067 11.999 108.611 11.5435 108.611 11.0425C108.611 10.4959 109.022 10.0404 109.568 10.0404C110.07 10.0404 110.526 10.4959 110.526 10.9969C110.571 11.498 110.115 11.999 109.568 11.999Z" fill="white"/>
<path d="M69.2327 21.6097C69.2327 22.1563 68.7769 22.6118 68.2299 22.5663C67.7286 22.5663 67.3184 22.1108 67.3184 21.5642C67.3184 21.0176 67.7286 20.6077 68.2755 20.6077C68.7769 20.6077 69.2327 21.0632 69.2327 21.6097Z" fill="white"/>
<path d="M89.5136 36.9141C89.5136 37.4152 89.468 37.9617 89.5136 38.4628C89.5592 39.0094 89.6959 39.1005 90.1517 38.7361C90.2884 38.645 90.3796 38.645 90.4707 38.7361C90.653 38.9183 90.5619 39.1005 90.4251 39.2371C90.1973 39.4648 89.8782 39.5104 89.6047 39.4193C89.2401 39.3282 89.0578 39.0549 89.0578 38.7361C89.0122 38.235 89.0578 37.734 89.0122 37.233C89.0122 36.7775 89.0122 36.322 89.0122 35.8665C89.0122 35.5932 89.149 35.2288 88.6476 35.1833C88.5109 35.1833 88.4653 34.9555 88.6476 34.91C89.0122 34.7278 89.5136 35.0011 89.5136 35.4566C89.5136 35.912 89.5136 36.4131 89.5136 36.9141Z" fill="white"/>
<path d="M73.1975 25.3903C73.1975 25.3903 73.0152 25.3903 72.8785 25.3903C72.6962 25.4359 72.5594 25.3448 72.6962 25.1626C72.8785 24.8893 72.9241 24.7071 72.8785 24.3883C72.8329 24.0239 73.3798 23.705 73.7445 23.7961C74.0179 23.8872 74.1547 24.0694 74.1091 24.3427C74.0179 24.7071 73.8356 24.4793 73.6989 24.3883C73.5622 24.3427 73.3798 24.3883 73.3798 24.5704C73.3798 24.7071 73.5166 24.7071 73.6533 24.7526C73.8812 24.7982 74.2458 24.5704 74.2003 25.0259C74.1547 25.4359 73.8356 25.4814 73.5166 25.3903C73.471 25.3448 73.3798 25.3903 73.1975 25.3903Z" fill="white"/>
<path d="M65.3113 26.9845C65.0378 26.9389 64.8555 26.8023 64.8555 26.4835C64.8555 26.1646 65.0378 25.9824 65.3113 25.9824C65.6303 25.9824 65.8126 26.1646 65.8126 26.4835C65.8126 26.7568 65.6303 26.9389 65.3113 26.9845Z" fill="white"/>
<path d="M86.7345 26.8934C86.6889 27.1667 86.5522 27.3945 86.2331 27.3945C85.9596 27.3945 85.7317 27.1667 85.7773 26.8934C85.7773 26.5746 86.0052 26.3469 86.3243 26.3924C86.5977 26.3469 86.7345 26.5746 86.7345 26.8934Z" fill="white"/>
<path d="M104.874 31.9493C105.193 31.9949 105.33 32.1771 105.33 32.4504C105.33 32.7692 105.148 32.9514 104.829 32.9514C104.51 32.9514 104.373 32.7237 104.373 32.4504C104.373 32.1315 104.555 31.9493 104.874 31.9493Z" fill="white"/>
<path d="M85.4122 26.8478C85.3666 27.03 85.6401 27.3944 85.1843 27.3944C84.9108 27.3944 84.6829 27.1667 84.7285 26.8478C84.7285 26.5745 84.9108 26.3468 85.2299 26.3468C85.5945 26.3468 85.3666 26.6656 85.4122 26.8478Z" fill="white"/>
<path d="M106.104 31.9949C106.241 32.0404 106.423 32.1771 106.423 32.4959C106.423 32.7692 106.241 32.9514 105.968 32.9514C105.466 32.9058 105.831 32.5414 105.74 32.3137C105.603 32.1315 105.649 31.9038 106.104 31.9949Z" fill="white"/>
</svg>
