<svg width="30" height="30" viewBox="0 0 30 30" fill="none" xmlns="http://www.w3.org/2000/svg">
<g clip-path="url(#clip0)">
<path d="M15.5027 11.2323C13.0893 11.2323 11.1427 13.136 11.1427 15.4962C11.1427 17.8563 13.0893 19.7601 15.5027 19.7601C17.9161 19.7601 19.8628 17.8563 19.8628 15.4962C19.8628 13.136 17.9161 11.2323 15.5027 11.2323ZM15.5027 18.2683C13.9431 18.2683 12.6681 17.0251 12.6681 15.4962C12.6681 13.9673 13.9393 12.7241 15.5027 12.7241C17.0661 12.7241 18.3373 13.9673 18.3373 15.4962C18.3373 17.0251 17.0623 18.2683 15.5027 18.2683ZM21.0581 11.0579C21.0581 11.6108 20.6027 12.0524 20.0411 12.0524C19.4757 12.0524 19.0242 11.6071 19.0242 11.0579C19.0242 10.5087 19.4795 10.0634 20.0411 10.0634C20.6027 10.0634 21.0581 10.5087 21.0581 11.0579ZM23.9458 12.0673C23.8813 10.7351 23.5701 9.55498 22.5722 8.58271C21.578 7.61045 20.3713 7.30615 19.009 7.23936C17.605 7.16143 13.3967 7.16143 11.9927 7.23936C10.6342 7.30244 9.42751 7.60674 8.42952 8.579C7.43153 9.55127 7.12416 10.7313 7.05586 12.0636C6.97617 13.4366 6.97617 17.552 7.05586 18.9251C7.12037 20.2573 7.43153 21.4374 8.42952 22.4097C9.42751 23.3819 10.6304 23.6862 11.9927 23.753C13.3967 23.831 17.605 23.831 19.009 23.753C20.3713 23.6899 21.578 23.3856 22.5722 22.4097C23.5664 21.4374 23.8775 20.2573 23.9458 18.9251C24.0255 17.552 24.0255 13.4403 23.9458 12.0673ZM22.132 20.3983C21.836 21.1257 21.263 21.686 20.5155 21.9792C19.396 22.4134 16.7398 22.3132 15.5027 22.3132C14.2657 22.3132 11.6056 22.4097 10.49 21.9792C9.74626 21.6897 9.17327 21.1294 8.87349 20.3983C8.42952 19.3036 8.53198 16.706 8.53198 15.4962C8.53198 14.2864 8.43331 11.6851 8.87349 10.594C9.16948 9.8667 9.74247 9.30635 10.49 9.01318C11.6094 8.579 14.2657 8.6792 15.5027 8.6792C16.7398 8.6792 19.3998 8.58271 20.5155 9.01318C21.2592 9.30264 21.8322 9.86299 22.132 10.594C22.576 11.6888 22.4735 14.2864 22.4735 15.4962C22.4735 16.706 22.576 19.3073 22.132 20.3983Z" fill="white"/>
</g>
<defs>
<clipPath id="clip0">
<rect width="17" height="19" fill="white" transform="translate(7 6)"/>
</clipPath>
</defs>
</svg>
