<svg width="30" height="30" viewBox="0 0 30 30" fill="none" xmlns="http://www.w3.org/2000/svg">
<path d="M8.37318 10.5018C9.54577 10.5018 10.4964 9.54998 10.4964 8.37589C10.4964 7.20179 9.54577 6.25 8.37318 6.25C7.20058 6.25 6.25 7.20179 6.25 8.37589C6.25 9.54998 7.20058 10.5018 8.37318 10.5018Z" fill="white"/>
<path d="M12.4408 12.0729H15.9596V13.6869C15.9596 13.6869 16.9145 11.7747 19.5125 11.7747C21.8301 11.7747 23.75 12.9179 23.75 16.4023V23.75H20.1035V17.2927C20.1035 15.2372 19.0076 15.0111 18.1724 15.0111C16.4392 15.0111 16.1425 16.508 16.1425 17.5608V23.75H12.4408V12.0729Z" fill="white"/>
<path d="M6.52235 12.0728H10.224V23.7499H6.52235V12.0728Z" fill="white"/>
</svg>
