<svg width="30" height="30" viewBox="0 0 30 30" fill="none" xmlns="http://www.w3.org/2000/svg">
<g clip-path="url(#clip0)">
<path d="M22.0797 11.9752C22.09 12.1167 22.09 12.2583 22.09 12.3998C22.09 16.7169 18.739 21.6912 12.6142 21.6912C10.7273 21.6912 8.97447 21.1553 7.5 20.2252C7.76809 20.2555 8.02584 20.2656 8.30425 20.2656C9.86118 20.2656 11.2944 19.75 12.4389 18.8704C10.9748 18.8401 9.74778 17.8998 9.32502 16.6057C9.53126 16.636 9.73746 16.6562 9.95401 16.6562C10.253 16.6562 10.5521 16.6158 10.8304 16.545C9.30442 16.2417 8.15987 14.9274 8.15987 13.3401V13.2996C8.60323 13.5423 9.11882 13.6939 9.66526 13.7141C8.7682 13.1277 8.1805 12.1268 8.1805 10.9945C8.1805 10.3879 8.34545 9.83179 8.63417 9.34649C10.2736 11.3281 12.7379 12.6222 15.5013 12.7638C15.4497 12.5211 15.4188 12.2684 15.4188 12.0156C15.4188 10.216 16.9036 8.75 18.7492 8.75C19.7081 8.75 20.5742 9.1443 21.1826 9.78125C21.9353 9.63971 22.657 9.36672 23.2963 8.99265C23.0488 9.75094 22.523 10.3879 21.8322 10.7923C22.5024 10.7215 23.152 10.5395 23.75 10.2868C23.2964 10.9338 22.7293 11.5101 22.0797 11.9752Z" fill="white"/>
</g>
<defs>
<clipPath id="clip0">
<rect width="16.25" height="13.75" fill="white" transform="translate(7.5 8.75)"/>
</clipPath>
</defs>
</svg>
