<svg width="30" height="30" viewBox="0 0 30 30" fill="none" xmlns="http://www.w3.org/2000/svg">
<g clip-path="url(#clip0)">
<path d="M24.5506 10.9014C24.3213 10.0546 23.6459 9.38762 22.7884 9.16128C21.234 8.75 15.0011 8.75 15.0011 8.75C15.0011 8.75 8.76826 8.75 7.21384 9.16128C6.35629 9.38766 5.68089 10.0546 5.45165 10.9014C5.03516 12.4364 5.03516 15.6389 5.03516 15.6389C5.03516 15.6389 5.03516 18.8414 5.45165 20.3764C5.68089 21.2232 6.35629 21.8624 7.21384 22.0887C8.76826 22.5 15.0011 22.5 15.0011 22.5C15.0011 22.5 21.2339 22.5 22.7884 22.0887C23.6459 21.8624 24.3213 21.2232 24.5506 20.3764C24.9671 18.8414 24.9671 15.6389 24.9671 15.6389C24.9671 15.6389 24.9671 12.4364 24.5506 10.9014ZM12.9626 18.5466V12.7312L18.1721 15.639L12.9626 18.5466Z" fill="white"/>
</g>
<defs>
<clipPath id="clip0">
<rect width="20" height="13.75" fill="white" transform="translate(5 8.75)"/>
</clipPath>
</defs>
</svg>
