<svg width="44" height="42" viewBox="0 0 44 42" fill="none" xmlns="http://www.w3.org/2000/svg">
<rect width="43.9999" height="41.4735" transform="translate(44 41.4736) rotate(-180)" fill="white"/>
<g opacity="0.5">
<path fill-rule="evenodd" clip-rule="evenodd" d="M28.4306 21.5668V19.7542H23.6041V10.0001H34V19.7542H33.9997V21.5668C33.9997 25.2476 32.871 27.9808 30.6448 29.6909C29.1048 30.8739 27.1554 31.4736 24.8507 31.4736V26.2484C26.1018 26.2484 28.4306 26.2484 28.4306 21.5668ZM11.2466 26.2484V31.4736C13.5512 31.4736 15.5006 30.8739 17.0406 29.6909C19.2668 27.9808 20.3957 25.2475 20.3957 21.5668V19.7542V10.0001H10.0001V19.7542H14.8267V21.5668C14.8265 26.2484 12.4978 26.2484 11.2466 26.2484Z" fill="#FFBA0B"/>
</g>
</svg>
