<svg width="40" height="40" viewBox="0 0 40 40" fill="none" xmlns="http://www.w3.org/2000/svg">
<g opacity="0.5">
<rect width="40" height="40" rx="8" fill="white" fill-opacity="0.1"/>
<g clip-path="url(#clip0)">
<path d="M20.0031 15.5078C17.4478 15.5078 15.3866 17.5117 15.3866 19.9961C15.3866 22.4805 17.4478 24.4844 20.0031 24.4844C22.5585 24.4844 24.6196 22.4805 24.6196 19.9961C24.6196 17.5117 22.5585 15.5078 20.0031 15.5078ZM20.0031 22.9141C18.3518 22.9141 17.0018 21.6055 17.0018 19.9961C17.0018 18.3867 18.3478 17.0781 20.0031 17.0781C21.6585 17.0781 23.0045 18.3867 23.0045 19.9961C23.0045 21.6055 21.6545 22.9141 20.0031 22.9141ZM25.8853 15.3242C25.8853 15.9062 25.4031 16.3711 24.8085 16.3711C24.2098 16.3711 23.7317 15.9023 23.7317 15.3242C23.7317 14.7461 24.2138 14.2773 24.8085 14.2773C25.4031 14.2773 25.8853 14.7461 25.8853 15.3242ZM28.9429 16.3867C28.8746 14.9844 28.5451 13.7422 27.4884 12.7187C26.4357 11.6953 25.158 11.375 23.7156 11.3047C22.229 11.2227 17.7732 11.2227 16.2866 11.3047C14.8482 11.3711 13.5705 11.6914 12.5138 12.7148C11.4571 13.7383 11.1317 14.9805 11.0594 16.3828C10.975 17.8281 10.975 22.1602 11.0594 23.6055C11.1277 25.0078 11.4571 26.25 12.5138 27.2734C13.5705 28.2969 14.8442 28.6172 16.2866 28.6875C17.7732 28.7695 22.229 28.7695 23.7156 28.6875C25.158 28.6211 26.4357 28.3008 27.4884 27.2734C28.5411 26.25 28.8705 25.0078 28.9429 23.6055C29.0272 22.1602 29.0272 17.832 28.9429 16.3867ZM27.0223 25.1562C26.7089 25.9219 26.1022 26.5117 25.3107 26.8203C24.1255 27.2773 21.3129 27.1719 20.0031 27.1719C18.6933 27.1719 15.8768 27.2734 14.6955 26.8203C13.908 26.5156 13.3013 25.9258 12.9839 25.1562C12.5138 24.0039 12.6223 21.2695 12.6223 19.9961C12.6223 18.7227 12.5179 15.9844 12.9839 14.8359C13.2973 14.0703 13.904 13.4805 14.6955 13.1719C15.8808 12.7148 18.6933 12.8203 20.0031 12.8203C21.3129 12.8203 24.1295 12.7187 25.3107 13.1719C26.0982 13.4766 26.7049 14.0664 27.0223 14.8359C27.4924 15.9883 27.3839 18.7227 27.3839 19.9961C27.3839 21.2695 27.4924 24.0078 27.0223 25.1562Z" fill="white"/>
</g>
</g>
<defs>
<clipPath id="clip0">
<rect width="18" height="20" fill="white" transform="translate(11 10)"/>
</clipPath>
</defs>
</svg>
