<svg width="157" height="59" viewBox="0 0 157 59" fill="none" xmlns="http://www.w3.org/2000/svg">
<path d="M30.2458 24.462C33.7042 25.614 36.9806 27.0086 40.1356 28.7063C43.776 30.7073 47.2344 33.0113 50.2074 35.9218C50.5108 36.2249 50.7535 36.5888 50.8142 37.0738C50.9962 38.1652 51.3602 39.2566 51.6636 40.3481C51.8456 40.8938 51.6636 41.2576 51.1175 41.4395C49.1153 42.2883 47.0524 42.349 44.9895 42.2883C39.2255 42.1064 33.8256 40.3481 28.3649 38.5897C22.965 36.8313 17.383 35.8005 11.6797 35.6186C9.61677 35.558 7.55386 35.6792 5.55163 36.043C5.12692 36.1037 4.88422 35.9824 4.64153 35.6792C3.36738 34.3453 2.09324 33.0113 0.819094 31.6774C-0.273031 30.5254 -0.273031 29.3127 0.819094 28.1606C2.03257 26.948 3.18536 25.6746 4.39884 24.462C4.9449 23.9163 5.12692 23.2493 4.88423 22.5217C4.45951 20.8846 4.03479 19.2475 3.61008 17.671C3.18536 15.9126 3.73143 14.9424 5.49096 14.4574C6.52242 14.1542 7.55386 13.9117 8.58531 13.6085C9.0707 13.4266 9.49542 13.6085 9.85946 13.851C10.1022 13.9723 10.1628 14.2755 10.1022 14.4574C10.0415 14.7605 9.79879 14.4574 9.61677 14.518C9.5561 14.518 9.49542 14.518 9.43475 14.518C8.22128 14.8212 8.09993 15.9126 7.73589 16.8221C7.49319 17.4891 7.61454 18.156 8.34262 18.5805C8.88869 18.9443 9.49542 19.1868 10.1022 19.4294C10.5875 19.6113 10.7696 19.8538 10.8302 20.3995C11.0729 23.2493 11.255 26.1597 11.5583 29.0095C11.6797 30.1616 12.2864 30.9498 13.1965 31.5561C14.4707 32.405 15.4414 31.9199 15.5628 30.4041C15.6841 28.5851 15.8055 26.7054 15.9268 24.8864C16.0482 22.643 16.2302 20.4601 17.1403 18.3986C17.383 17.7922 17.6257 17.6103 18.2324 17.8529C20.538 18.7624 22.8436 19.6113 25.1492 20.4601C25.6346 20.642 25.8166 20.9452 25.8166 21.3696C25.8773 22.0972 25.938 22.8249 25.9987 23.4918C26.12 24.7045 26.7874 25.5534 27.8189 26.1597C29.093 26.948 30.0031 26.4629 30.1851 25.0077C30.1851 24.8864 30.2458 24.7045 30.2458 24.462Z" fill="#FFBA0B"/>
<path d="M55.2903 31.2673C49.4049 24.4157 41.8207 20.232 33.3264 17.3215C33.5691 17.0184 33.7511 16.7152 33.9331 16.4727C34.4185 15.6844 34.2365 14.9568 33.4477 14.5324C32.2949 13.926 31.1421 13.8654 29.9893 14.593C29.2613 15.0175 28.5939 15.6238 27.9264 16.1695C27.6231 16.412 27.3804 16.4727 27.0163 16.2908C24.7714 15.0781 22.4658 13.8654 20.2209 12.7134C19.7355 12.4708 19.7962 12.2283 19.9175 11.8039C20.8276 9.43914 22.5872 7.62012 24.2254 5.8011C25.4388 4.52779 26.5916 3.19384 27.7444 1.8599C28.0478 1.49609 28.2905 1.55673 28.6545 1.678C29.3219 1.98116 29.686 2.5875 30.1714 3.07258C31.1422 4.04272 32.0523 5.01286 33.023 6.04364C33.5691 6.64998 34.2365 6.77124 35.0253 6.52871C36.6028 6.10427 38.1803 5.67983 39.7578 5.19476C41.396 4.77032 42.4274 5.31603 42.8522 6.95315C43.2769 8.59026 43.7016 10.2274 44.1263 11.9251C44.3083 12.7134 44.7937 13.1984 45.6432 13.441C47.2207 13.8654 48.8589 14.2898 50.4364 14.7143C51.8925 15.1387 52.56 16.1695 52.1959 17.6247C51.8319 19.2012 51.4072 20.7777 50.9824 22.3542C50.6791 23.4456 50.8611 24.2944 51.7105 25.0827C52.924 26.1741 54.0161 27.3868 55.1082 28.5995C55.897 29.3877 55.9577 30.2972 55.2903 31.2673Z" fill="#FFBA0B"/>
<path d="M14.274 8.77207C14.0313 8.6508 13.9707 8.59017 13.8493 8.52953C12.4538 7.86256 12.3325 6.77115 13.3639 5.67974C13.6673 5.37657 13.9706 5.4372 14.274 5.55847C14.8808 5.86164 15.5482 6.10418 16.1549 6.46798C16.5796 6.71052 16.883 6.64988 17.247 6.34671C19.4313 4.58833 21.5548 2.89058 23.7391 1.1322C24.5278 0.465223 25.3773 -0.0198485 26.5301 0.343955C27.4402 0.647124 27.5615 0.950294 26.9548 1.6779C25.0132 3.86072 23.0717 5.92227 21.1908 8.1051C20.1594 9.25714 19.6133 10.773 19.0066 12.1676C18.8852 12.4707 18.9459 12.7133 19.2492 12.8952C21.8582 14.411 24.5885 15.745 27.2582 17.1395C27.6222 17.3214 27.8649 17.2002 28.1076 16.9576C28.775 16.4119 29.4424 15.8662 30.1705 15.3205C30.9593 14.7142 31.8694 14.6536 32.8401 15.0174C33.5682 15.3205 33.6896 15.6237 33.2042 16.23C32.5368 17.0789 31.8087 17.9278 31.1413 18.7767C30.7772 19.1405 30.7772 19.4436 31.2626 19.7468C31.566 19.9287 31.8694 20.1712 32.112 20.4744C32.3547 20.7169 32.7795 20.8989 32.5974 21.3233C32.4154 21.8084 31.93 21.5658 31.566 21.5658C31.1413 21.5658 30.7772 21.5052 30.3525 21.3839C29.9278 21.2627 29.8671 21.4446 29.8064 21.8084C29.6851 22.9604 29.5031 24.1124 29.3817 25.2039C29.2604 25.9921 28.957 26.174 28.2289 25.7496C27.1975 25.2039 26.7121 24.2943 26.5908 23.1423C26.5301 22.4147 26.4694 21.6265 26.4087 20.8988C26.4087 20.4744 26.2267 20.2319 25.802 20.05C23.0717 18.9586 20.3414 17.9278 17.5504 16.9576C17.065 16.7757 16.9437 16.9576 16.701 17.3214C15.3055 19.9893 15.1234 22.9604 15.0021 25.8708C14.9414 27.3867 14.8201 28.9632 14.6987 30.479C14.6381 31.2066 14.3347 31.3885 13.6673 31.0247C12.9392 30.6003 12.3325 29.9939 12.2111 29.0238C11.8471 26.2346 11.665 23.4455 11.483 20.6563C11.4224 19.6255 11.301 18.8373 10.0875 18.6554C9.90551 18.6554 9.7235 18.5341 9.60215 18.4129C8.14599 17.7459 8.08531 17.564 8.75272 16.1694C9.23811 15.2599 9.29878 15.1993 10.2696 15.6237C10.4516 15.6843 10.6943 15.9875 10.937 15.745C11.119 15.5631 10.9976 15.2599 10.937 15.078C10.8763 13.8653 10.2696 13.0771 8.99542 12.7133C7.53925 12.2888 6.20443 11.5612 4.80893 10.9549C3.59546 10.4092 2.74603 9.49967 2.19997 8.34763C1.83593 7.62002 1.95728 7.37749 2.74604 7.13495C4.02018 6.83178 5.23365 6.89242 6.44712 7.43812C8.02463 8.16573 9.54148 8.8327 11.0583 9.62094C11.7257 9.98475 12.2111 9.98475 12.8178 9.56031C13.3032 9.31777 13.728 9.07524 14.274 8.77207Z" fill="#288DEA"/>
<path d="M10.0886 44.3036C15.9739 44.3036 21.5559 45.6982 27.1379 47.4566C30.9603 48.6692 34.7827 49.7606 38.7265 50.1244C40.0614 50.2457 41.3962 50.4276 42.731 50.367C43.3984 50.367 43.6411 50.5489 43.3984 51.2159C43.1557 51.9435 43.0344 52.6711 42.8523 53.3987C42.4883 54.8539 41.3962 55.4602 39.94 55.0964C38.3625 54.672 36.7243 54.2476 35.1468 53.7625C34.2973 53.5199 33.6299 53.7018 33.0839 54.3082C31.9311 55.5209 30.7783 56.6729 29.6255 57.8856C28.4727 59.0376 27.2592 59.0983 26.1671 57.9462C24.9536 56.7335 23.8008 55.5209 22.5873 54.2476C22.0413 53.7018 21.4345 53.5199 20.7064 53.7625C19.0683 54.2476 17.4907 54.672 15.8526 55.0964C14.3357 55.5209 13.3043 54.9145 12.8796 53.3987C12.4548 51.7009 11.9694 50.0638 11.6054 48.3661C11.4234 47.5778 10.938 47.0928 10.0886 46.9108C8.51104 46.4864 6.99421 46.062 5.47737 45.6375C5.35602 45.5769 5.23467 45.5769 5.11332 45.5163C4.87063 45.4556 4.50659 45.395 4.56726 45.0312C4.56726 44.6674 4.9313 44.6674 5.174 44.6674C6.38747 44.5461 7.60094 44.4249 8.87509 44.3642C9.17845 44.3036 9.66384 44.3036 10.0886 44.3036Z" fill="#FFBA0B"/>
<path d="M44.0037 47.6991C38.7858 47.6991 33.7499 46.6077 28.8353 45.0312C24.2241 43.576 19.6129 42.3633 14.8197 41.8782C10.8152 41.4538 6.87143 41.6357 2.92764 42.3633C2.32091 42.4846 1.71417 42.4846 1.10743 42.6665C0.440022 42.7877 0.379345 42.5452 0.440018 41.9995C0.561366 41.0293 1.1681 40.423 2.07821 40.1198C3.59505 39.6348 5.11189 39.3316 6.68941 39.1497C14.1523 38.1795 21.3724 39.5135 28.4712 41.8176C32.415 43.0909 36.4195 44.4248 40.5453 45.0312C44.1857 45.5162 47.8868 46.062 51.5272 45.1524C52.9227 44.7886 54.1362 44.2429 55.1677 43.2728C56.5025 42.0601 56.7452 40.5443 56.2598 38.9071C55.5924 36.5424 54.1362 34.6628 52.4373 32.965C48.4935 28.9632 43.8217 26.1134 38.7858 23.688C37.2083 22.9604 35.6307 22.2935 33.9925 21.6871C33.6285 21.5659 33.3858 21.4446 33.3251 21.0201C33.2645 20.5957 32.8397 20.3532 32.5364 20.05C32.3544 19.8075 31.7476 19.7468 32.1723 19.2618C32.5364 18.8373 32.6577 18.1097 33.5072 18.4735C34.9027 19.0192 36.2981 19.4437 37.633 20.05C43.3363 22.4754 48.5542 25.5677 52.9227 30.0546C55.1677 32.2981 57.1092 34.784 57.898 37.937C58.7474 41.0293 57.7766 43.4547 55.0463 45.2737C51.8913 47.3353 48.4329 48.0022 44.7318 48.0022C44.4891 47.6991 44.2464 47.6991 44.0037 47.6991Z" fill="#288DEA"/>
<path d="M55.7144 40.1805C55.7144 40.2411 55.7144 40.3624 55.7144 40.4836C55.5931 40.9687 55.6537 41.6963 55.1077 41.7569C54.5616 41.8782 54.6223 41.09 54.5009 40.7262C53.3481 38.1795 51.5279 36.1786 49.465 34.3596C44.1864 29.7514 38.0584 26.5378 31.5056 24.2337C30.5349 23.8699 30.3528 23.5061 30.7169 22.4753C30.7775 22.2328 30.8989 22.1115 31.2023 22.1722C31.809 22.2934 32.4764 22.3541 33.0831 21.9903C33.2652 21.869 33.4472 21.9903 33.6292 22.0509C40.4247 24.6582 46.7954 27.993 51.9526 33.2076C53.5908 34.8447 55.047 36.6637 55.6537 39.0284C55.7144 39.4528 55.7144 39.756 55.7144 40.1805Z" fill="#288DEA"/>
<path d="M114.686 12.973C114.868 12.8518 114.989 12.7911 115.05 12.6699C115.414 12.1848 115.353 11.5785 115.05 11.0934C114.868 10.7296 114.504 10.669 114.14 10.8509C113.351 11.3359 112.562 11.8816 111.774 12.3667C112.623 12.3667 112.623 12.973 112.623 13.4581V21.4012C112.623 22.917 112.623 22.917 111.106 22.917C110.621 22.917 110.135 22.917 109.65 22.8564C109.711 22.3713 109.771 21.9469 109.771 21.4618C110.135 18.1876 107.587 16.0654 104.432 16.9142C103.583 17.1568 102.794 17.5206 102.066 18.0057C101.398 18.4301 100.852 18.9758 100.185 19.5821C100.185 19.1577 100.185 18.7939 100.124 18.4907C100.003 17.8844 99.5175 17.5812 98.9715 17.8844C98.1827 18.3695 97.4546 18.9152 96.6659 19.4002C97.4546 19.4002 97.4546 19.8853 97.4546 20.431C97.4546 20.7342 97.4546 21.098 97.4546 21.4012C97.4546 22.8564 97.4546 22.8564 95.9378 22.8564C95.331 22.8564 95.2097 22.6745 95.2704 22.1288C95.331 21.0374 95.331 19.9459 95.2704 18.8545C95.2704 18.0057 94.7243 17.7025 93.9962 18.1269C93.2681 18.5514 92.54 19.0364 91.8726 19.5215C92.4794 19.6428 92.6614 19.9459 92.6614 20.4917C92.6614 21.098 92.6007 21.7043 92.6614 22.3107C92.6614 22.7351 92.4794 22.8564 92.1153 22.8564C91.1445 22.8564 90.1131 22.7957 89.1423 22.8564C88.5356 22.917 88.3536 22.7351 88.3536 22.1288C88.4142 18.7939 88.3536 15.5197 88.3536 12.1848C88.3536 11.9423 88.3536 11.6997 88.3536 11.4572C88.2322 10.7296 87.7468 10.4871 87.1401 10.8509C86.3513 11.3359 85.6232 11.821 84.5918 12.488C85.7446 12.3061 85.6839 12.8518 85.6839 13.3975C85.6839 17.2174 85.6839 21.0374 85.6839 24.8573C85.6839 25.403 85.8053 25.5849 86.3513 25.5849C88.1109 25.5243 89.8097 25.5243 91.5693 25.5849C92.358 25.5849 93.0861 25.5243 93.5715 24.7967C93.7535 24.5541 93.9355 24.4329 94.1176 24.8573C94.4209 25.4636 94.967 25.6455 95.5737 25.5849C96.1805 25.5243 96.8479 25.4636 97.3939 25.5849C98.0007 25.7062 98.0613 24.7967 98.6074 25.1605C99.0321 25.403 99.4568 25.5849 100.003 25.5849C104.007 25.5849 107.951 25.5849 111.956 25.5849C112.744 25.5849 114.989 23.584 115.111 22.8564C115.111 22.7957 115.111 22.6745 115.111 22.6138C115.111 19.5821 115.111 16.5504 115.111 13.4581C115.232 13.2156 115.171 12.973 114.686 12.973ZM106.07 22.917H103.583C102.673 22.917 101.823 22.917 100.913 22.917C100.67 22.917 100.306 23.0989 100.246 22.7351C100.185 22.4319 100.064 22.0075 100.367 21.765C101.58 20.6736 102.855 19.6428 104.493 19.279C106.01 18.9152 106.98 19.6428 107.102 21.2193C107.102 21.4618 107.102 21.6437 107.102 21.8862C107.102 22.917 107.102 22.917 106.07 22.917Z" fill="white"/>
<path d="M150.059 18.7939C150.059 18.0663 149.452 17.7632 148.845 18.1876C148.117 18.612 147.389 19.1577 146.601 19.6428C146.843 19.8854 147.329 19.7035 147.389 20.1279C147.511 21.0374 147.693 22.0075 147.329 22.7958C147.086 23.2202 146.115 22.917 145.448 22.917C145.326 22.917 145.205 22.917 145.023 22.917C144.356 22.8564 143.506 23.2202 143.142 22.7958C142.839 22.432 143.021 21.5831 143.021 20.9161C142.96 17.7025 143.385 18.6727 141.019 16.2473C140.654 15.8835 140.351 15.8229 139.866 15.9441C137.621 16.4899 136.104 18.1876 135.74 20.4917C135.497 22.0075 135.679 23.5234 135.619 25.0392C135.558 25.5849 135.801 25.7062 136.286 25.7062C137.439 25.6456 138.531 25.7062 139.684 25.7062C140.169 25.7062 140.351 25.8275 140.29 26.3125C140.048 28.0103 139.441 29.4049 137.864 30.3144C137.864 30.6176 138.046 30.4963 138.167 30.4963C140.776 30.0719 142.353 28.6166 142.899 26.1306C143.021 25.7062 143.203 25.7062 143.506 25.7062C144.598 25.7062 145.751 25.7062 146.904 25.7062C147.632 25.7062 149.998 23.6447 150.059 22.917C150.059 21.5225 150.059 20.1279 150.059 18.7939ZM139.926 22.917C138.41 23.099 138.349 23.0383 138.349 21.5225C138.349 19.8854 139.016 18.7939 140.29 18.3089C140.29 19.7035 140.29 21.1587 140.29 22.5532C140.29 22.8564 140.169 22.8564 139.926 22.917Z" fill="white"/>
<path d="M152.728 41.2285C151.939 41.8955 149.937 42.0167 149.209 41.3498C148.966 41.1679 148.845 41.2891 148.724 41.4104C148.056 41.7742 147.449 42.138 146.843 41.3498C146.721 41.1679 146.539 41.3498 146.418 41.4104C145.265 41.9561 144.173 41.9561 143.02 41.471C142.899 41.4104 142.838 41.3498 142.778 41.471C142.353 41.9561 141.746 41.7742 141.2 41.7742C138.712 41.7742 136.286 41.7742 133.798 41.7742C133.191 41.7742 132.948 41.6529 133.009 40.9859C133.07 39.4095 133.07 37.833 133.009 36.2565C133.009 35.8927 133.191 35.4683 132.766 35.1651C132.584 35.0438 132.766 34.9226 132.888 34.8619C133.07 34.7407 133.252 34.6194 133.434 34.4981C134.162 34.0737 134.405 34.1343 134.405 34.9832C134.405 36.5597 134.405 38.0755 134.405 39.652C134.405 40.1977 134.587 40.3796 135.133 40.3796C137.256 40.319 139.38 40.3796 141.503 40.3796C141.807 40.3796 142.232 40.5615 142.353 40.1977C142.474 39.7733 142.535 39.2882 142.232 38.9244C142.11 38.7425 141.989 38.7425 142.232 38.6212L142.292 38.5606C142.717 38.3787 143.02 37.833 143.445 38.0149C143.93 38.2574 143.627 38.8031 143.688 39.2276C143.748 39.4095 143.688 39.652 143.688 39.8945C143.688 40.0764 143.566 40.3796 143.87 40.4402C144.112 40.5009 144.416 40.5615 144.537 40.3796C144.658 40.1977 144.658 39.8945 144.537 39.7126C144.416 39.5914 144.173 39.4701 144.476 39.3488C144.901 39.1669 145.144 38.6819 145.69 38.7425C145.993 38.8031 145.993 39.0457 145.993 39.2882C145.993 39.5307 145.993 39.8339 145.993 40.0764C145.993 40.4402 146.175 40.4402 146.479 40.4402C146.721 40.4402 146.903 40.319 146.843 40.0764C146.843 39.7733 146.964 39.2882 146.782 39.1669C146.479 38.9244 146.6 38.8031 146.843 38.6819C147.267 38.5 147.51 37.9543 147.996 38.1968C148.481 38.4393 148.178 39.0457 148.238 39.4701C148.36 39.8339 147.814 40.5009 148.784 40.5009C149.027 40.5009 149.148 40.3796 149.148 40.1977C149.088 39.652 149.33 39.0457 149.027 38.5606C148.906 38.3181 149.027 38.2574 149.148 38.1968C149.512 38.0149 149.816 37.5904 150.24 37.6511C150.483 37.6511 150.544 37.8936 150.544 38.1362C150.544 38.7425 150.605 39.3488 150.544 39.9552C150.483 40.5615 150.908 40.5009 151.272 40.5009C151.636 40.5009 152 40.6221 152 39.9552C151.939 38.5606 152.121 37.166 151.939 35.7714C151.818 34.9832 152.061 34.8013 152.546 34.4981C153.092 34.1343 153.335 34.3768 153.335 34.9832C153.335 36.5597 153.396 38.1968 153.335 39.7733C153.335 40.5009 153.699 40.4402 154.184 40.4402C154.67 40.4402 154.973 40.3796 154.912 39.7733C154.852 38.4393 155.094 37.0447 154.852 35.7108C154.67 34.8619 155.155 34.7407 155.58 34.4981C156.004 34.1949 156.308 34.3768 156.369 34.8619C156.369 36.6809 156.429 38.5606 156.369 40.3796C156.369 40.9859 155.701 41.2891 155.276 41.6529C154.609 42.0167 153.153 41.7136 152.728 41.2285Z" fill="white"/>
<path d="M72.8816 18.3088C74.0344 17.5812 75.2479 16.8536 76.4007 16.1867C77.0681 15.8229 77.4928 16.2473 77.7962 16.793C78.7063 18.4301 79.6771 19.946 80.9512 21.2799C81.74 22.1288 82.5894 22.917 83.9849 22.917C83.6209 23.6446 83.3175 24.3116 82.9535 24.9786C82.6501 25.5243 82.104 25.6456 81.4973 25.6456C79.7984 25.6456 78.0996 25.5243 76.4614 25.7668C76.0973 25.8275 75.794 25.8881 75.4299 26.0094C73.9738 26.4944 73.4277 27.6465 73.9738 29.1017C74.2771 29.8899 74.8839 30.5569 75.4906 31.4058C74.0951 30.7994 73.003 30.1931 72.2142 29.1017C71.0614 27.4646 71.3041 25.5849 72.9423 24.3116C74.2771 23.2808 75.794 22.9777 77.4322 22.917C77.9782 22.917 78.4636 22.917 79.131 22.917C77.8569 21.6437 76.8254 20.3704 76.0367 18.9152C75.8547 18.612 75.612 18.4907 75.2479 18.4907C74.4592 18.4907 73.6704 18.4907 72.821 18.4907C72.8816 18.3695 72.8816 18.3695 72.8816 18.3088Z" fill="white"/>
<path d="M96.909 38.6819C96.8484 38.2574 97.1517 37.6511 96.6664 37.4692C96.1203 37.2873 95.8169 37.8936 95.3315 38.0755C95.2709 38.1362 95.0888 38.1362 95.2102 38.2574C95.8169 38.7425 95.3315 39.3488 95.5136 39.9552C95.5742 40.2583 95.3922 40.3796 95.0888 40.3796C94.7855 40.3796 94.6035 40.319 94.6035 39.9552C94.6035 39.7126 94.6035 39.4095 94.6035 39.1669C94.5428 38.8031 94.7855 38.2574 94.3608 38.0755C93.936 37.833 93.6327 38.3181 93.3293 38.5C93.0866 38.6212 92.9046 38.6819 93.1473 39.0457C93.3293 39.2882 93.208 39.7733 93.208 40.1371C93.208 40.4402 92.9046 40.3796 92.7226 40.3796C92.5405 40.3796 92.3585 40.3796 92.3585 40.0764C92.3585 39.8339 92.3585 39.652 92.3585 39.4095C92.3585 39.1063 92.4192 38.7425 91.9945 38.6212C91.8731 38.6212 90.6597 39.3488 90.6597 39.4701C90.6597 39.5307 90.781 39.5307 90.8417 39.5914C91.0844 39.7733 91.0844 40.0158 90.963 40.2583C90.781 40.5009 90.4776 40.3796 90.2349 40.3796C89.8709 40.3796 89.9923 40.0764 89.9923 39.8945C89.9923 39.4095 89.9923 38.8638 89.9923 38.3787C89.9923 37.833 89.0215 36.7416 88.5361 36.8022C87.626 36.8628 86.8979 37.4086 86.4732 38.1968C86.1091 38.8638 85.8058 39.652 86.7159 40.4402C83.3788 40.4402 80.2238 40.4402 77.0688 40.4402C76.4014 40.4402 76.2193 40.2583 76.2193 39.5914C76.28 38.0755 76.28 36.5597 76.2193 35.0438C76.2193 34.3162 75.9766 34.195 75.3699 34.5588C75.0059 34.8013 74.3385 34.9226 74.8845 35.6502C74.9452 35.7714 74.8845 35.9533 74.8845 36.1352C74.8845 37.7724 74.9452 39.4701 74.8845 41.1072C74.8845 41.7742 75.0665 41.8955 75.6733 41.8955C80.1024 41.8955 84.5923 41.8955 89.0215 41.8955C89.6282 41.8955 90.2349 42.0774 90.781 41.5317C90.9024 41.4104 91.0237 41.4104 91.1451 41.5923C91.6911 42.138 92.2372 41.9561 92.7832 41.6529C92.9653 41.5317 93.0866 41.2891 93.39 41.5317C93.936 42.0167 95.0888 42.0167 95.6956 41.5923C96.6057 40.7434 97.1517 39.9552 96.909 38.6819ZM88.5361 39.1669C88.5361 39.4095 88.5361 39.7126 88.5361 39.9552C88.5361 40.1977 88.4147 40.3796 88.172 40.319C87.8687 40.319 87.5046 40.4402 87.444 40.0158C87.3226 39.3488 87.444 38.6819 87.9293 38.1968C88.0507 38.0755 88.2327 37.8936 88.4147 37.9543C88.6574 38.0149 88.5361 38.2574 88.5361 38.4393C88.5361 38.6819 88.5361 38.9244 88.5361 39.1669Z" fill="white"/>
<path d="M155.398 27.1008C153.092 27.404 152 26.4339 152 24.1298C152 20.5524 152 16.975 152 13.3976C152 12.8519 151.94 12.3668 150.969 12.4881C151.94 11.8211 152.668 11.336 153.456 10.8509C154.002 10.5478 154.548 10.7903 154.67 11.3967C154.731 11.5786 154.67 11.6998 154.67 11.8817C154.67 15.8836 154.67 19.8248 154.67 23.8266C154.67 24.9786 154.67 26.0701 155.398 27.1008Z" fill="white"/>
<path d="M130.037 12.3667C130.705 11.9422 131.372 11.5178 132.039 11.0934C132.343 10.9115 132.646 10.6083 133.071 10.8508C133.496 11.0934 133.496 11.4572 133.496 11.8816C133.496 15.9441 133.496 20.0065 133.496 24.069C133.496 25.0998 133.556 26.1306 134.163 27.0401C132.161 27.5251 130.826 26.4944 130.826 24.4328C130.826 20.7948 130.826 17.1567 130.826 13.5793C130.826 12.973 130.887 12.4273 130.037 12.3667Z" fill="white"/>
<path d="M120.632 27.1009C118.266 27.3434 117.234 26.4945 117.234 24.2511C117.234 20.6737 117.234 17.0963 117.234 13.5189C117.234 12.9732 117.295 12.3668 116.385 12.4275C117.113 11.9424 117.841 11.4573 118.569 10.9723C119.236 10.5478 119.722 10.7904 119.843 11.5786C119.904 11.7605 119.843 12.003 119.843 12.2456C119.843 16.2474 119.782 20.1886 119.782 24.1904C119.843 25.1606 119.965 26.1307 120.632 27.1009Z" fill="white"/>
<path d="M131.371 40.137C130.886 39.7732 130.521 39.4094 130.157 38.985C129.793 38.4393 129.429 37.8936 129.065 37.2873C128.883 36.9841 128.701 36.6809 128.337 36.9234C127.73 37.2873 127.184 37.6511 126.517 38.0149C127.124 38.2574 127.791 37.833 128.155 38.318C128.58 38.985 129.065 39.5913 129.672 40.3189H118.144C117.901 40.3189 117.719 40.2583 117.719 39.9551C117.78 38.8031 117.416 37.5298 118.447 36.499C117.537 36.3777 116.991 36.8022 116.627 37.4085C116.263 38.0149 115.778 38.1968 115.171 38.1968C114.868 38.1968 114.564 38.1968 114.261 38.1968C113.654 38.2574 113.29 38.5606 113.108 39.1063C112.865 39.652 113.108 40.0158 113.533 40.3189C113.715 40.5008 113.897 40.6827 114.079 40.8647C115.353 42.138 115.474 42.138 116.445 40.5615V40.5008C117.113 41.4104 117.962 41.5923 119.054 41.5923C122.816 41.5316 126.517 41.5923 130.279 41.5923H130.825C131.553 41.5923 131.735 40.9859 131.917 40.5008C132.16 40.137 131.553 40.3189 131.371 40.137ZM116.445 40.6827C115.535 40.9253 115.232 40.0158 114.564 39.5913C115.232 39.4094 115.778 39.3488 116.202 38.985C116.445 39.5307 116.081 40.137 116.445 40.6827C116.445 40.6221 116.506 40.6221 116.445 40.6827Z" fill="white"/>
<path d="M123.727 30.3143C125.486 29.2835 126.154 27.5858 126.214 25.7061C126.275 24.0084 126.214 22.3713 126.214 20.6735C126.214 20.1278 126.154 19.7034 125.425 19.6427C126.214 19.1577 127.003 18.612 127.792 18.1269C128.277 17.8237 128.884 18.1875 128.884 18.7939C128.884 21.2798 129.005 23.8265 128.823 26.3125C128.702 28.4346 126.639 30.0718 124.091 30.4962C123.909 30.4962 123.727 30.6175 123.727 30.3143Z" fill="white"/>
<path d="M98.0013 42.5017C97.4552 40.9252 97.8799 39.47 99.2147 38.2573C98.4867 37.8935 98.6687 37.2266 98.608 36.6202C98.608 36.2564 98.8507 35.832 98.3653 35.5894C98.244 35.5288 98.3046 35.4682 98.3046 35.4075C98.3653 35.3469 98.3653 35.3469 98.426 35.2863C98.8507 35.1044 99.2147 34.498 99.6395 34.6799C100.186 34.8618 99.8821 35.5288 99.9428 35.9532C100.003 36.4383 99.9428 36.9234 99.9428 37.4085C99.9428 37.651 99.8821 37.9542 100.307 37.9542C100.671 37.9542 100.914 37.8329 100.792 37.4691C100.671 36.6809 100.974 35.8926 100.61 35.1044C100.489 34.8012 101.217 34.6193 101.52 34.3768C101.702 34.2555 101.945 34.1949 102.066 34.3768C102.248 34.6799 102.309 34.9831 102.006 35.2256C101.824 35.4075 101.46 35.5288 102.066 35.6501C102.127 35.6501 102.188 35.7713 102.188 35.832C102.188 36.9234 102.188 37.9542 102.188 39.0456C102.188 39.3487 101.884 39.2881 101.702 39.2881C101.217 39.3487 100.671 39.3487 100.186 39.3487C99.8215 39.4094 99.5181 39.5913 99.3361 39.8945C99.2147 40.137 99.1541 40.3795 99.5788 40.3189C100.368 40.137 101.278 40.6827 102.006 40.0157C102.127 39.8945 102.188 40.0764 102.188 40.137C102.309 40.3795 102.491 40.5614 102.612 40.804C102.977 41.4709 102.855 41.6528 102.127 41.6528C101.46 41.6528 100.792 41.6528 100.125 41.6528C99.3361 41.7135 98.608 41.8347 98.0013 42.5017Z" fill="white"/>
<path d="M109.893 38.6212C109.953 37.7117 109.286 37.2267 108.679 36.8629C108.194 36.5597 107.648 37.0448 107.162 37.3479C106.677 37.7117 106.434 38.1968 106.252 38.7425C106.01 39.5914 106.131 40.5009 106.07 41.3498C106.07 41.5317 106.131 41.7136 106.374 41.7136C107.041 41.6529 107.769 41.8955 108.437 41.4104C108.497 42.5018 108.133 43.4113 107.284 44.1389C108.983 43.8964 109.832 42.9869 109.832 41.471C109.893 40.5009 109.832 39.5308 109.893 38.6212ZM108.558 39.2882C108.376 39.652 108.983 40.4403 107.891 40.319C107.708 40.319 107.587 40.2584 107.587 40.0158C107.587 39.4095 107.526 38.8638 107.951 38.3787C108.073 38.2574 108.194 38.0755 108.376 38.0755C108.619 38.1362 108.497 38.3787 108.558 38.5606C108.558 38.8031 108.558 39.0457 108.558 39.2882Z" fill="white"/>
<path d="M105.523 42.4412C104.249 42.5019 103.825 42.1381 103.764 41.0467C103.764 39.3489 103.764 37.7118 103.764 36.014C103.764 35.7715 104.007 35.3471 103.521 35.2258C103.4 35.1652 103.461 35.0439 103.521 34.9833C103.582 34.9833 103.582 34.9226 103.643 34.9226C104.067 34.7407 104.371 34.1344 104.917 34.3769C105.402 34.6195 105.159 35.2258 105.159 35.6502C105.159 37.4086 105.099 39.2276 105.099 40.986C105.159 41.4105 105.159 41.9562 105.523 42.4412Z" fill="white"/>
<path d="M151.393 10.3659C151.393 10.3052 151.393 10.2446 151.393 10.2446C151.635 9.33507 152.424 8.6681 152.121 7.45542C151.878 6.48528 153.759 5.69704 154.73 6.30338C155.276 6.66718 155.397 7.21289 155.154 7.75859C155.033 8.06176 154.912 8.36493 154.548 7.87986C154.366 7.63732 154.123 7.63733 153.82 7.63733C153.455 7.63733 153.213 7.81923 153.213 8.1224C153.213 8.42557 153.455 8.60747 153.759 8.60747C154.184 8.60747 154.548 8.60747 154.972 8.60747C155.579 8.6681 155.761 8.91064 155.458 9.51698C155.336 9.75951 155.215 10.002 155.033 10.1839C154.972 10.3052 154.912 10.4871 154.73 10.4265C153.638 9.94141 152.485 10.3052 151.393 10.3659Z" fill="white"/>
<path d="M75.3086 52.2639C74.8232 52.2032 74.7625 51.8394 74.6412 51.4756C74.1558 50.2023 73.7311 48.8684 73.2457 47.5951C73.0636 47.11 72.7603 46.7462 72.2142 46.8068C72.0322 46.8674 71.7288 46.9887 71.9108 47.2313C72.2749 47.5951 72.0322 47.9589 71.9108 48.262C71.4255 49.3534 70.9401 50.3842 70.4547 51.4756C70.2727 51.8394 70.0906 52.1426 70.2727 52.567C70.394 52.8096 70.6367 52.9308 71.0007 52.8096C71.3041 52.6883 71.2434 52.567 71.1828 52.2639C71.0007 51.2937 71.4861 50.8087 72.5176 50.8087C72.5783 50.8087 72.6996 50.8087 72.7603 50.8087C73.0636 50.8693 73.549 50.6268 73.6097 51.1118C73.6704 51.4756 74.3985 51.9607 73.549 52.3245C73.367 52.3851 73.4277 52.7489 73.7917 52.7489C74.2771 52.7489 74.7018 52.7489 75.1872 52.7489C75.3086 52.7489 75.4299 52.7489 75.4906 52.567C75.4906 52.3851 75.4906 52.2639 75.3086 52.2639ZM71.8502 50.081C72.0929 49.4747 72.3356 48.929 72.6389 48.2014C72.8816 48.8684 73.0636 49.4141 73.3063 50.081H71.8502Z" fill="white"/>
<path d="M139.076 48.8684C140.411 48.3227 141.2 48.444 141.807 49.2323C142.413 50.0205 142.353 51.3544 141.685 52.1427C141.2 52.749 140.35 52.9916 139.744 52.749C139.501 52.6278 139.198 52.5065 139.38 52.1427C139.562 51.7789 139.744 52.0214 139.926 52.1427C139.986 52.2033 140.108 52.2639 140.229 52.2639C140.897 52.2639 141.2 51.8395 141.382 51.2332C141.625 50.263 141.321 49.4142 140.654 49.1716C140.108 48.9897 139.562 49.2323 139.258 49.8992C138.955 50.5662 139.137 51.2332 139.076 51.9001C139.016 52.5671 138.591 52.9309 137.984 52.749C137.863 52.749 137.742 52.6884 137.742 52.6277C137.681 52.5065 137.742 52.3246 137.924 52.3246C138.47 52.3246 138.348 51.9001 138.348 51.597C138.348 50.4449 138.348 49.2929 138.348 48.1408C138.348 47.7164 138.591 47.1707 137.863 47.1101C137.681 47.1101 137.681 46.8675 137.863 46.7463C138.409 46.4431 139.076 46.8069 139.076 47.4739C139.076 47.7164 139.076 47.9589 139.076 48.2015C139.076 48.3834 139.076 48.6259 139.076 48.8684Z" fill="white"/>
<path d="M153.518 48.8078C153.882 48.6865 154.124 48.5652 154.367 48.5046C155.399 48.262 156.187 48.7471 156.309 49.8385C156.369 50.3842 156.309 50.9299 156.309 51.415C156.309 51.7182 156.127 52.2033 156.733 52.2639C156.855 52.2639 156.855 52.4458 156.855 52.5064C156.855 52.6277 156.733 52.6277 156.612 52.6277C156.005 52.749 155.581 52.4458 155.581 51.8394C155.581 51.2331 155.581 50.6268 155.581 50.0204C155.581 49.5354 155.459 49.1109 154.913 48.9897C154.428 48.929 153.942 49.1716 153.821 49.596C153.578 50.4449 153.214 51.415 154.003 52.2639C154.185 52.4458 154.124 52.6277 153.882 52.6277C153.578 52.6277 153.275 52.6277 152.972 52.6277C152.729 52.6277 152.426 52.749 152.304 52.5064C152.122 52.1426 152.547 52.2033 152.729 52.082C152.911 51.9607 152.85 51.7182 152.85 51.5363C152.85 50.2023 152.85 48.8684 152.85 47.5344C152.85 47.3525 152.85 47.2313 152.79 47.0494C152.729 46.8068 152.122 47.0494 152.365 46.5643C152.486 46.3824 152.79 46.443 153.032 46.5037C153.396 46.5037 153.578 46.8068 153.639 47.1706C153.518 47.777 153.518 48.262 153.518 48.8078Z" fill="white"/>
<path d="M79.1317 51.1725C79.253 51.5363 78.889 52.1427 79.5564 52.4458C79.7384 52.5065 79.5564 52.749 79.3137 52.749C78.889 52.749 78.525 52.749 78.1002 52.749C77.9789 52.749 77.7969 52.749 77.7969 52.5671C77.7969 52.4458 77.8575 52.3852 78.0396 52.2639C78.525 51.9608 78.5856 49.3535 78.0396 48.9897C77.9182 48.9291 77.7969 48.8684 77.7969 48.7472C77.7969 48.5653 77.9789 48.5046 78.1002 48.5653C78.889 48.8684 79.5564 48.5653 80.2845 48.444C81.1339 48.3227 81.7407 48.9291 81.8013 49.8386C81.862 50.3843 81.8013 50.93 81.8013 51.4151C81.8013 51.7789 81.6193 52.2033 82.226 52.2639C82.2867 52.2639 82.3474 52.4458 82.3474 52.5065C82.3474 52.6884 82.1654 52.6884 82.044 52.6884C81.4373 52.749 81.0733 52.5065 81.0126 51.8395C80.9519 51.2332 81.0126 50.6268 81.0126 50.0205C81.0126 49.5354 80.9519 49.111 80.4058 49.0503C79.8598 48.9291 79.4957 49.2322 79.253 49.6567C79.1317 50.1418 79.1924 50.6268 79.1317 51.1725Z" fill="white"/>
<path d="M134.891 52.567C134.83 52.6277 134.709 52.6883 134.648 52.6883C134.224 52.7489 133.859 52.6277 133.617 52.2032C133.617 50.6874 133.435 50.4448 132.343 50.8086C131.857 50.9299 131.554 51.2331 131.736 51.7182C131.918 52.2639 132.343 52.3245 132.767 52.082C133.253 51.7788 133.374 51.9001 133.374 52.2032C133.374 52.3245 133.313 52.3851 133.313 52.567C133.01 52.7489 132.646 52.7489 132.282 52.7489C131.554 52.6883 130.947 52.2639 130.947 51.6575C130.886 50.9299 131.311 50.5055 131.979 50.3236C132.343 50.2629 132.646 50.2629 133.01 50.2023C133.253 50.1417 133.617 50.3842 133.617 49.8991C133.617 49.5353 133.556 49.1715 133.192 49.0503C132.707 48.929 132.221 48.929 131.979 49.4747C131.918 49.6566 131.979 50.081 131.554 49.8385C131.251 49.6566 131.19 49.3534 131.372 49.0503C131.797 48.3833 132.464 48.3227 133.131 48.4439C133.738 48.5046 134.224 48.8684 134.284 49.4747C134.345 50.1417 134.345 50.8087 134.406 51.4756C134.406 51.8394 134.224 52.2639 134.83 52.3851C134.891 52.3245 134.952 52.5064 134.891 52.567Z" fill="white"/>
<path d="M114.868 50.9299C114.686 50.9299 114.504 50.9299 114.322 50.9299C114.14 50.9299 113.837 51.1724 113.776 50.7479C113.715 50.3841 114.019 50.3235 114.261 50.3235C114.504 50.3235 114.686 50.3235 114.929 50.3235C115.171 50.2629 115.596 50.5054 115.657 50.1416C115.718 49.7778 115.596 49.4746 115.293 49.2321C115.171 49.1108 114.989 49.0502 114.868 49.0502C114.261 48.9289 113.837 49.2321 113.594 49.7778C113.23 50.5054 113.412 51.6575 113.958 52.0819C114.504 52.4457 114.989 52.3851 115.536 52.0213C115.718 51.9 115.839 51.4149 116.142 51.7787C116.446 52.1425 116.142 52.4457 115.839 52.6276C115.171 53.1127 113.897 52.9308 113.291 52.3851C112.623 51.7181 112.441 50.3841 112.927 49.4746C113.351 48.6864 114.322 48.262 115.171 48.5045C115.9 48.6864 116.506 49.4746 116.446 50.2629C116.446 50.6873 116.264 50.9905 115.778 50.9905C115.475 50.8692 115.171 50.8692 114.868 50.9299C114.868 50.8692 114.868 50.9299 114.868 50.9299Z" fill="white"/>
<path d="M103.886 52.5671C103.886 52.6883 103.765 52.6883 103.643 52.6883C103.219 52.749 102.854 52.6277 102.612 52.2033C102.612 50.6268 102.49 50.4449 101.338 50.748C100.852 50.8693 100.549 51.1725 100.731 51.6575C100.913 52.2033 101.338 52.2639 101.762 52.0214C102.248 51.7182 102.369 51.8395 102.369 52.082C102.369 52.2033 102.308 52.2639 102.308 52.4458C102.126 52.5064 101.944 52.5671 101.762 52.6277C100.792 52.8096 100.064 52.3852 99.9422 51.5969C99.8208 50.8693 100.306 50.3236 101.277 50.1417C101.459 50.0811 101.58 50.1417 101.762 50.0811C102.066 49.9598 102.551 50.3842 102.612 49.7779C102.672 49.4141 102.551 48.9897 102.126 48.8684C101.641 48.7471 101.216 48.8078 100.974 49.3535C100.852 49.596 100.852 49.9598 100.488 49.6566C100.246 49.4747 100.246 49.1716 100.367 48.929C100.852 48.262 101.52 48.2014 102.248 48.3227C102.854 48.3833 103.279 48.8078 103.34 49.4141C103.401 50.0204 103.34 50.5661 103.34 51.1725C103.34 51.5363 103.158 52.082 103.825 52.2033C103.825 52.3245 103.886 52.5064 103.886 52.5671Z" fill="white"/>
<path d="M149.331 52.5671C149.331 52.6883 149.21 52.6883 149.088 52.6883C148.664 52.749 148.3 52.6277 148.057 52.2033C148.057 50.6874 147.936 50.4449 146.844 50.748C146.358 50.8693 146.055 51.1725 146.237 51.6575C146.419 52.1426 146.844 52.2639 147.268 52.0214C147.754 51.7182 147.875 51.8395 147.875 52.082C147.875 52.2033 147.814 52.2639 147.814 52.4458C147.632 52.5064 147.45 52.5671 147.268 52.6277C146.297 52.749 145.569 52.3245 145.448 51.5969C145.327 50.8693 145.812 50.3236 146.783 50.1417C146.965 50.0811 147.086 50.1417 147.268 50.0811C147.572 49.9598 148.057 50.3842 148.118 49.7779C148.178 49.4141 148.118 49.0503 147.693 48.929C147.268 48.8078 146.844 48.8078 146.54 49.2322C146.479 49.2928 146.479 49.3535 146.479 49.3535C146.419 49.5354 146.479 49.9598 146.055 49.7173C145.751 49.5354 145.691 49.2322 145.873 48.929C146.297 48.262 147.026 48.2014 147.754 48.3227C148.36 48.3833 148.785 48.8078 148.846 49.4141C148.906 50.0204 148.846 50.5661 148.846 51.1725C148.846 51.5363 148.664 52.082 149.331 52.2033C149.331 52.3245 149.392 52.5064 149.331 52.5671Z" fill="white"/>
<path d="M71.4863 43.8965C72.0931 43.4114 72.4571 42.7444 72.4571 41.9562C72.4571 41.1073 72.5178 40.1978 72.5178 39.3489C72.5178 39.0458 72.4571 38.8032 72.0324 38.6213C72.6998 38.4394 73.0638 37.6512 73.6099 37.9543C74.2166 38.2575 73.7919 38.9851 73.8526 39.4702C73.9133 40.0159 73.8526 40.5616 73.8526 41.1679C73.8526 42.8051 73.3672 43.472 71.7897 44.0784C71.6077 44.139 71.4863 44.1996 71.4863 43.8965Z" fill="white"/>
<path d="M87.5043 48.3833C86.2302 48.3833 85.4414 49.1715 85.4414 50.5661C85.4414 51.9 86.2302 52.8095 87.5043 52.8095C88.7178 52.8095 89.5672 51.9 89.5672 50.5661C89.5672 49.2321 88.7785 48.3833 87.5043 48.3833ZM87.5043 52.2638C86.6549 52.2638 86.2302 51.7181 86.1695 50.6874C86.1695 49.5959 86.6549 48.9896 87.5043 48.9896C88.3537 48.9896 88.7785 49.5353 88.7785 50.5661C88.7785 51.6575 88.3537 52.2638 87.5043 52.2638Z" fill="white"/>
<path d="M96.3612 50.5055C96.3612 50.9299 96.3612 51.3543 96.3612 51.7788C96.3612 52.0213 96.3612 52.2032 96.6646 52.2639C96.9073 52.2639 97.0286 52.3851 96.9679 52.567C96.9073 52.8096 96.6039 52.7489 96.4825 52.6883C95.8151 52.3851 95.1477 52.567 94.4803 52.7489C93.5702 52.9915 92.9635 52.3851 92.9635 51.415C92.9635 50.8693 92.9635 50.3236 92.9635 49.7172C92.9635 49.4141 93.0241 49.0503 92.5388 48.9896C92.3567 48.9896 92.2961 48.8684 92.3567 48.6864C92.3567 48.5652 92.4781 48.5652 92.5994 48.5652C93.2668 48.4439 93.6309 48.7471 93.6309 49.3534C93.6309 50.0204 93.6309 50.6874 93.6309 51.3543C93.6309 51.7181 93.7522 52.0819 94.1769 52.2032C94.6017 52.3245 94.9657 52.1426 95.2084 51.7788C95.7545 51.1118 95.6938 49.7779 95.1477 48.929C95.0264 48.7471 95.0871 48.6258 95.2691 48.5652C95.8151 48.3833 96.3005 48.6864 96.3005 49.2928C96.3612 49.7172 96.3612 50.081 96.3612 50.5055Z" fill="white"/>
<path d="M127.123 50.0204C127.123 49.1715 126.699 48.929 125.971 48.9896C125.728 49.0503 125.485 49.1109 125.425 49.3534C125.364 49.6566 125.546 49.8991 125.789 50.0204C126.213 50.2023 126.699 50.3842 127.123 50.5661C127.609 50.748 127.973 51.1118 127.912 51.6575C127.852 52.2032 127.487 52.567 126.941 52.7489C126.213 52.9915 125.485 52.8702 124.879 52.4458C124.575 52.2032 124.514 51.9001 124.757 51.6575C125.061 51.3544 125.182 51.7182 125.364 51.9001C125.546 52.1426 125.789 52.2639 126.092 52.2639C126.456 52.2639 126.881 52.3245 127.063 51.8394C127.245 51.3544 126.82 51.2331 126.456 51.0512C126.031 50.8693 125.607 50.748 125.243 50.5055C124.514 50.081 124.454 49.1715 125.243 48.6865C125.849 48.262 126.577 48.262 127.245 48.5652C127.852 48.8684 127.852 49.4747 127.123 50.0204Z" fill="white"/>
<path d="M107.162 50.748C107.162 50.2629 107.162 49.8991 107.162 49.5353C107.162 49.3534 107.162 49.1715 107.04 49.1109C106.919 48.9896 106.433 49.0502 106.676 48.6864C106.797 48.4439 107.222 48.5045 107.404 48.6258C107.768 48.9289 108.011 48.747 108.375 48.5651C109.042 48.262 109.831 48.6864 109.77 49.3534C109.77 49.6566 109.649 49.8991 109.346 49.8991C109.042 49.8991 109.042 49.7172 109.103 49.4747C109.103 49.2928 109.103 49.1715 108.86 49.1109C108.618 49.0502 108.436 49.1108 108.254 49.2927C107.95 49.5959 107.829 50.0204 107.89 50.3842C108.011 51.0511 107.465 51.9 108.314 52.4457C108.436 52.5064 108.375 52.7489 108.132 52.7489C107.829 52.7489 107.465 52.7489 107.162 52.7489C106.979 52.7489 106.676 52.8702 106.615 52.6276C106.494 52.3244 106.919 52.3851 106.979 52.2638C107.344 51.7181 107.04 51.1724 107.162 50.748Z" fill="white"/>
<path d="M147.208 16.1867C146.54 16.1867 145.934 15.5804 145.934 14.9134C145.934 14.1858 146.48 13.5794 147.208 13.5794C147.875 13.5794 148.482 14.1858 148.482 14.8527C148.543 15.5197 147.936 16.1867 147.208 16.1867Z" fill="white"/>
<path d="M93.5112 28.9804C93.5112 29.708 92.9044 30.3143 92.1764 30.2537C91.509 30.2537 90.9629 29.6474 90.9629 28.9198C90.9629 28.1922 91.509 27.6465 92.237 27.6465C92.9044 27.6465 93.5112 28.2528 93.5112 28.9804Z" fill="white"/>
<path d="M120.51 49.3535C120.51 50.0204 120.449 50.748 120.51 51.415C120.571 52.1426 120.753 52.2639 121.36 51.7788C121.542 51.6575 121.663 51.6575 121.784 51.7788C122.027 52.0213 121.906 52.2639 121.724 52.4458C121.42 52.7489 120.996 52.8096 120.631 52.6883C120.146 52.567 119.903 52.2032 119.903 51.7788C119.843 51.1118 119.903 50.4449 119.843 49.7779C119.843 49.1715 119.843 48.5652 119.843 47.9589C119.843 47.5951 120.025 47.11 119.357 47.0494C119.175 47.0494 119.115 46.7462 119.357 46.6856C119.843 46.443 120.51 46.8068 120.51 47.4132C120.51 48.0195 120.51 48.6865 120.51 49.3535Z" fill="white"/>
<path d="M98.7902 34.0131C98.7902 34.0131 98.5475 34.0131 98.3655 34.0131C98.1228 34.0737 97.9408 33.9524 98.1228 33.7099C98.3655 33.3461 98.4261 33.1036 98.3655 32.6791C98.3048 32.1941 99.0329 31.7696 99.5183 31.8909C99.8823 32.0122 100.064 32.2547 100.004 32.6185C99.8823 33.1036 99.6396 32.8004 99.4576 32.6791C99.2756 32.6185 99.0329 32.6791 99.0329 32.9217C99.0329 33.1036 99.2149 33.1036 99.3969 33.1642C99.7003 33.2248 100.186 32.9217 100.125 33.528C100.064 34.0737 99.6396 34.1343 99.2149 34.0131C99.1542 33.9524 99.0329 34.0131 98.7902 34.0131Z" fill="white"/>
<path d="M88.2923 36.1352C87.9282 36.0746 87.6855 35.8927 87.6855 35.4683C87.6855 35.0438 87.9282 34.8013 88.2923 34.8013C88.717 34.8013 88.9597 35.0438 88.9597 35.4683C88.9597 35.8321 88.717 36.0746 88.2923 36.1352Z" fill="white"/>
<path d="M116.809 36.014C116.749 36.3778 116.567 36.681 116.142 36.681C115.778 36.681 115.474 36.3778 115.535 36.014C115.535 35.5896 115.838 35.2864 116.263 35.3471C116.627 35.2864 116.809 35.5896 116.809 36.014Z" fill="white"/>
<path d="M140.958 42.7444C141.383 42.805 141.565 43.0476 141.565 43.4114C141.565 43.8358 141.322 44.0783 140.898 44.0783C140.473 44.0783 140.291 43.7752 140.291 43.4114C140.291 42.9869 140.534 42.7444 140.958 42.7444Z" fill="white"/>
<path d="M115.049 35.9533C114.988 36.1959 115.352 36.6809 114.745 36.6809C114.381 36.6809 114.078 36.3778 114.139 35.9533C114.139 35.5895 114.381 35.2863 114.806 35.2863C115.291 35.2863 114.988 35.7108 115.049 35.9533Z" fill="white"/>
<path d="M142.595 42.805C142.777 42.8656 143.02 43.0475 143.02 43.472C143.02 43.8358 142.777 44.0783 142.413 44.0783C141.746 44.0177 142.231 43.5326 142.11 43.2294C141.928 42.9869 141.988 42.6837 142.595 42.805Z" fill="white"/>
</svg>
