<svg width="623" height="690" viewBox="0 0 623 690" fill="none" xmlns="http://www.w3.org/2000/svg">
<g clip-path="url(#clip0)">
<path d="M383.5 689.5C404.5 669.5 473.5 674.5 516 669.5C558.5 664.5 578 629 585 601.5C591.999 574 597 517.5 623.5 502.5" stroke="#FFBA0B" stroke-width="0.5" stroke-linecap="round" stroke-linejoin="round" stroke-dasharray="10 5"/>
<path d="M413 690C417.976 645.822 521.981 691.523 552.834 672.735C583.687 653.947 568.758 615.863 578.711 580.318C588.664 544.773 601.104 527 623 527" stroke="#288DEA" stroke-width="0.5" stroke-linecap="round" stroke-linejoin="round" stroke-dasharray="10 5"/>
<g filter="url(#filter0_f)">
<circle cx="556" cy="23" r="31" fill="#288DEA"/>
</g>
<g filter="url(#filter1_f)">
<circle cx="609" cy="78" r="31" fill="#FFBA0B"/>
</g>
<circle cx="522.5" cy="63.5" r="2.5" fill="#288DEA"/>
<circle cx="528" cy="72" r="1" fill="#288DEA"/>
<circle cx="573" cy="21" r="1" fill="#FFBA0B"/>
<circle cx="576.5" cy="28.5" r="2.5" fill="#FFBA0B"/>
<circle cx="597.5" cy="63.5" r="3.5" fill="#288DEA"/>
<circle cx="566" cy="31" r="5" fill="#FFBA0B"/>
<circle cx="594.5" cy="69.5" r="1.5" fill="#FFBA0B"/>
</g>
<defs>
<filter id="filter0_f" x="325" y="-208" width="462" height="462" filterUnits="userSpaceOnUse" color-interpolation-filters="sRGB">
<feFlood flood-opacity="0" result="BackgroundImageFix"/>
<feBlend mode="normal" in="SourceGraphic" in2="BackgroundImageFix" result="shape"/>
<feGaussianBlur stdDeviation="100" result="effect1_foregroundBlur"/>
</filter>
<filter id="filter1_f" x="378" y="-153" width="462" height="462" filterUnits="userSpaceOnUse" color-interpolation-filters="sRGB">
<feFlood flood-opacity="0" result="BackgroundImageFix"/>
<feBlend mode="normal" in="SourceGraphic" in2="BackgroundImageFix" result="shape"/>
<feGaussianBlur stdDeviation="100" result="effect1_foregroundBlur"/>
</filter>
<clipPath id="clip0">
<rect width="623" height="690" fill="white"/>
</clipPath>
</defs>
</svg>
