<svg width="40" height="40" viewBox="0 0 40 40" fill="none" xmlns="http://www.w3.org/2000/svg">
<g opacity="0.5">
<rect width="40" height="40" rx="8" fill="white" fill-opacity="0.1"/>
<path d="M28.8414 14.9875C28.8548 15.1625 28.8548 15.3375 28.8548 15.5125C28.8548 20.85 24.5242 27 16.6092 27C14.1707 27 11.9055 26.3375 10 25.1875C10.3465 25.225 10.6795 25.2375 11.0393 25.2375C13.0514 25.2375 14.9036 24.6 16.3826 23.5125C14.4905 23.475 12.9048 22.3125 12.3585 20.7125C12.625 20.75 12.8915 20.775 13.1713 20.775C13.5578 20.775 13.9442 20.725 14.304 20.6375C12.3319 20.2625 10.8528 18.6375 10.8528 16.675V16.625C11.4257 16.925 12.092 17.1125 12.7982 17.1375C11.6389 16.4125 10.8794 15.175 10.8794 13.775C10.8794 13.025 11.0926 12.3375 11.4657 11.7375C13.5844 14.1875 16.769 15.7875 20.3401 15.9625C20.2735 15.6625 20.2335 15.35 20.2335 15.0375C20.2335 12.8125 22.1523 11 24.5374 11C25.7766 11 26.8959 11.4875 27.6821 12.275C28.6548 12.1 29.5875 11.7625 30.4137 11.3C30.0939 12.2375 29.4143 13.025 28.5216 13.525C29.3877 13.4375 30.2272 13.2125 31 12.9C30.4138 13.7 29.6809 14.4125 28.8414 14.9875Z" fill="white"/>
</g>
</svg>
