<svg width="94" height="164" viewBox="0 0 94 164" fill="none" xmlns="http://www.w3.org/2000/svg">
<path d="M48.7628 37.2573C54.0779 39.0278 59.1132 41.1711 63.962 43.7803C69.5568 46.8554 74.8719 50.3965 79.441 54.8694C79.9072 55.3353 80.2802 55.8944 80.3735 56.6399C80.6532 58.3173 81.2127 59.9946 81.6789 61.672C81.9587 62.5106 81.6789 63.0697 80.8397 63.3493C77.7626 64.6539 74.5922 64.7471 71.4218 64.6539C62.5633 64.3743 54.2644 61.672 45.8722 58.9696C37.5732 56.2672 28.9945 54.683 20.2293 54.4035C17.0589 54.3103 13.8885 54.4967 10.8114 55.0558C10.1586 55.149 9.78565 54.9626 9.41266 54.4967C7.45448 52.4466 5.49631 50.3965 3.53813 48.3464C1.85969 46.5759 1.85969 44.7122 3.53813 42.9416C5.40306 41.0779 7.17475 39.121 9.03968 37.2573C9.8789 36.4186 10.1586 35.3936 9.78566 34.2754C9.13293 31.7594 8.4802 29.2433 7.82747 26.8205C7.17474 24.1181 8.01397 22.6272 10.7181 21.8817C12.3033 21.4157 13.8885 21.043 15.4737 20.5771C16.2197 20.2975 16.8724 20.5771 17.4319 20.9498C17.8049 21.1362 17.8981 21.6021 17.8049 21.8817C17.7116 22.3476 17.3387 21.8817 17.0589 21.9749C16.9657 21.9749 16.8724 21.9749 16.7792 21.9749C14.9142 22.4408 14.7277 24.1181 14.1683 25.5159C13.7953 26.541 13.9818 27.566 15.1007 28.2183C15.9399 28.7774 16.8724 29.1502 17.8049 29.5229C18.5508 29.8025 18.8306 30.1752 18.9238 31.0139C19.2968 35.3936 19.5766 39.8665 20.0428 44.2462C20.2293 46.0168 21.1618 47.2282 22.5605 48.16C24.5186 49.4646 26.0106 48.7191 26.1971 46.3895C26.3836 43.5939 26.5701 40.7052 26.7566 37.9096C26.9431 34.4617 27.2228 31.1071 28.6215 27.9387C28.9945 27.0069 29.3675 26.7273 30.2999 27.1001C33.8433 28.4979 37.3867 29.8025 40.9301 31.1071C41.6761 31.3866 41.9558 31.8525 41.9558 32.5048C42.049 33.6231 42.1423 34.7413 42.2355 35.7663C42.422 37.63 43.4478 38.9347 45.0329 39.8665C46.9911 41.0779 48.3898 40.3324 48.6696 38.096C48.6696 37.9096 48.7628 37.6301 48.7628 37.2573Z" fill="#FFBA0B"/>
<path d="M87.2521 47.7161C78.2071 37.1861 66.5513 30.7563 53.4967 26.2834C53.8697 25.8174 54.1495 25.3515 54.4292 24.9788C55.1752 23.7674 54.8954 22.6491 53.6832 21.9968C51.9115 21.065 50.1399 20.9718 48.3682 22.09C47.2492 22.7423 46.2235 23.6742 45.1978 24.5128C44.7315 24.8856 44.3586 24.9788 43.7991 24.6992C40.3489 22.8355 36.8056 20.9718 33.3554 19.2013C32.6095 18.8285 32.7027 18.4558 32.8892 17.8035C34.2879 14.1692 36.9921 11.3737 39.5097 8.57809C41.3747 6.62119 43.1463 4.5711 44.918 2.52102C45.3843 1.9619 45.7573 2.05509 46.3167 2.24146C47.3425 2.70739 47.9019 3.63925 48.6479 4.38473C50.1399 5.8757 51.5386 7.36668 53.0305 8.95083C53.8697 9.88269 54.8954 10.0691 56.1077 9.69632C58.5321 9.04402 60.9565 8.39172 63.3809 7.64623C65.8986 6.99393 67.4838 7.83261 68.1365 10.3486C68.7892 12.8646 69.4419 15.3806 70.0947 17.9898C70.3744 19.2013 71.1204 19.9467 72.4258 20.3195C74.8503 20.9718 77.3679 21.6241 79.7923 22.2764C82.0302 22.9287 83.056 24.5128 82.4965 26.7493C81.937 29.1721 81.2843 31.595 80.6316 34.0178C80.1653 35.6951 80.4451 36.9997 81.7505 38.2111C83.6154 39.8885 85.2939 41.7522 86.9723 43.6159C88.1845 44.8273 88.2778 46.2251 87.2521 47.7161Z" fill="#FFBA0B"/>
<path d="M24.2148 13.1442C23.8419 12.9578 23.7486 12.8646 23.5621 12.7714C21.4174 11.7464 21.2309 10.069 22.8161 8.39169C23.2824 7.92576 23.7486 8.01894 24.2148 8.20531C25.1473 8.67124 26.173 9.04399 27.1055 9.6031C27.7582 9.97584 28.2244 9.88266 28.7839 9.41673C32.1408 6.71434 35.4044 4.10514 38.7613 1.40276C39.9735 0.377715 41.279 -0.367771 43.0507 0.191343C44.4494 0.657272 44.6359 1.1232 43.7034 2.24143C40.7195 5.59611 37.7356 8.76443 34.845 12.1191C33.2598 13.8896 32.4206 16.2193 31.4881 18.3626C31.3016 18.8285 31.3948 19.2012 31.8611 19.4808C35.8707 21.8104 40.0668 23.8605 44.1696 26.0038C44.7291 26.2833 45.1021 26.097 45.4751 25.7242C46.5008 24.8856 47.5265 24.0469 48.6455 23.2082C49.8577 22.2764 51.2564 22.1832 52.7483 22.7423C53.8673 23.2082 54.0538 23.6741 53.3078 24.606C52.2821 25.9106 51.1631 27.2152 50.1374 28.5198C49.5779 29.0789 49.5779 29.5448 50.3239 30.0108C50.7901 30.2903 51.2564 30.6631 51.6294 31.129C52.0023 31.5017 52.6551 31.7813 52.3753 32.4336C52.0956 33.1791 51.3496 32.8063 50.7901 32.8063C50.1374 32.8063 49.5779 32.7132 48.9252 32.5268C48.2725 32.3404 48.1792 32.62 48.086 33.1791C47.8995 34.9496 47.6198 36.7201 47.4333 38.3975C47.2468 39.6089 46.7805 39.8885 45.6616 39.2362C44.0764 38.3975 43.3304 36.9997 43.1439 35.2292C43.0507 34.1109 42.9574 32.8995 42.8642 31.7813C42.8642 31.129 42.5844 30.7563 41.9317 30.4767C37.7356 28.7994 33.5395 27.2152 29.2502 25.7242C28.5042 25.4447 28.3177 25.7242 27.9447 26.2833C25.8 30.3835 25.5203 34.9496 25.3338 39.4225C25.2406 41.7522 25.0541 44.175 24.8676 46.5046C24.7743 47.6229 24.3081 47.9024 23.2824 47.3433C22.1634 46.691 21.2309 45.7592 21.0444 44.2682C20.485 39.9816 20.2052 35.6951 19.9255 31.4086C19.8322 29.8244 19.6457 28.613 17.7808 28.3334C17.5011 28.3334 17.2213 28.1471 17.0349 27.9607C14.7969 26.9356 14.7037 26.6561 15.7294 24.5128C16.4754 23.115 16.5686 23.0218 18.0606 23.6741C18.3403 23.7673 18.7133 24.2333 19.0863 23.8605C19.366 23.581 19.1795 23.115 19.0863 22.8355C18.993 20.9718 18.0606 19.7603 16.1024 19.2012C13.8645 18.5489 11.813 17.4307 9.66835 16.4988C7.80342 15.6602 6.49796 14.2624 5.65874 12.4919C5.09926 11.3736 5.28576 11.0009 6.49797 10.6281C8.45615 10.1622 10.3211 10.2554 12.186 11.0941C14.6104 12.2123 16.9416 13.2373 19.2728 14.4488C20.2985 15.0079 21.0444 15.0079 21.9769 14.3556C22.7229 13.9828 23.3756 13.6101 24.2148 13.1442Z" fill="#1792D7"/>
<path d="M17.7809 67.751C26.8259 67.751 35.4046 69.8943 43.9833 72.5966C49.8578 74.4604 55.7324 76.1377 61.7934 76.6968C63.8448 76.8832 65.8963 77.1627 67.9477 77.0695C68.9734 77.0695 69.3464 77.3491 68.9734 78.3741C68.6004 79.4924 68.4139 80.6106 68.1342 81.7288C67.5747 83.9653 65.8963 84.8972 63.6584 84.338C61.2339 83.6857 58.7163 83.0334 56.2918 82.288C54.9864 81.9152 53.9607 82.1948 53.1215 83.1266C51.3498 84.9903 49.5781 86.7609 47.8064 88.6246C46.0347 90.3951 44.1698 90.4883 42.4913 88.7178C40.6264 86.854 38.8547 84.9903 36.9898 83.0334C36.1505 82.1948 35.2181 81.9152 34.0991 82.288C31.5814 83.0334 29.157 83.6857 26.6394 84.338C24.3082 84.9903 22.723 84.0585 22.0703 81.7288C21.4176 79.1196 20.6716 76.6036 20.1121 73.9944C19.8324 72.783 19.0864 72.0375 17.7809 71.758C15.3565 71.1057 13.0253 70.4534 10.6942 69.8011C10.5077 69.7079 10.3212 69.7079 10.1347 69.6147C9.7617 69.5215 9.20223 69.4283 9.29548 68.8692C9.29548 68.3101 9.85496 68.3101 10.2279 68.3101C12.0929 68.1237 13.9578 67.9374 15.916 67.8442C16.3822 67.751 17.1282 67.751 17.7809 67.751Z" fill="#FFBA0B"/>
<path d="M69.9068 72.9694C61.8876 72.9694 54.1481 71.292 46.5951 68.8692C39.5084 66.6327 32.4216 64.769 25.0551 64.0235C18.9008 63.3712 12.8398 63.6508 6.77874 64.769C5.84627 64.9554 4.91381 64.9554 3.98134 65.2349C2.95562 65.4213 2.86237 65.0486 2.95562 64.2099C3.14211 62.7189 4.07458 61.7871 5.47328 61.3211C7.80445 60.5757 10.1356 60.1097 12.56 59.8302C24.0294 58.3392 35.1258 60.3893 46.0356 63.9303C52.0967 65.8872 58.251 67.9373 64.5917 68.8692C70.1866 69.6147 75.8746 70.4533 81.4694 69.0556C83.6141 68.4964 85.479 67.6578 87.0642 66.1668C89.1156 64.3031 89.4886 61.9734 88.7427 59.4574C87.7169 55.8232 85.479 52.9344 82.8681 50.3252C76.8071 44.175 69.6271 39.7952 61.8876 36.0678C59.4632 34.9496 57.0388 33.9245 54.5211 32.9927C53.9616 32.8063 53.5886 32.6199 53.4954 31.9676C53.4021 31.3153 52.7494 30.9426 52.2832 30.4767C52.0034 30.1039 51.071 30.0107 51.7237 29.2653C52.2832 28.613 52.4697 27.4947 53.7751 28.0538C55.9198 28.8925 58.0645 29.5448 60.1159 30.4767C68.8811 34.2041 76.9003 38.9566 83.6141 45.8523C87.0642 49.3002 90.0481 53.1208 91.2603 57.9665C92.5658 62.7189 91.0738 66.4464 86.8777 69.2419C82.0289 72.4102 76.7138 73.4353 71.0258 73.4353C70.6528 72.9694 70.2798 72.9694 69.9068 72.9694Z" fill="#1792D7"/>
<path d="M87.9056 61.4144C87.9056 61.5076 87.9056 61.694 87.9056 61.8803C87.7191 62.6258 87.8124 63.7441 86.9732 63.8372C86.1339 64.0236 86.2272 62.8122 86.0407 62.2531C84.269 58.3393 81.4716 55.2641 78.3012 52.4686C70.1887 45.3865 60.7708 40.4476 50.7002 36.9066C49.2082 36.3474 48.9285 35.7883 49.488 34.2042C49.5812 33.8314 49.7677 33.6451 50.2339 33.7382C51.1664 33.9246 52.1921 34.0178 53.1246 33.4587C53.4043 33.2723 53.6841 33.4587 53.9638 33.5519C64.4074 37.5589 74.1983 42.6841 82.1243 50.698C84.642 53.2141 86.8799 56.0096 87.8124 59.6439C87.9056 60.2962 87.9056 60.7621 87.9056 61.4144Z" fill="#1792D7"/>
<path d="M48.2391 121.35C48.4335 121.22 48.5631 121.156 48.6279 121.026C49.0167 120.508 48.9519 119.86 48.6279 119.342C48.4335 118.954 48.0447 118.889 47.6559 119.083C46.8135 119.601 45.9712 120.184 45.1288 120.702C46.036 120.702 46.036 121.35 46.036 121.868V130.351C46.036 131.97 46.036 131.97 44.416 131.97C43.8977 131.97 43.3793 131.97 42.8609 131.905C42.9257 131.387 42.9905 130.934 42.9905 130.416C43.3793 126.919 40.6578 124.652 37.2883 125.559C36.3812 125.818 35.5388 126.206 34.7612 126.725C34.0485 127.178 33.4653 127.761 32.7525 128.408C32.7525 127.955 32.7525 127.566 32.6877 127.243C32.5581 126.595 32.0398 126.271 31.4566 126.595C30.6142 127.113 29.8366 127.696 28.9943 128.214C29.8366 128.214 29.8366 128.732 29.8366 129.315C29.8366 129.638 29.8366 130.027 29.8366 130.351C29.8366 131.905 29.8366 131.905 28.2167 131.905C27.5687 131.905 27.4391 131.711 27.5039 131.128C27.5687 129.962 27.5687 128.797 27.5039 127.631C27.5039 126.725 26.9208 126.401 26.1432 126.854C25.3656 127.307 24.5881 127.825 23.8753 128.343C24.5233 128.473 24.7177 128.797 24.7177 129.379C24.7177 130.027 24.6529 130.675 24.7177 131.322C24.7177 131.775 24.5233 131.905 24.1345 131.905C23.0977 131.905 21.9962 131.84 20.9594 131.905C20.3114 131.97 20.117 131.775 20.117 131.128C20.1818 127.566 20.117 124.07 20.117 120.508C20.117 120.249 20.117 119.99 20.117 119.731C19.9874 118.954 19.4691 118.695 18.8211 119.083C17.9787 119.601 17.2012 120.12 16.0996 120.832C17.3308 120.638 17.266 121.22 17.266 121.803C17.266 125.883 17.266 129.962 17.266 134.042C17.266 134.625 17.3956 134.819 17.9787 134.819C19.8579 134.754 21.6722 134.754 23.5513 134.819C24.3937 134.819 25.1712 134.754 25.6896 133.977C25.884 133.718 26.0784 133.589 26.2728 134.042C26.5968 134.689 27.18 134.884 27.8279 134.819C28.4759 134.754 29.1887 134.689 29.7718 134.819C30.4198 134.948 30.4846 133.977 31.0678 134.366C31.5214 134.625 31.975 134.819 32.5581 134.819C36.8348 134.819 41.0466 134.819 45.3232 134.819C46.1656 134.819 48.5631 132.682 48.6927 131.905C48.6927 131.84 48.6927 131.711 48.6927 131.646C48.6927 128.408 48.6927 125.17 48.6927 121.868C48.8223 121.609 48.7575 121.35 48.2391 121.35ZM39.0379 131.97H36.3812C35.4092 131.97 34.502 131.97 33.5301 131.97C33.2709 131.97 32.8821 132.164 32.8173 131.775C32.7525 131.452 32.6229 130.998 32.9469 130.739C34.2429 129.574 35.6036 128.473 37.3531 128.084C38.9731 127.696 40.0098 128.473 40.1394 130.157C40.1394 130.416 40.1394 130.61 40.1394 130.869C40.1394 131.97 40.1394 131.97 39.0379 131.97Z" fill="#202127"/>
<path d="M86.0156 127.566C86.0156 126.789 85.3676 126.465 84.7196 126.919C83.9421 127.372 83.1645 127.955 82.3221 128.473C82.5813 128.732 83.0997 128.538 83.1645 128.991C83.2941 129.962 83.4885 130.998 83.0997 131.84C82.8405 132.293 81.8037 131.97 81.091 131.97C80.9614 131.97 80.8318 131.97 80.6374 131.97C79.9246 131.905 79.0175 132.293 78.6287 131.84C78.3047 131.452 78.4991 130.545 78.4991 129.833C78.4343 126.401 78.8879 127.437 76.3608 124.847C75.972 124.458 75.648 124.393 75.1296 124.523C72.7321 125.106 71.1122 126.919 70.7234 129.379C70.4642 130.998 70.6586 132.617 70.5938 134.236C70.529 134.819 70.7882 134.948 71.3066 134.948C72.5377 134.884 73.7041 134.948 74.9352 134.948C75.4536 134.948 75.648 135.078 75.5832 135.596C75.324 137.409 74.676 138.898 72.9913 139.87C72.9913 140.193 73.1857 140.064 73.3153 140.064C76.1016 139.611 77.7863 138.057 78.3695 135.402C78.4991 134.948 78.6935 134.948 79.0175 134.948C80.1838 134.948 81.415 134.948 82.6461 134.948C83.4237 134.948 85.9508 132.747 86.0156 131.97C86.0156 130.48 86.0156 128.991 86.0156 127.566ZM75.1944 131.97C73.5745 132.164 73.5097 132.099 73.5097 130.48C73.5097 128.732 74.2225 127.566 75.5832 127.048C75.5832 128.538 75.5832 130.092 75.5832 131.581C75.5832 131.905 75.4536 131.905 75.1944 131.97Z" fill="#202127"/>
<path d="M88.8654 151.526C88.023 152.238 85.8847 152.367 85.1072 151.655C84.848 151.461 84.7184 151.59 84.5888 151.72C83.876 152.108 83.228 152.497 82.5801 151.655C82.4505 151.461 82.2561 151.655 82.1265 151.72C80.8953 152.303 79.729 152.303 78.4978 151.785C78.3682 151.72 78.3034 151.655 78.2386 151.785C77.7851 152.303 77.1371 152.108 76.5539 152.108C73.8972 152.108 71.3053 152.108 68.6486 152.108C68.0007 152.108 67.7415 151.979 67.8063 151.267C67.8711 149.583 67.8711 147.899 67.8063 146.216C67.8063 145.827 68.0007 145.374 67.5471 145.05C67.3527 144.921 67.5471 144.791 67.6767 144.726C67.8711 144.597 68.0655 144.467 68.2599 144.338C69.0374 143.885 69.2966 143.949 69.2966 144.856C69.2966 146.539 69.2966 148.158 69.2966 149.842C69.2966 150.425 69.491 150.619 70.0742 150.619C72.3421 150.554 74.61 150.619 76.8779 150.619C77.2019 150.619 77.6555 150.813 77.7851 150.425C77.9147 149.971 77.9795 149.453 77.6555 149.065C77.5259 148.871 77.3963 148.871 77.6555 148.741L77.7203 148.676C78.1738 148.482 78.4978 147.899 78.9514 148.094C79.4698 148.353 79.1458 148.935 79.2106 149.389C79.2754 149.583 79.2106 149.842 79.2106 150.101C79.2106 150.295 79.081 150.619 79.405 150.684C79.6642 150.749 79.9882 150.813 80.1178 150.619C80.2474 150.425 80.2474 150.101 80.1178 149.907C79.9882 149.777 79.729 149.648 80.053 149.518C80.5066 149.324 80.7657 148.806 81.3489 148.871C81.6729 148.935 81.6729 149.194 81.6729 149.453C81.6729 149.712 81.6729 150.036 81.6729 150.295C81.6729 150.684 81.8673 150.684 82.1913 150.684C82.4505 150.684 82.6449 150.554 82.5801 150.295C82.5801 149.972 82.7097 149.453 82.5153 149.324C82.1913 149.065 82.3209 148.935 82.5801 148.806C83.0337 148.612 83.2928 148.029 83.8112 148.288C84.3296 148.547 84.0056 149.194 84.0704 149.648C84.2 150.036 83.6168 150.749 84.6536 150.749C84.9128 150.749 85.0424 150.619 85.0424 150.425C84.9776 149.842 85.2368 149.194 84.9128 148.676C84.7832 148.417 84.9128 148.353 85.0424 148.288C85.4312 148.094 85.7551 147.64 86.2087 147.705C86.4679 147.705 86.5327 147.964 86.5327 148.223C86.5327 148.871 86.5975 149.518 86.5327 150.166C86.4679 150.813 86.9215 150.749 87.3103 150.749C87.6991 150.749 88.0878 150.878 88.0878 150.166C88.023 148.676 88.2174 147.187 88.023 145.698C87.8934 144.856 88.1526 144.662 88.671 144.338C89.2542 143.949 89.5134 144.208 89.5134 144.856C89.5134 146.539 89.5782 148.288 89.5134 149.972C89.5134 150.749 89.9022 150.684 90.4205 150.684C90.9389 150.684 91.2629 150.619 91.1981 149.972C91.1333 148.547 91.3925 147.058 91.1333 145.633C90.9389 144.726 91.4573 144.597 91.9109 144.338C92.3645 144.014 92.6885 144.208 92.7532 144.726C92.7532 146.669 92.818 148.676 92.7532 150.619C92.7532 151.267 92.0405 151.59 91.5869 151.979C90.8741 152.367 89.319 152.044 88.8654 151.526Z" fill="#202127"/>
<path d="M3.59273 127.048C4.82388 126.271 6.11983 125.494 7.35098 124.782C8.06375 124.393 8.51733 124.847 8.84132 125.429C9.81328 127.178 10.85 128.797 12.2108 130.221C13.0531 131.128 13.9603 131.97 15.4506 131.97C15.0619 132.747 14.7379 133.459 14.3491 134.171C14.0251 134.754 13.4419 134.884 12.794 134.884C10.9796 134.884 9.1653 134.754 7.41578 135.013C7.02699 135.078 6.70301 135.143 6.31422 135.272C4.75909 135.79 4.17591 137.02 4.75909 138.575C5.08307 139.416 5.73105 140.129 6.37902 141.035C4.88868 140.388 3.72233 139.74 2.87996 138.575C1.64882 136.826 1.908 134.819 3.65753 133.459C5.08307 132.358 6.70301 132.034 8.45253 131.97C9.03571 131.97 9.55409 131.97 10.2669 131.97C8.90611 130.61 7.80456 129.25 6.96219 127.696C6.7678 127.372 6.50861 127.243 6.11983 127.243C5.27746 127.243 4.4351 127.243 3.52794 127.243C3.59273 127.113 3.59273 127.113 3.59273 127.048Z" fill="#202127"/>
<path d="M29.254 148.806C29.1892 148.353 29.5132 147.705 28.9948 147.511C28.4116 147.317 28.0876 147.964 27.5693 148.158C27.5045 148.223 27.3101 148.223 27.4397 148.353C28.0876 148.871 27.5693 149.518 27.7636 150.166C27.8284 150.49 27.634 150.619 27.3101 150.619C26.9861 150.619 26.7917 150.554 26.7917 150.166C26.7917 149.907 26.7917 149.583 26.7917 149.324C26.7269 148.935 26.9861 148.353 26.5325 148.158C26.0789 147.899 25.7549 148.417 25.4309 148.612C25.1717 148.741 24.9774 148.806 25.2365 149.194C25.4309 149.453 25.3013 149.971 25.3013 150.36C25.3013 150.684 24.9774 150.619 24.783 150.619C24.5886 150.619 24.3942 150.619 24.3942 150.295C24.3942 150.036 24.3942 149.842 24.3942 149.583C24.3942 149.259 24.459 148.871 24.0054 148.741C23.8758 148.741 22.5799 149.518 22.5799 149.648C22.5799 149.712 22.7095 149.712 22.7743 149.777C23.0334 149.971 23.0334 150.23 22.9038 150.49C22.7095 150.749 22.3855 150.619 22.1263 150.619C21.7375 150.619 21.8671 150.295 21.8671 150.101C21.8671 149.583 21.8671 149 21.8671 148.482C21.8671 147.899 20.8303 146.734 20.312 146.798C19.34 146.863 18.5624 147.446 18.1088 148.288C17.7201 149 17.3961 149.842 18.368 150.684C14.8042 150.684 11.4347 150.684 8.06526 150.684C7.35249 150.684 7.1581 150.49 7.1581 149.777C7.22289 148.158 7.22289 146.539 7.1581 144.921C7.1581 144.144 6.89891 144.014 6.25093 144.403C5.86215 144.662 5.14938 144.791 5.73255 145.568C5.79735 145.698 5.73255 145.892 5.73255 146.086C5.73255 147.835 5.79735 149.648 5.73255 151.396C5.73255 152.108 5.92695 152.238 6.57492 152.238C11.3051 152.238 16.1001 152.238 20.8303 152.238C21.4783 152.238 22.1263 152.432 22.7095 151.849C22.839 151.72 22.9686 151.72 23.0982 151.914C23.6814 152.497 24.2646 152.303 24.8478 151.979C25.0422 151.849 25.1718 151.59 25.4957 151.849C26.0789 152.367 27.3101 152.367 27.958 151.914C28.93 151.008 29.5132 150.166 29.254 148.806ZM20.312 149.324C20.312 149.583 20.312 149.907 20.312 150.166C20.312 150.425 20.1824 150.619 19.9232 150.554C19.5992 150.554 19.2104 150.684 19.1456 150.23C19.016 149.518 19.1456 148.806 19.664 148.288C19.7936 148.158 19.988 147.964 20.1824 148.029C20.4415 148.094 20.312 148.353 20.312 148.547C20.312 148.806 20.312 149.065 20.312 149.324Z" fill="#202127"/>
<path d="M91.7165 136.438C89.2542 136.761 88.0879 135.725 88.0879 133.265C88.0879 129.444 88.0879 125.624 88.0879 121.803C88.0879 121.22 88.0231 120.702 86.9863 120.832C88.0231 120.119 88.8006 119.601 89.643 119.083C90.2262 118.76 90.8094 119.019 90.939 119.666C91.0038 119.86 90.939 119.99 90.939 120.184C90.939 124.458 90.939 128.667 90.939 132.941C90.939 134.171 90.939 135.337 91.7165 136.438Z" fill="#202127"/>
<path d="M64.6328 120.702C65.3456 120.249 66.0584 119.796 66.7711 119.342C67.0951 119.148 67.4191 118.824 67.8727 119.083C68.3263 119.342 68.3263 119.731 68.3263 120.184C68.3263 124.523 68.3263 128.861 68.3263 133.2C68.3263 134.301 68.3911 135.402 69.039 136.373C66.9007 136.891 65.4752 135.79 65.4752 133.588C65.4752 129.703 65.4752 125.818 65.4752 121.997C65.4752 121.35 65.54 120.767 64.6328 120.702Z" fill="#202127"/>
<path d="M54.5885 136.438C52.0614 136.697 50.9599 135.79 50.9599 133.394C50.9599 129.574 50.9599 125.753 50.9599 121.933C50.9599 121.35 51.0247 120.702 50.0527 120.767C50.8303 120.249 51.6079 119.731 52.3854 119.213C53.0982 118.76 53.6166 119.019 53.7462 119.86C53.811 120.055 53.7462 120.314 53.7462 120.573C53.7462 124.847 53.6814 129.056 53.6814 133.329C53.7462 134.366 53.8758 135.402 54.5885 136.438Z" fill="#202127"/>
<path d="M66.0562 150.36C65.5378 149.971 65.149 149.583 64.7602 149.13C64.3714 148.547 63.9827 147.964 63.5939 147.317C63.3995 146.993 63.2051 146.669 62.8163 146.928C62.1683 147.317 61.5852 147.705 60.8724 148.094C61.5204 148.353 62.2331 147.899 62.6219 148.417C63.0755 149.13 63.5939 149.777 64.2418 150.554H51.9304C51.6712 150.554 51.4768 150.49 51.4768 150.166C51.5416 148.935 51.1528 147.576 52.2543 146.475C51.2824 146.345 50.6992 146.798 50.3104 147.446C49.9216 148.094 49.4033 148.288 48.7553 148.288C48.4313 148.288 48.1073 148.288 47.7833 148.288C47.1354 148.353 46.7466 148.676 46.5522 149.259C46.293 149.842 46.5522 150.231 47.0058 150.554C47.2002 150.749 47.3946 150.943 47.5889 151.137C48.9497 152.497 49.0793 152.497 50.116 150.813V150.749C50.8288 151.72 51.736 151.914 52.9023 151.914C56.9198 151.849 60.8724 151.914 64.8898 151.914H65.473C66.2506 151.914 66.445 151.267 66.6393 150.749C66.8985 150.36 66.2506 150.554 66.0562 150.36ZM50.116 150.943C49.1441 151.202 48.8201 150.231 48.1073 149.777C48.8201 149.583 49.4033 149.518 49.8568 149.13C50.116 149.712 49.7273 150.36 50.116 150.943C50.116 150.878 50.1808 150.878 50.116 150.943Z" fill="#202127"/>
<path d="M57.8926 139.87C59.7717 138.769 60.4845 136.956 60.5493 134.948C60.6141 133.135 60.5493 131.387 60.5493 129.574C60.5493 128.991 60.4845 128.538 59.7069 128.473C60.5493 127.955 61.3916 127.372 62.234 126.854C62.7524 126.53 63.4003 126.919 63.4003 127.566C63.4003 130.221 63.5299 132.941 63.3355 135.596C63.2059 137.862 61.0028 139.611 58.2814 140.064C58.087 140.064 57.8926 140.193 57.8926 139.87Z" fill="#202127"/>
<path d="M30.4194 152.885C29.8362 151.202 30.2898 149.648 31.7153 148.353C30.9377 147.964 31.1321 147.252 31.0673 146.604C31.0673 146.216 31.3265 145.762 30.8081 145.503C30.6786 145.439 30.7433 145.374 30.7433 145.309C30.8081 145.244 30.8081 145.244 30.8729 145.18C31.3265 144.985 31.7153 144.338 32.1689 144.532C32.7521 144.726 32.4281 145.439 32.4929 145.892C32.5577 146.41 32.4929 146.928 32.4929 147.446C32.4929 147.705 32.4281 148.029 32.8817 148.029C33.2704 148.029 33.5296 147.899 33.4 147.511C33.2704 146.669 33.5944 145.827 33.2056 144.985C33.076 144.662 33.8536 144.467 34.1776 144.208C34.372 144.079 34.6312 144.014 34.7608 144.208C34.9552 144.532 35.02 144.856 34.696 145.115C34.5016 145.309 34.1128 145.439 34.7608 145.568C34.8256 145.568 34.8904 145.698 34.8904 145.762C34.8904 146.928 34.8904 148.029 34.8904 149.194C34.8904 149.518 34.5664 149.453 34.372 149.453C33.8536 149.518 33.2704 149.518 32.7521 149.518C32.3633 149.583 32.0393 149.777 31.8449 150.101C31.7153 150.36 31.6505 150.619 32.1041 150.554C32.9465 150.36 33.9184 150.943 34.696 150.23C34.8256 150.101 34.8904 150.295 34.8904 150.36C35.02 150.619 35.2144 150.813 35.344 151.072C35.7327 151.785 35.6031 151.979 34.8256 151.979C34.1128 151.979 33.4 151.979 32.6873 151.979C31.8449 152.044 31.0673 152.173 30.4194 152.885Z" fill="#202127"/>
<path d="M43.1213 148.741C43.1861 147.77 42.4733 147.252 41.8253 146.863C41.307 146.539 40.7238 147.058 40.2054 147.381C39.687 147.77 39.4278 148.288 39.2335 148.871C38.9743 149.777 39.1039 150.749 39.0391 151.655C39.0391 151.849 39.1039 152.044 39.363 152.044C40.0758 151.979 40.8534 152.238 41.5662 151.72C41.631 152.885 41.2422 153.857 40.335 154.634C42.1493 154.375 43.0565 153.404 43.0565 151.785C43.1213 150.749 43.0565 149.712 43.1213 148.741ZM41.6958 149.453C41.5014 149.842 42.1493 150.684 40.983 150.554C40.7886 150.554 40.659 150.49 40.659 150.231C40.659 149.583 40.5942 149 41.0478 148.482C41.1774 148.353 41.307 148.158 41.5014 148.158C41.7606 148.223 41.631 148.482 41.6958 148.676C41.6958 148.935 41.6958 149.194 41.6958 149.453Z" fill="#202127"/>
<path d="M38.4553 152.821C37.0946 152.885 36.641 152.497 36.5762 151.331C36.5762 149.518 36.5762 147.77 36.5762 145.957C36.5762 145.698 36.8354 145.244 36.317 145.115C36.1874 145.05 36.2522 144.921 36.317 144.856C36.3818 144.856 36.3818 144.791 36.4466 144.791C36.9002 144.597 37.2242 143.949 37.8073 144.208C38.3257 144.467 38.0665 145.115 38.0665 145.568C38.0665 147.446 38.0017 149.389 38.0017 151.267C38.0665 151.72 38.0665 152.303 38.4553 152.821Z" fill="#202127"/>
<path d="M87.4414 118.565C87.4414 118.501 87.4414 118.436 87.4414 118.436C87.7006 117.465 88.543 116.752 88.219 115.457C87.9598 114.421 89.9685 113.579 91.0053 114.227C91.5884 114.615 91.718 115.198 91.4588 115.781C91.3293 116.105 91.1997 116.428 90.8109 115.91C90.6165 115.651 90.3573 115.651 90.0333 115.651C89.6445 115.651 89.3853 115.846 89.3853 116.169C89.3853 116.493 89.6445 116.687 89.9685 116.687C90.4221 116.687 90.8109 116.687 91.2645 116.687C91.9124 116.752 92.1068 117.011 91.7828 117.659C91.6532 117.918 91.5236 118.177 91.3293 118.371C91.2645 118.501 91.1997 118.695 91.0053 118.63C89.8389 118.112 88.6078 118.501 87.4414 118.565Z" fill="#202127"/>
<path d="M6.18526 163.311C5.66688 163.246 5.60208 162.858 5.47249 162.469C4.95411 161.109 4.50053 159.685 3.98215 158.325C3.78776 157.807 3.46377 157.418 2.8806 157.483C2.6862 157.548 2.36222 157.677 2.55661 157.936C2.94539 158.325 2.6862 158.713 2.55661 159.037C2.03823 160.203 1.51985 161.304 1.00147 162.469C0.807082 162.858 0.61269 163.181 0.807082 163.635C0.936677 163.894 1.19587 164.023 1.58465 163.894C1.90864 163.764 1.84384 163.635 1.77904 163.311C1.58465 162.275 2.10303 161.757 3.20458 161.757C3.26938 161.757 3.39897 161.757 3.46377 161.757C3.78776 161.822 4.30614 161.563 4.37093 162.081C4.43573 162.469 5.2133 162.987 4.30614 163.376C4.11175 163.44 4.17654 163.829 4.56533 163.829C5.0837 163.829 5.53729 163.829 6.05566 163.829C6.18526 163.829 6.31485 163.829 6.37965 163.635C6.37965 163.44 6.37965 163.311 6.18526 163.311ZM2.49181 160.98C2.751 160.332 3.01019 159.749 3.33418 158.972C3.59337 159.685 3.78776 160.268 4.04695 160.98H2.49181Z" fill="#202127"/>
<path d="M74.2877 159.685C75.7133 159.102 76.5556 159.231 77.2036 160.073C77.8516 160.915 77.7868 162.34 77.074 163.181C76.5556 163.829 75.6485 164.088 75.0005 163.829C74.7413 163.7 74.4173 163.57 74.6117 163.181C74.8061 162.793 75.0005 163.052 75.1949 163.181C75.2597 163.246 75.3893 163.311 75.5189 163.311C76.2316 163.311 76.5556 162.858 76.75 162.21C77.0092 161.174 76.6852 160.268 75.9725 160.009C75.3893 159.814 74.8061 160.073 74.4821 160.786C74.1581 161.498 74.3525 162.21 74.2877 162.922C74.2229 163.635 73.7693 164.023 73.1214 163.829C72.9918 163.829 72.8622 163.764 72.8622 163.7C72.7974 163.57 72.8622 163.376 73.0566 163.376C73.6398 163.376 73.5102 162.922 73.5102 162.599C73.5102 161.368 73.5102 160.138 73.5102 158.908C73.5102 158.454 73.7694 157.872 72.9918 157.807C72.7974 157.807 72.7974 157.548 72.9918 157.418C73.575 157.095 74.2877 157.483 74.2877 158.195C74.2877 158.454 74.2877 158.713 74.2877 158.972C74.2877 159.167 74.2877 159.426 74.2877 159.685Z" fill="#202127"/>
<path d="M89.7086 159.62C90.0974 159.49 90.3566 159.361 90.6158 159.296C91.7173 159.037 92.5597 159.555 92.6893 160.721C92.7541 161.304 92.6893 161.886 92.6893 162.404C92.6893 162.728 92.4949 163.246 93.1429 163.311C93.2725 163.311 93.2725 163.505 93.2725 163.57C93.2725 163.7 93.1429 163.7 93.0133 163.7C92.3653 163.829 91.9117 163.505 91.9117 162.858C91.9117 162.21 91.9117 161.563 91.9117 160.915C91.9117 160.397 91.7821 159.944 91.199 159.814C90.6806 159.749 90.1622 160.009 90.0326 160.462C89.7734 161.368 89.3846 162.404 90.227 163.311C90.4214 163.505 90.3566 163.7 90.0974 163.7C89.7734 163.7 89.4494 163.7 89.1254 163.7C88.8662 163.7 88.5422 163.829 88.4127 163.57C88.2183 163.182 88.6718 163.246 88.8662 163.117C89.0606 162.987 88.9958 162.728 88.9958 162.534C88.9958 161.109 88.9958 159.685 88.9958 158.26C88.9958 158.066 88.9958 157.936 88.931 157.742C88.8662 157.483 88.2183 157.742 88.4774 157.224C88.607 157.03 88.931 157.095 89.1902 157.159C89.579 157.159 89.7734 157.483 89.8382 157.872C89.7086 158.519 89.7086 159.037 89.7086 159.62Z" fill="#202127"/>
<path d="M10.2673 162.145C10.3969 162.534 10.0081 163.181 10.7209 163.505C10.9153 163.57 10.7209 163.829 10.4617 163.829C10.0081 163.829 9.61936 163.829 9.16578 163.829C9.03619 163.829 8.8418 163.829 8.8418 163.635C8.8418 163.505 8.90659 163.441 9.10099 163.311C9.61936 162.987 9.68416 160.203 9.10099 159.814C8.97139 159.749 8.8418 159.685 8.8418 159.555C8.8418 159.361 9.03619 159.296 9.16578 159.361C10.0081 159.685 10.7209 159.361 11.4985 159.231C12.4056 159.102 13.0536 159.749 13.1184 160.721C13.1832 161.304 13.1184 161.886 13.1184 162.404C13.1184 162.793 12.924 163.246 13.572 163.311C13.6368 163.311 13.7016 163.505 13.7016 163.57C13.7016 163.764 13.5072 163.764 13.3776 163.764C12.7296 163.829 12.3409 163.57 12.2761 162.858C12.2113 162.21 12.2761 161.563 12.2761 160.915C12.2761 160.397 12.2113 159.944 11.6281 159.879C11.0449 159.749 10.6561 160.073 10.3969 160.527C10.2673 161.045 10.3321 161.563 10.2673 162.145Z" fill="#202127"/>
<path d="M69.8156 163.635C69.7508 163.7 69.6212 163.764 69.5564 163.764C69.1029 163.829 68.7141 163.7 68.4549 163.246C68.4549 161.627 68.2605 161.368 67.0941 161.757C66.5758 161.886 66.2518 162.21 66.4462 162.728C66.6406 163.311 67.0941 163.376 67.5477 163.117C68.0661 162.793 68.1957 162.922 68.1957 163.246C68.1957 163.376 68.1309 163.44 68.1309 163.635C67.8069 163.829 67.4181 163.829 67.0293 163.829C66.2518 163.764 65.6038 163.311 65.6038 162.663C65.539 161.886 65.9926 161.433 66.7054 161.239C67.0941 161.174 67.4181 161.174 67.8069 161.109C68.0661 161.045 68.4549 161.304 68.4549 160.786C68.4549 160.397 68.3901 160.008 68.0013 159.879C67.4829 159.749 66.9645 159.749 66.7054 160.332C66.6406 160.527 66.7054 160.98 66.2518 160.721C65.9278 160.527 65.863 160.203 66.0574 159.879C66.511 159.167 67.2237 159.102 67.9365 159.231C68.5845 159.296 69.1029 159.685 69.1677 160.332C69.2325 161.045 69.2325 161.757 69.2973 162.469C69.2973 162.858 69.1029 163.311 69.7508 163.44C69.8156 163.376 69.8804 163.57 69.8156 163.635Z" fill="#202127"/>
<path d="M48.4347 161.886C48.2403 161.886 48.046 161.886 47.8516 161.886C47.6572 161.886 47.3332 162.145 47.2684 161.692C47.2036 161.304 47.5276 161.239 47.7868 161.239C48.046 161.239 48.2403 161.239 48.4995 161.239C48.7587 161.174 49.2123 161.433 49.2771 161.045C49.3419 160.656 49.2123 160.332 48.8883 160.073C48.7587 159.944 48.5643 159.879 48.4347 159.879C47.7868 159.749 47.3332 160.073 47.074 160.656C46.6852 161.433 46.8796 162.663 47.4628 163.117C48.046 163.505 48.5643 163.441 49.1475 163.052C49.3419 162.922 49.4715 162.404 49.7955 162.793C50.1195 163.182 49.7955 163.505 49.4715 163.7C48.7587 164.218 47.398 164.023 46.75 163.441C46.0372 162.728 45.8429 161.304 46.3612 160.332C46.8148 159.49 47.8516 159.037 48.7587 159.296C49.5363 159.49 50.1843 160.332 50.1195 161.174C50.1195 161.627 49.9251 161.951 49.4067 161.951C49.0827 161.822 48.7587 161.822 48.4347 161.886C48.4347 161.822 48.4347 161.886 48.4347 161.886Z" fill="#202127"/>
<path d="M36.706 163.635C36.706 163.764 36.5764 163.764 36.4468 163.764C35.9932 163.829 35.6044 163.7 35.3453 163.246C35.3453 161.563 35.2157 161.368 33.9845 161.692C33.4661 161.822 33.1422 162.145 33.3365 162.663C33.5309 163.246 33.9845 163.311 34.4381 163.052C34.9565 162.728 35.0861 162.858 35.0861 163.117C35.0861 163.246 35.0213 163.311 35.0213 163.505C34.8269 163.57 34.6325 163.635 34.4381 163.699C33.4013 163.894 32.6238 163.44 32.4942 162.599C32.3646 161.822 32.883 161.239 33.9197 161.045C34.1141 160.98 34.2437 161.045 34.4381 160.98C34.7621 160.85 35.2805 161.304 35.3453 160.656C35.4101 160.267 35.2805 159.814 34.8269 159.685C34.3085 159.555 33.8549 159.62 33.5957 160.203C33.4661 160.462 33.4661 160.85 33.0774 160.527C32.8182 160.332 32.8182 160.008 32.9478 159.749C33.4661 159.037 34.1789 158.972 34.9565 159.102C35.6044 159.167 36.058 159.62 36.1228 160.267C36.1876 160.915 36.1228 161.498 36.1228 162.145C36.1228 162.534 35.9284 163.117 36.6412 163.246C36.6412 163.376 36.706 163.57 36.706 163.635Z" fill="#202127"/>
<path d="M85.2369 163.635C85.2369 163.764 85.1073 163.764 84.9777 163.764C84.5241 163.829 84.1354 163.7 83.8762 163.246C83.8762 161.627 83.7466 161.368 82.5802 161.692C82.0618 161.822 81.7379 162.145 81.9322 162.663C82.1266 163.181 82.5802 163.311 83.0338 163.052C83.5522 162.728 83.6818 162.858 83.6818 163.117C83.6818 163.246 83.617 163.311 83.617 163.505C83.4226 163.57 83.2282 163.635 83.0338 163.699C81.997 163.829 81.2195 163.376 81.0899 162.599C80.9603 161.822 81.4787 161.239 82.5154 161.045C82.7098 160.98 82.8394 161.045 83.0338 160.98C83.3578 160.85 83.8762 161.304 83.941 160.656C84.0058 160.267 83.941 159.879 83.4874 159.749C83.0338 159.62 82.5802 159.62 82.2562 160.073C82.1914 160.138 82.1914 160.203 82.1914 160.203C82.1266 160.397 82.1914 160.85 81.7379 160.591C81.4139 160.397 81.3491 160.073 81.5435 159.749C81.997 159.037 82.7746 158.972 83.5522 159.102C84.2002 159.167 84.6537 159.62 84.7185 160.267C84.7833 160.915 84.7185 161.498 84.7185 162.145C84.7185 162.534 84.5241 163.117 85.2369 163.246C85.2369 163.376 85.3017 163.57 85.2369 163.635Z" fill="#202127"/>
<path d="M2.10156 154.375C2.74954 153.857 3.13832 153.144 3.13832 152.303C3.13832 151.396 3.20312 150.425 3.20312 149.518C3.20312 149.194 3.13832 148.935 2.68474 148.741C3.39751 148.547 3.78629 147.705 4.36947 148.029C5.01744 148.353 4.56386 149.13 4.62866 149.648C4.69345 150.231 4.62866 150.813 4.62866 151.461C4.62866 153.209 4.11028 153.922 2.42555 154.569C2.23116 154.634 2.10156 154.699 2.10156 154.375Z" fill="#202127"/>
<path d="M19.209 159.167C17.8482 159.167 17.0059 160.009 17.0059 161.498C17.0059 162.922 17.8482 163.894 19.209 163.894C20.5049 163.894 21.4121 162.922 21.4121 161.498C21.4121 160.073 20.5697 159.167 19.209 159.167ZM19.209 163.311C18.3018 163.311 17.8482 162.728 17.7834 161.627C17.7834 160.462 18.3018 159.814 19.209 159.814C20.1161 159.814 20.5697 160.397 20.5697 161.498C20.5697 162.663 20.1161 163.311 19.209 163.311Z" fill="#202127"/>
<path d="M28.6701 161.433C28.6701 161.886 28.6701 162.34 28.6701 162.793C28.6701 163.052 28.6701 163.246 28.994 163.311C29.2532 163.311 29.3828 163.44 29.318 163.635C29.2532 163.894 28.9293 163.829 28.7997 163.764C28.0869 163.44 27.3741 163.635 26.6613 163.829C25.6894 164.088 25.0414 163.44 25.0414 162.404C25.0414 161.822 25.0414 161.239 25.0414 160.591C25.0414 160.267 25.1062 159.879 24.5878 159.814C24.3934 159.814 24.3286 159.685 24.3934 159.49C24.3934 159.361 24.523 159.361 24.6526 159.361C25.3654 159.231 25.7542 159.555 25.7542 160.203C25.7542 160.915 25.7542 161.627 25.7542 162.34C25.7542 162.728 25.8838 163.117 26.3374 163.246C26.7909 163.376 27.1797 163.181 27.4389 162.793C28.0221 162.081 27.9573 160.656 27.3741 159.749C27.2445 159.555 27.3093 159.426 27.5037 159.361C28.0869 159.167 28.6053 159.49 28.6053 160.138C28.6701 160.591 28.6701 160.98 28.6701 161.433Z" fill="#202127"/>
<path d="M61.523 160.915C61.523 160.009 61.0694 159.749 60.2918 159.814C60.0326 159.879 59.7734 159.944 59.7086 160.203C59.6438 160.527 59.8382 160.786 60.0974 160.915C60.551 161.109 61.0694 161.304 61.523 161.498C62.0414 161.692 62.4301 162.081 62.3653 162.663C62.3005 163.246 61.9118 163.635 61.3286 163.829C60.551 164.088 59.7734 163.959 59.1255 163.505C58.8015 163.246 58.7367 162.922 58.9959 162.663C59.3199 162.34 59.4495 162.728 59.6438 162.922C59.8382 163.182 60.0974 163.311 60.4214 163.311C60.8102 163.311 61.2638 163.376 61.4582 162.858C61.6526 162.34 61.199 162.21 60.8102 162.016C60.3566 161.822 59.903 161.692 59.5142 161.433C58.7367 160.98 58.6719 160.009 59.5142 159.49C60.1622 159.037 60.9398 159.037 61.6526 159.361C62.3005 159.685 62.3005 160.332 61.523 160.915Z" fill="#202127"/>
<path d="M40.204 161.692C40.204 161.174 40.204 160.786 40.204 160.397C40.204 160.203 40.204 160.008 40.0744 159.944C39.9448 159.814 39.4264 159.879 39.6856 159.49C39.8152 159.231 40.2688 159.296 40.4632 159.426C40.852 159.749 41.1112 159.555 41.4999 159.361C42.2127 159.037 43.0551 159.49 42.9903 160.203C42.9903 160.527 42.8607 160.786 42.5367 160.786C42.2127 160.786 42.2127 160.591 42.2775 160.332C42.2775 160.138 42.2775 160.008 42.0183 159.944C41.7591 159.879 41.5647 159.944 41.3703 160.138C41.0464 160.462 40.9168 160.915 40.9816 161.304C41.1112 162.016 40.528 162.922 41.4351 163.505C41.5647 163.57 41.4999 163.829 41.2407 163.829C40.9168 163.829 40.528 163.829 40.204 163.829C40.0096 163.829 39.6856 163.959 39.6208 163.699C39.4912 163.376 39.9448 163.44 40.0096 163.311C40.3984 162.728 40.0744 162.145 40.204 161.692Z" fill="#202127"/>
<path d="M82.9701 124.782C82.2573 124.782 81.6094 124.134 81.6094 123.422C81.6094 122.645 82.1926 121.997 82.9701 121.997C83.6829 121.997 84.3309 122.645 84.3309 123.357C84.3957 124.069 83.7477 124.782 82.9701 124.782Z" fill="#202127"/>
<path d="M25.6238 138.445C25.6238 139.222 24.9759 139.87 24.1983 139.805C23.4855 139.805 22.9023 139.157 22.9023 138.38C22.9023 137.603 23.4855 137.021 24.2631 137.021C24.9759 137.021 25.6238 137.668 25.6238 138.445Z" fill="#202127"/>
<path d="M54.4587 160.203C54.4587 160.915 54.3939 161.692 54.4587 162.404C54.5235 163.181 54.7179 163.311 55.3659 162.793C55.5603 162.663 55.6899 162.663 55.8195 162.793C56.0787 163.052 55.9491 163.311 55.7547 163.505C55.4307 163.829 54.9771 163.894 54.5883 163.764C54.07 163.635 53.8108 163.246 53.8108 162.793C53.746 162.081 53.8108 161.368 53.746 160.656C53.746 160.008 53.746 159.361 53.746 158.713C53.746 158.325 53.9404 157.807 53.2276 157.742C53.0332 157.742 52.9684 157.418 53.2276 157.354C53.746 157.095 54.4587 157.483 54.4587 158.131C54.4587 158.778 54.4587 159.49 54.4587 160.203Z" fill="#202127"/>
<path d="M31.2624 143.82C31.2624 143.82 31.0033 143.82 30.8089 143.82C30.5497 143.885 30.3553 143.755 30.5497 143.496C30.8089 143.107 30.8737 142.848 30.8089 142.395C30.7441 141.877 31.5216 141.424 32.04 141.553C32.4288 141.683 32.6232 141.942 32.5584 142.33C32.4288 142.848 32.1696 142.525 31.9752 142.395C31.7808 142.33 31.5216 142.395 31.5216 142.654C31.5216 142.848 31.716 142.848 31.9104 142.913C32.2344 142.978 32.7528 142.654 32.688 143.302C32.6232 143.885 32.1696 143.949 31.716 143.82C31.6512 143.755 31.5216 143.82 31.2624 143.82Z" fill="#202127"/>
<path d="M20.0523 146.086C19.6635 146.021 19.4043 145.827 19.4043 145.374C19.4043 144.921 19.6635 144.662 20.0523 144.662C20.5059 144.662 20.765 144.921 20.765 145.374C20.765 145.762 20.5059 146.021 20.0523 146.086Z" fill="#202127"/>
<path d="M50.5077 145.957C50.4429 146.345 50.2485 146.669 49.7949 146.669C49.4062 146.669 49.0822 146.345 49.147 145.957C49.147 145.503 49.471 145.18 49.9245 145.244C50.3133 145.18 50.5077 145.503 50.5077 145.957Z" fill="#202127"/>
<path d="M76.2968 153.144C76.7503 153.209 76.9447 153.468 76.9447 153.857C76.9447 154.31 76.6855 154.569 76.232 154.569C75.7784 154.569 75.584 154.245 75.584 153.857C75.584 153.404 75.8432 153.144 76.2968 153.144Z" fill="#202127"/>
<path d="M48.6267 145.892C48.5619 146.151 48.9507 146.669 48.3027 146.669C47.914 146.669 47.59 146.345 47.6548 145.892C47.6548 145.503 47.914 145.18 48.3675 145.18C48.8859 145.18 48.5619 145.633 48.6267 145.892Z" fill="#202127"/>
<path d="M78.0464 153.209C78.2408 153.274 78.5 153.468 78.5 153.922C78.5 154.31 78.2408 154.569 77.8521 154.569C77.1393 154.504 77.6577 153.986 77.5281 153.663C77.3337 153.404 77.3985 153.08 78.0464 153.209Z" fill="#202127"/>
</svg>
