<svg width="28" height="22" viewBox="0 0 28 22" fill="none" xmlns="http://www.w3.org/2000/svg">
<g clip-path="url(#clip0)">
<path d="M26.1455 0.6875H1.77051C1.25195 0.6875 0.833008 1.10645 0.833008 1.625V20.375C0.833008 20.8936 1.25195 21.3125 1.77051 21.3125H26.1455C26.6641 21.3125 27.083 20.8936 27.083 20.375V1.625C27.083 1.10645 26.6641 0.6875 26.1455 0.6875ZM24.9736 3.93359V19.2031H2.94238V3.93359L2.13379 3.30371L3.28516 1.82422L4.53906 2.7998H23.3799L24.6338 1.82422L25.7852 3.30371L24.9736 3.93359ZM23.3799 2.79688L13.958 10.1211L4.53613 2.79688L3.28223 1.82129L2.13086 3.30078L2.93945 3.93066L12.9473 11.7119C13.2351 11.9355 13.5892 12.0569 13.9536 12.0569C14.3181 12.0569 14.6722 11.9355 14.96 11.7119L24.9736 3.93359L25.7822 3.30371L24.6309 1.82422L23.3799 2.79688Z" fill="#16A5BB"/>
</g>
<defs>
<clipPath id="clip0">
<rect width="27" height="22" fill="white" transform="translate(0.833008)"/>
</clipPath>
</defs>
</svg>
