<svg width="27" height="32" viewBox="0 0 27 32" fill="none" xmlns="http://www.w3.org/2000/svg">
<g clip-path="url(#clip0)">
<path d="M13.6663 19.1667C17.1592 19.1667 19.9997 16.3262 19.9997 12.8333C19.9997 9.3405 17.1592 6.5 13.6663 6.5C10.1735 6.5 7.33301 9.3405 7.33301 12.8333C7.33301 16.3262 10.1735 19.1667 13.6663 19.1667ZM13.6663 9.66667C15.4128 9.66667 16.833 11.0869 16.833 12.8333C16.833 14.5798 15.4128 16 13.6663 16C11.9199 16 10.4997 14.5798 10.4997 12.8333C10.4997 11.0869 11.9199 9.66667 13.6663 9.66667Z" fill="#16A5BB"/>
<path d="M12.415 31.5387C12.683 31.73 13.004 31.8329 13.3333 31.8329C13.6626 31.8329 13.9837 31.73 14.2516 31.5387C14.733 31.1983 26.0459 23.0298 26 12.8332C26 5.84909 20.3174 0.166504 13.3333 0.166504C6.34923 0.166504 0.666643 5.84909 0.666643 12.8253C0.620727 23.0298 11.9336 31.1983 12.415 31.5387ZM13.3333 3.33317C18.5726 3.33317 22.8333 7.59392 22.8333 12.8411C22.8666 19.8679 15.8856 26.1775 13.3333 28.2469C10.7826 26.1759 3.80006 19.8648 3.83331 12.8332C3.83331 7.59392 8.09406 3.33317 13.3333 3.33317Z" fill="#16A5BB"/>
</g>
<defs>
<clipPath id="clip0">
<rect width="26" height="32" fill="white" transform="translate(0.666504)"/>
</clipPath>
</defs>
</svg>
