<svg width="40" height="40" viewBox="0 0 40 40" fill="none" xmlns="http://www.w3.org/2000/svg">
<g opacity="0.5">
<g clip-path="url(#clip0)">
<path d="M20.0051 15.5078C17.4497 15.5078 15.3886 17.5117 15.3886 19.9961C15.3886 22.4805 17.4497 24.4844 20.0051 24.4844C22.5604 24.4844 24.6216 22.4805 24.6216 19.9961C24.6216 17.5117 22.5604 15.5078 20.0051 15.5078ZM20.0051 22.9141C18.3537 22.9141 17.0037 21.6055 17.0037 19.9961C17.0037 18.3867 18.3497 17.0781 20.0051 17.0781C21.6604 17.0781 23.0064 18.3867 23.0064 19.9961C23.0064 21.6055 21.6564 22.9141 20.0051 22.9141ZM25.8872 15.3242C25.8872 15.9062 25.4051 16.3711 24.8104 16.3711C24.2118 16.3711 23.7337 15.9023 23.7337 15.3242C23.7337 14.7461 24.2158 14.2773 24.8104 14.2773C25.4051 14.2773 25.8872 14.7461 25.8872 15.3242ZM28.9448 16.3867C28.8765 14.9844 28.547 13.7422 27.4904 12.7187C26.4377 11.6953 25.16 11.375 23.7176 11.3047C22.231 11.2227 17.7752 11.2227 16.2886 11.3047C14.8502 11.3711 13.5725 11.6914 12.5158 12.7148C11.4591 13.7383 11.1336 14.9805 11.0613 16.3828C10.977 17.8281 10.977 22.1602 11.0613 23.6055C11.1296 25.0078 11.4591 26.25 12.5158 27.2734C13.5725 28.2969 14.8462 28.6172 16.2886 28.6875C17.7752 28.7695 22.231 28.7695 23.7176 28.6875C25.16 28.6211 26.4377 28.3008 27.4904 27.2734C28.543 26.25 28.8725 25.0078 28.9448 23.6055C29.0292 22.1602 29.0292 17.832 28.9448 16.3867ZM27.0243 25.1562C26.7109 25.9219 26.1042 26.5117 25.3127 26.8203C24.1274 27.2773 21.3149 27.1719 20.0051 27.1719C18.6953 27.1719 15.8787 27.2734 14.6975 26.8203C13.91 26.5156 13.3033 25.9258 12.9859 25.1562C12.5158 24.0039 12.6243 21.2695 12.6243 19.9961C12.6243 18.7227 12.5198 15.9844 12.9859 14.8359C13.2993 14.0703 13.906 13.4805 14.6975 13.1719C15.8828 12.7148 18.6953 12.8203 20.0051 12.8203C21.3149 12.8203 24.1314 12.7187 25.3127 13.1719C26.1002 13.4766 26.7069 14.0664 27.0243 14.8359C27.4944 15.9883 27.3859 18.7227 27.3859 19.9961C27.3859 21.2695 27.4944 24.0078 27.0243 25.1562Z" fill="#202127"/>
</g>
</g>
<defs>
<clipPath id="clip0">
<rect width="18" height="20" fill="white" transform="translate(11 10)"/>
</clipPath>
</defs>
</svg>
