<svg width="40" height="40" viewBox="0 0 40 40" fill="none" xmlns="http://www.w3.org/2000/svg">
<g opacity="0.5">
<g clip-path="url(#clip0)">
<path d="M30.8703 14.4171C30.6139 13.4657 29.8583 12.7164 28.899 12.4621C27.1602 12 20.1877 12 20.1877 12C20.1877 12 13.2152 12 11.4763 12.4621C10.517 12.7164 9.76142 13.4657 9.50498 14.4171C9.03906 16.1417 9.03906 19.7397 9.03906 19.7397C9.03906 19.7397 9.03906 23.3378 9.50498 25.0624C9.76142 26.0138 10.517 26.7319 11.4763 26.9862C13.2152 27.4483 20.1877 27.4483 20.1877 27.4483C20.1877 27.4483 27.1601 27.4483 28.899 26.9862C29.8583 26.7319 30.6139 26.0138 30.8703 25.0624C31.3362 23.3378 31.3362 19.7397 31.3362 19.7397C31.3362 19.7397 31.3362 16.1417 30.8703 14.4171ZM17.9072 23.0065V16.473L23.7349 19.7398L17.9072 23.0065Z" fill="#202127"/>
</g>
</g>
<defs>
<clipPath id="clip0">
<rect width="22.3734" height="15.4483" fill="white" transform="translate(9 12)"/>
</clipPath>
</defs>
</svg>
