<svg width="40" height="40" viewBox="0 0 40 40" fill="none" xmlns="http://www.w3.org/2000/svg">
<path d="M17.6095 3.15264C18.81 1.56944 21.19 1.56945 22.3905 3.15265L24.2972 5.66719C24.9522 6.53104 26.0223 6.97429 27.0963 6.82662L30.2225 6.39678C32.1909 6.12615 33.8739 7.80911 33.6032 9.77746L33.1734 12.9037C33.0257 13.9777 33.469 15.0478 34.3328 15.7028L36.8474 17.6095C38.4306 18.81 38.4306 21.19 36.8474 22.3905L34.3328 24.2971C33.469 24.9522 33.0257 26.0223 33.1734 27.0963L33.6032 30.2225C33.8739 32.1909 32.1909 33.8739 30.2225 33.6032L27.0963 33.1734C26.0223 33.0257 24.9522 33.469 24.2971 34.3328L22.3905 36.8474C21.19 38.4306 18.81 38.4306 17.6095 36.8474L15.7028 34.3328C15.0478 33.469 13.9777 33.0257 12.9037 33.1734L9.77746 33.6032C7.80911 33.8739 6.12615 32.1909 6.39678 30.2225L6.82662 27.0963C6.97429 26.0223 6.53103 24.9522 5.66718 24.2971L3.15264 22.3905C1.56944 21.19 1.56945 18.81 3.15265 17.6095L5.66719 15.7028C6.53104 15.0478 6.97429 13.9777 6.82662 12.9037L6.39678 9.77746C6.12615 7.80911 7.80911 6.12615 9.77746 6.39678L12.9037 6.82662C13.9777 6.97429 15.0478 6.53103 15.7028 5.66718L17.6095 3.15264Z" fill="#13ED91"/>
<path d="M13.5996 20.15L17.0663 24L26.3996 15.2" stroke="white" stroke-width="2" stroke-linecap="round" stroke-linejoin="round"/>
</svg>
