<svg width="38" height="38" viewBox="0 0 38 38" fill="none" xmlns="http://www.w3.org/2000/svg">
<rect width="38" height="38" rx="19" fill="white" fill-opacity="0.1"/>
<path d="M15.5625 21.75C18.0305 21.75 20.0312 19.7493 20.0312 17.2812C20.0312 14.8132 18.0305 12.8125 15.5625 12.8125C13.0945 12.8125 11.0938 14.8132 11.0938 17.2812C11.0938 19.7493 13.0945 21.75 15.5625 21.75Z" stroke="#FFBA0B" stroke-width="1.3" stroke-miterlimit="10"/>
<path d="M21.3555 12.979C21.9701 12.8058 22.6147 12.7663 23.2459 12.8633C23.8771 12.9602 24.4801 13.1913 25.0145 13.5409C25.5489 13.8905 26.0021 14.3506 26.3436 14.8901C26.6852 15.4297 26.9072 16.0362 26.9947 16.6687C27.0821 17.3013 27.033 17.9452 26.8506 18.5572C26.6682 19.1692 26.3568 19.735 25.9374 20.2164C25.5179 20.6979 25.0001 21.0839 24.4189 21.3485C23.8377 21.613 23.2066 21.7499 22.568 21.75" stroke="#FFBA0B" stroke-width="1.3" stroke-linecap="round" stroke-linejoin="round"/>
<path d="M9.375 24.9638C10.0729 23.971 10.9995 23.1608 12.0764 22.6014C13.1533 22.0421 14.349 21.75 15.5626 21.75C16.7761 21.75 17.9718 22.0419 19.0488 22.6012C20.1258 23.1604 21.0524 23.9706 21.7504 24.9633" stroke="#FFBA0B" stroke-width="1.3" stroke-linecap="round" stroke-linejoin="round"/>
<path d="M22.5684 21.75C23.782 21.7491 24.978 22.0407 26.0551 22.6C27.1321 23.1594 28.0585 23.97 28.7559 24.9633" stroke="#FFBA0B" stroke-width="1.3" stroke-linecap="round" stroke-linejoin="round"/>
</svg>
