<svg width="40" height="40" viewBox="0 0 40 40" fill="none" xmlns="http://www.w3.org/2000/svg">
<g opacity="0.5">
<g clip-path="url(#clip0)">
<path d="M20.0041 15.5083C17.4487 15.5083 15.3876 17.5122 15.3876 19.9966C15.3876 22.481 17.4487 24.4849 20.0041 24.4849C22.5595 24.4849 24.6206 22.481 24.6206 19.9966C24.6206 17.5122 22.5595 15.5083 20.0041 15.5083ZM20.0041 22.9145C18.3528 22.9145 17.0028 21.606 17.0028 19.9966C17.0028 18.3872 18.3487 17.0786 20.0041 17.0786C21.6595 17.0786 23.0054 18.3872 23.0054 19.9966C23.0054 21.606 21.6554 22.9145 20.0041 22.9145ZM25.8862 15.3247C25.8862 15.9067 25.4041 16.3716 24.8095 16.3716C24.2108 16.3716 23.7327 15.9028 23.7327 15.3247C23.7327 14.7466 24.2148 14.2778 24.8095 14.2778C25.4041 14.2778 25.8862 14.7466 25.8862 15.3247ZM28.9438 16.3872C28.8755 14.9849 28.5461 13.7427 27.4894 12.7192C26.4367 11.6958 25.159 11.3755 23.7166 11.3052C22.23 11.2231 17.7742 11.2231 16.2876 11.3052C14.8492 11.3716 13.5715 11.6919 12.5148 12.7153C11.4581 13.7388 11.1327 14.981 11.0604 16.3833C10.976 17.8286 10.976 22.1606 11.0604 23.606C11.1287 25.0083 11.4581 26.2505 12.5148 27.2739C13.5715 28.2974 14.8452 28.6177 16.2876 28.688C17.7742 28.77 22.23 28.77 23.7166 28.688C25.159 28.6216 26.4367 28.3013 27.4894 27.2739C28.5421 26.2505 28.8715 25.0083 28.9438 23.606C29.0282 22.1606 29.0282 17.8325 28.9438 16.3872ZM27.0233 25.1567C26.7099 25.9224 26.1032 26.5122 25.3117 26.8208C24.1264 27.2778 21.3139 27.1724 20.0041 27.1724C18.6943 27.1724 15.8778 27.2739 14.6965 26.8208C13.909 26.5161 13.3023 25.9263 12.9849 25.1567C12.5148 24.0044 12.6233 21.27 12.6233 19.9966C12.6233 18.7231 12.5188 15.9849 12.9849 14.8364C13.2983 14.0708 13.905 13.481 14.6965 13.1724C15.8818 12.7153 18.6943 12.8208 20.0041 12.8208C21.3139 12.8208 24.1304 12.7192 25.3117 13.1724C26.0992 13.4771 26.7059 14.0669 27.0233 14.8364C27.4934 15.9888 27.3849 18.7231 27.3849 19.9966C27.3849 21.27 27.4934 24.0083 27.0233 25.1567Z" fill="white"/>
</g>
</g>
<defs>
<clipPath id="clip0">
<rect width="18" height="20" fill="white" transform="translate(11 10.0005)"/>
</clipPath>
</defs>
</svg>
