<svg width="230" height="120" viewBox="0 0 230 120" fill="none" xmlns="http://www.w3.org/2000/svg">
<g filter="url(#filter0_d)">
<path d="M61.9506 50.8375C65.5162 52.0178 68.8941 53.4467 72.1468 55.1861C75.9001 57.2362 79.4656 59.5969 82.5308 62.5789C82.8435 62.8895 83.0937 63.2622 83.1563 63.7592C83.344 64.8774 83.7193 65.9957 84.032 67.1139C84.2197 67.673 84.0321 68.0458 83.4691 68.2321C81.4048 69.1019 79.278 69.164 77.1511 69.1019C71.2085 68.9155 65.6413 67.1139 60.0114 65.3123C54.4442 63.5107 48.6892 62.4546 42.8092 62.2682C40.6823 62.2061 38.5555 62.3304 36.4912 62.7031C36.0534 62.7652 35.8031 62.641 35.5529 62.3304C34.2393 60.9636 32.9257 59.5969 31.6121 58.2302C30.4861 57.0498 30.4861 55.8074 31.6121 54.627C32.8631 53.3845 34.0516 52.0799 35.3027 50.8375C35.8657 50.2784 36.0534 49.595 35.8031 48.8495C35.3653 47.1722 34.9274 45.4948 34.4895 43.8796C34.0516 42.078 34.6146 41.084 36.4287 40.587C37.4921 40.2764 38.5555 40.0279 39.6189 39.7173C40.1193 39.5309 40.5572 39.7173 40.9326 39.9658C41.1828 40.0901 41.2453 40.4007 41.1828 40.587C41.1202 40.8977 40.87 40.587 40.6823 40.6492C40.6198 40.6492 40.5572 40.6492 40.4947 40.6492C39.2436 40.9598 39.1185 42.078 38.7432 43.0099C38.493 43.6932 38.6181 44.3766 39.3687 44.8115C39.9317 45.1842 40.5572 45.4327 41.1828 45.6812C41.6832 45.8676 41.8709 46.1161 41.9334 46.6752C42.1836 49.595 42.3713 52.5769 42.6841 55.4968C42.8092 56.6771 43.4347 57.4847 44.373 58.106C45.6866 58.9757 46.6875 58.4787 46.8126 56.9256C46.9377 55.0619 47.0628 53.1361 47.1879 51.2723C47.313 48.9738 47.5007 46.7373 48.439 44.6251C48.6892 44.0039 48.9394 43.8175 49.565 44.066C51.942 44.9978 54.319 45.8676 56.6961 46.7373C57.1965 46.9237 57.3842 47.2343 57.3842 47.6692C57.4467 48.4146 57.5093 49.1601 57.5718 49.8435C57.6969 51.086 58.385 51.9557 59.4485 52.5769C60.7621 53.3845 61.7004 52.8876 61.888 51.3966C61.888 51.2723 61.9506 51.086 61.9506 50.8375Z" fill="#FFBA0B"/>
<path d="M87.7703 57.8096C81.7026 50.7896 73.8834 46.5031 65.1259 43.5211C65.3761 43.2105 65.5638 42.8999 65.7514 42.6514C66.2519 41.8438 66.0642 41.0983 65.251 40.6634C64.0625 40.0422 62.874 39.9801 61.6854 40.7255C60.9348 41.1604 60.2467 41.7816 59.5586 42.3408C59.2458 42.5893 58.9956 42.6514 58.6203 42.465C56.3058 41.2225 53.9288 39.9801 51.6143 38.7997C51.1139 38.5512 51.1764 38.3027 51.3015 37.8678C52.2398 35.445 54.0539 33.5813 55.7428 31.7176C56.9939 30.413 58.1824 29.0463 59.371 27.6795C59.6837 27.3068 59.9339 27.3689 60.3093 27.4932C60.9973 27.8038 61.3727 28.425 61.8731 28.922C62.874 29.916 63.8123 30.91 64.8131 31.9661C65.3761 32.5873 66.0642 32.7116 66.8774 32.4631C68.5038 32.0282 70.1302 31.5933 71.7566 31.0963C73.4455 30.6615 74.5089 31.2206 74.9468 32.8979C75.3847 34.5753 75.8226 36.2526 76.2605 37.9921C76.4481 38.7997 76.9485 39.2967 77.8243 39.5452C79.4507 39.9801 81.1396 40.4149 82.766 40.8498C84.2673 41.2847 84.9554 42.3408 84.5801 43.8317C84.2048 45.4469 83.7669 47.0622 83.329 48.6774C83.0163 49.7956 83.2039 50.6653 84.0797 51.473C85.3307 52.5912 86.4567 53.8337 87.5827 55.0761C88.3959 55.8837 88.4584 56.8156 87.7703 57.8096Z" fill="#FFBA0B"/>
<path d="M45.4838 34.7618C45.2336 34.6375 45.171 34.5754 45.0459 34.5133C43.6072 33.8299 43.4821 32.7117 44.5455 31.5935C44.8583 31.2829 45.171 31.345 45.4838 31.4692C46.1094 31.7799 46.7974 32.0283 47.423 32.4011C47.8608 32.6496 48.1736 32.5875 48.5489 32.2768C50.8009 30.4753 52.9902 28.7358 55.2422 26.9342C56.0554 26.2508 56.9311 25.7538 58.1196 26.1266C59.058 26.4372 59.1831 26.7478 58.5575 27.4933C56.5558 29.7298 54.5541 31.842 52.6149 34.0784C51.5515 35.2588 50.9885 36.8119 50.363 38.2407C50.2379 38.5513 50.3004 38.7998 50.6132 38.9862C53.303 40.5393 56.1179 41.906 58.8703 43.3349C59.2456 43.5212 59.4958 43.397 59.746 43.1485C60.4341 42.5894 61.1222 42.0303 61.8729 41.4712C62.6861 40.8499 63.6244 40.7878 64.6252 41.1605C65.3759 41.4712 65.501 41.7818 65.0005 42.403C64.3125 43.2728 63.5618 44.1425 62.8737 45.0122C62.4984 45.385 62.4984 45.6956 62.9988 46.0062C63.3116 46.1926 63.6244 46.4411 63.8746 46.7517C64.1248 47.0002 64.5627 47.1866 64.375 47.6214C64.1874 48.1184 63.6869 47.8699 63.3116 47.8699C62.8737 47.8699 62.4984 47.8078 62.0605 47.6835C61.6227 47.5593 61.5601 47.7457 61.4975 48.1184C61.3724 49.2988 61.1848 50.4791 61.0597 51.5973C60.9346 52.4049 60.6218 52.5913 59.8712 52.1565C58.8077 51.5973 58.3073 50.6655 58.1822 49.4851C58.1197 48.7396 58.0571 47.932 57.9945 47.1866C57.9945 46.7517 57.8069 46.5032 57.369 46.3168C54.5541 45.1986 51.7392 44.1425 48.8617 43.1485C48.3613 42.9621 48.2362 43.1485 47.986 43.5212C46.5472 46.2547 46.3596 49.2988 46.2345 52.2807C46.1719 53.8338 46.0468 55.449 45.9217 57.0021C45.8591 57.7476 45.5464 57.934 44.8583 57.5612C44.1076 57.1264 43.4821 56.5051 43.357 55.5111C42.9817 52.6534 42.794 49.7957 42.6063 46.9381C42.5438 45.882 42.4187 45.0743 41.1676 44.888C40.9799 44.888 40.7923 44.7637 40.6672 44.6395C39.1659 43.9561 39.1033 43.7697 39.7914 42.3409C40.2919 41.409 40.3544 41.3469 41.3553 41.7818C41.5429 41.8439 41.7931 42.1545 42.0434 41.906C42.231 41.7197 42.1059 41.409 42.0434 41.2227C41.9808 39.9802 41.3553 39.1726 40.0417 38.7998C38.5404 38.365 37.1642 37.6195 35.7254 36.9982C34.4744 36.4391 33.5986 35.5073 33.0356 34.3269C32.6603 33.5814 32.7854 33.3329 33.5986 33.0844C34.9122 32.7738 36.1633 32.836 37.4144 33.3951C39.0408 34.1406 40.6046 34.8239 42.1685 35.6315C42.8566 36.0043 43.357 36.0043 43.9825 35.5694C44.483 35.3209 44.9208 35.0724 45.4838 34.7618Z" fill="white"/>
<path d="M41.1676 71.1665C47.2353 71.1665 52.9902 72.5954 58.7452 74.3969C62.6861 75.6394 66.6269 76.7576 70.6929 77.1304C72.0691 77.2546 73.4453 77.441 74.8215 77.3789C75.5096 77.3789 75.7598 77.5653 75.5096 78.2486C75.2594 78.9941 75.1342 79.7396 74.9466 80.4851C74.5713 81.976 73.4453 82.5973 71.944 82.2245C70.3176 81.7897 68.6287 81.3548 67.0023 80.8578C66.1265 80.6093 65.4384 80.7957 64.8754 81.4169C63.6869 82.6594 62.4984 83.8398 61.3099 85.0822C60.1214 86.2626 58.8703 86.3247 57.7443 85.1444C56.4932 83.9019 55.3047 82.6594 54.0536 81.3548C53.4907 80.7957 52.8651 80.6093 52.1145 80.8578C50.4255 81.3548 48.7991 81.7897 47.1102 82.2245C45.5463 82.6594 44.4829 82.0382 44.045 80.4851C43.6072 78.7456 43.1067 77.0683 42.7314 75.3288C42.5437 74.5212 42.0433 74.0242 41.1676 73.8378C39.5412 73.403 37.9773 72.9681 36.4135 72.5332C36.2884 72.4711 36.1633 72.4711 36.0382 72.409C35.7879 72.3469 35.4126 72.2847 35.4752 71.912C35.4752 71.5392 35.8505 71.5393 36.1007 71.5393C37.3518 71.415 38.6029 71.2908 39.9165 71.2286C40.2293 71.1665 40.7297 71.1665 41.1676 71.1665Z" fill="#FFBA0B"/>
<path d="M76.1354 74.6454C70.7558 74.6454 65.5638 73.5272 60.497 71.912C55.7429 70.421 50.9888 69.1785 46.0471 68.6815C41.9185 68.2467 37.8525 68.433 33.7865 69.1785C33.161 69.3028 32.5355 69.3028 31.9099 69.4891C31.2218 69.6134 31.1593 69.3649 31.2218 68.8058C31.3469 67.8118 31.9725 67.1906 32.9108 66.8799C34.4746 66.383 36.0385 66.0723 37.6649 65.886C45.359 64.892 52.8029 66.2587 60.1216 68.6194C64.1876 69.924 68.3162 71.2907 72.5698 71.912C76.3231 72.409 80.1388 72.9681 83.8921 72.0362C85.3308 71.6635 86.5819 71.1044 87.6453 70.1104C89.0215 68.8679 89.2717 67.3148 88.7712 65.6375C88.0832 63.2146 86.5819 61.2888 84.8304 59.5493C80.7644 55.4492 75.9477 52.5293 70.7558 50.0444C69.1294 49.2989 67.503 48.6155 65.814 47.9943C65.4387 47.8701 65.1885 47.7458 65.1259 47.3109C65.0634 46.8761 64.6255 46.6276 64.3127 46.317C64.1251 46.0685 63.4995 46.0063 63.9374 45.5094C64.3127 45.0745 64.4379 44.329 65.3136 44.7017C66.7523 45.2609 68.1911 45.6957 69.5673 46.317C75.4473 48.8019 80.8269 51.9702 85.3308 56.5674C87.6453 58.866 89.647 61.413 90.4602 64.6435C91.336 67.8118 90.3351 70.2968 87.5202 72.1605C84.2674 74.2727 80.7018 74.956 76.886 74.956C76.6358 74.6454 76.3856 74.6454 76.1354 74.6454Z" fill="white"/>
<path d="M88.2083 66.9418C88.2083 67.0039 88.2083 67.1281 88.2083 67.2524C88.0831 67.7494 88.1457 68.4949 87.5827 68.557C87.0197 68.6812 87.0823 67.8736 86.9572 67.5009C85.7687 64.8917 83.892 62.8416 81.7652 60.9779C76.3231 56.2565 70.0051 52.9639 63.2493 50.6032C62.2485 50.2305 62.0608 49.8577 62.4361 48.8016C62.4987 48.5531 62.6238 48.4289 62.9366 48.491C63.5621 48.6152 64.2502 48.6774 64.8757 48.3046C65.0634 48.1804 65.251 48.3046 65.4387 48.3668C72.4447 51.0381 79.0129 54.4549 84.3299 59.7975C86.0189 61.4749 87.5202 63.3386 88.1457 65.7614C88.2082 66.1963 88.2083 66.5069 88.2083 66.9418Z" fill="white"/>
<path d="M154.237 38.3647C154.432 38.2353 154.561 38.1706 154.626 38.0412C155.014 37.5236 154.95 36.8766 154.626 36.359C154.432 35.9708 154.043 35.9061 153.655 36.1002C152.813 36.6178 151.971 37.2001 151.13 37.7177C152.036 37.7177 152.036 38.3647 152.036 38.8822V47.3577C152.036 48.9752 152.036 48.9752 150.418 48.9752C149.9 48.9752 149.382 48.9752 148.864 48.9105C148.929 48.3929 148.993 47.94 148.993 47.4224C149.382 43.9287 146.663 41.6643 143.296 42.57C142.39 42.8288 141.548 43.217 140.771 43.7346C140.059 44.1875 139.476 44.7698 138.764 45.4168C138.764 44.9639 138.764 44.5757 138.7 44.2522C138.57 43.6052 138.052 43.2817 137.47 43.6052C136.628 44.1228 135.851 44.7051 135.009 45.2227C135.851 45.2227 135.851 45.7403 135.851 46.3226C135.851 46.646 135.851 47.0342 135.851 47.3577C135.851 48.9105 135.851 48.9105 134.232 48.9105C133.585 48.9105 133.456 48.7164 133.52 48.1341C133.585 46.9695 133.585 45.805 133.52 44.6404C133.52 43.7346 132.938 43.4111 132.161 43.864C131.384 44.3169 130.607 44.8345 129.895 45.3521C130.542 45.4815 130.736 45.805 130.736 46.3872C130.736 47.0342 130.672 47.6812 130.736 48.3282C130.736 48.7811 130.542 48.9105 130.154 48.9105C129.118 48.9105 128.017 48.8458 126.982 48.9105C126.334 48.9752 126.14 48.7811 126.14 48.1341C126.205 44.5757 126.14 41.082 126.14 37.5236C126.14 37.2648 126.14 37.006 126.14 36.7472C126.01 35.9708 125.492 35.712 124.845 36.1002C124.003 36.6178 123.227 37.1354 122.126 37.8471C123.356 37.653 123.291 38.2353 123.291 38.8175C123.291 42.8935 123.291 46.9695 123.291 51.0455C123.291 51.6278 123.421 51.8219 124.003 51.8219C125.881 51.7572 127.694 51.7572 129.571 51.8219C130.413 51.8219 131.19 51.7572 131.708 50.9808C131.902 50.722 132.096 50.5926 132.29 51.0455C132.614 51.6925 133.197 51.8866 133.844 51.8219C134.491 51.7572 135.204 51.6925 135.786 51.8219C136.434 51.9513 136.498 50.9808 137.081 51.369C137.534 51.6278 137.987 51.8219 138.57 51.8219C142.843 51.8219 147.051 51.8219 151.324 51.8219C152.166 51.8219 154.561 49.6869 154.691 48.9105C154.691 48.8458 154.691 48.7164 154.691 48.6517C154.691 45.4168 154.691 42.1819 154.691 38.8822C154.82 38.6235 154.755 38.3647 154.237 38.3647ZM145.044 48.9752H142.39C141.419 48.9752 140.512 48.9752 139.541 48.9752C139.282 48.9752 138.894 49.1693 138.829 48.7811C138.764 48.4576 138.635 48.0047 138.959 47.7459C140.253 46.5813 141.613 45.4815 143.361 45.0933C144.979 44.7051 146.015 45.4815 146.145 47.1636C146.145 47.4224 146.145 47.6165 146.145 47.8753C146.145 48.9752 146.145 48.9752 145.044 48.9752Z" fill="white"/>
<path d="M191.982 44.5755C191.982 43.7991 191.335 43.4756 190.687 43.9285C189.91 44.3814 189.133 44.9637 188.292 45.4813C188.551 45.7401 189.069 45.546 189.133 45.9989C189.263 46.9693 189.457 48.0045 189.069 48.8456C188.81 49.2985 187.774 48.975 187.062 48.975C186.932 48.975 186.803 48.975 186.609 48.975C185.896 48.9103 184.99 49.2985 184.602 48.8456C184.278 48.4574 184.472 47.5516 184.472 46.8399C184.407 43.4109 184.861 44.4461 182.336 41.8582C181.947 41.47 181.624 41.4053 181.106 41.5347C178.71 42.117 177.092 43.9285 176.703 46.3871C176.444 48.0045 176.639 49.622 176.574 51.2394C176.509 51.8217 176.768 51.9511 177.286 51.9511C178.516 51.8864 179.681 51.9511 180.911 51.9511C181.429 51.9511 181.624 52.0805 181.559 52.5981C181.3 54.4096 180.652 55.8977 178.969 56.8682C178.969 57.1917 179.163 57.0623 179.293 57.0623C182.077 56.6094 183.76 55.0566 184.343 52.404C184.472 51.9511 184.666 51.9511 184.99 51.9511C186.155 51.9511 187.385 51.9511 188.616 51.9511C189.392 51.9511 191.917 49.7514 191.982 48.975C191.982 47.4869 191.982 45.9989 191.982 44.5755ZM181.17 48.975C179.552 49.1691 179.487 49.1044 179.487 47.4869C179.487 45.7401 180.199 44.5755 181.559 44.0579C181.559 45.546 181.559 47.0987 181.559 48.5868C181.559 48.9103 181.429 48.9103 181.17 48.975Z" fill="white"/>
<path d="M194.831 68.5136C193.989 69.2253 191.853 69.3547 191.076 68.643C190.817 68.4489 190.687 68.5783 190.558 68.7077C189.846 69.0959 189.198 69.4841 188.551 68.643C188.421 68.4489 188.227 68.643 188.098 68.7077C186.867 69.29 185.702 69.29 184.472 68.7724C184.343 68.7077 184.278 68.643 184.213 68.7724C183.76 69.29 183.113 69.0959 182.53 69.0959C179.875 69.0959 177.286 69.0959 174.631 69.0959C173.984 69.0959 173.725 68.9665 173.79 68.2549C173.855 66.5727 173.855 64.8905 173.79 63.2084C173.79 62.8202 173.984 62.3673 173.531 62.0438C173.337 61.9144 173.531 61.785 173.66 61.7203C173.855 61.5909 174.049 61.4615 174.243 61.3321C175.02 60.8792 175.279 60.9439 175.279 61.8497C175.279 63.5319 175.279 65.1493 175.279 66.8315C175.279 67.4138 175.473 67.6079 176.056 67.6079C178.322 67.5432 180.588 67.6079 182.854 67.6079C183.177 67.6079 183.63 67.802 183.76 67.4138C183.889 66.9609 183.954 66.4433 183.63 66.0551C183.501 65.861 183.371 65.861 183.63 65.7316L183.695 65.6669C184.148 65.4728 184.472 64.8905 184.925 65.0846C185.443 65.3434 185.119 65.9257 185.184 66.3786C185.249 66.5727 185.184 66.8315 185.184 67.0903C185.184 67.2844 185.055 67.6079 185.378 67.6726C185.637 67.7373 185.961 67.802 186.091 67.6079C186.22 67.4138 186.22 67.0903 186.091 66.8962C185.961 66.7668 185.702 66.6374 186.026 66.508C186.479 66.3139 186.738 65.7963 187.321 65.861C187.644 65.9257 187.644 66.1845 187.644 66.4433C187.644 66.7021 187.644 67.0256 187.644 67.2844C187.644 67.6726 187.839 67.6726 188.162 67.6726C188.421 67.6726 188.615 67.5432 188.551 67.2844C188.551 66.9609 188.68 66.4433 188.486 66.3139C188.162 66.0551 188.292 65.9257 188.551 65.7963C189.004 65.6022 189.263 65.0199 189.781 65.2787C190.299 65.5375 189.975 66.1845 190.04 66.6374C190.169 67.0256 189.587 67.7373 190.622 67.7373C190.881 67.7373 191.011 67.6079 191.011 67.4138C190.946 66.8315 191.205 66.1845 190.881 65.6669C190.752 65.4081 190.881 65.3434 191.011 65.2787C191.399 65.0846 191.723 64.6317 192.176 64.6964C192.435 64.6964 192.5 64.9552 192.5 65.214C192.5 65.861 192.565 66.508 192.5 67.155C192.435 67.802 192.888 67.7373 193.277 67.7373C193.665 67.7373 194.054 67.8667 194.054 67.155C193.989 65.6669 194.183 64.1789 193.989 62.6908C193.859 61.8497 194.118 61.6556 194.636 61.3321C195.219 60.9439 195.478 61.2027 195.478 61.8497C195.478 63.5319 195.543 65.2787 195.478 66.9609C195.478 67.7373 195.866 67.6726 196.384 67.6726C196.902 67.6726 197.226 67.6079 197.161 66.9609C197.097 65.5375 197.355 64.0495 197.097 62.6261C196.902 61.7203 197.42 61.5909 197.873 61.3321C198.327 61.0086 198.65 61.2027 198.715 61.7203C198.715 63.6613 198.78 65.6669 198.715 67.6079C198.715 68.2549 198.003 68.5783 197.55 68.9665C196.838 69.3547 195.284 69.0312 194.831 68.5136Z" fill="white"/>
<path d="M109.631 44.0576C110.861 43.2812 112.156 42.5048 113.386 41.7932C114.098 41.405 114.551 41.8579 114.875 42.4401C115.846 44.187 116.882 45.8045 118.242 47.2278C119.083 48.1336 119.99 48.9747 121.479 48.9747C121.09 49.7511 120.766 50.4627 120.378 51.1744C120.054 51.7567 119.472 51.8861 118.824 51.8861C117.011 51.8861 115.199 51.7567 113.451 52.0155C113.062 52.0802 112.739 52.1449 112.35 52.2743C110.796 52.7919 110.214 54.0211 110.796 55.5739C111.12 56.415 111.767 57.1267 112.415 58.0324C110.926 57.3855 109.76 56.7385 108.919 55.5739C107.689 53.827 107.948 51.8214 109.696 50.4627C111.12 49.3629 112.739 49.0394 114.487 48.9747C115.069 48.9747 115.587 48.9747 116.299 48.9747C114.94 47.616 113.839 46.2573 112.998 44.7046C112.803 44.3811 112.544 44.2517 112.156 44.2517C111.314 44.2517 110.473 44.2517 109.566 44.2517C109.631 44.1223 109.631 44.1223 109.631 44.0576Z" fill="white"/>
<path d="M135.269 65.796C135.204 65.3431 135.528 64.6962 135.01 64.5021C134.427 64.308 134.104 64.9549 133.586 65.149C133.521 65.2137 133.327 65.2137 133.456 65.3431C134.104 65.8607 133.586 66.5077 133.78 67.1547C133.845 67.4782 133.65 67.6076 133.327 67.6076C133.003 67.6076 132.809 67.5429 132.809 67.1547C132.809 66.8959 132.809 66.5724 132.809 66.3136C132.744 65.9254 133.003 65.3431 132.55 65.149C132.097 64.8902 131.773 65.4078 131.449 65.6019C131.19 65.7313 130.996 65.796 131.255 66.1842C131.449 66.443 131.32 66.9606 131.32 67.3488C131.32 67.6723 130.996 67.6076 130.802 67.6076C130.608 67.6076 130.413 67.6076 130.413 67.2841C130.413 67.0253 130.413 66.8312 130.413 66.5724C130.413 66.2489 130.478 65.8607 130.025 65.7313C129.895 65.7313 128.601 66.5077 128.601 66.6371C128.601 66.7018 128.73 66.7018 128.795 66.7665C129.054 66.9606 129.054 67.2194 128.924 67.4782C128.73 67.737 128.406 67.6076 128.147 67.6076C127.759 67.6076 127.888 67.2841 127.888 67.09C127.888 66.5724 127.888 65.9901 127.888 65.4725C127.888 64.8902 126.853 63.7257 126.335 63.7904C125.364 63.8551 124.587 64.4374 124.133 65.2784C123.745 65.9901 123.421 66.8312 124.392 67.6723C120.832 67.6723 117.465 67.6723 114.099 67.6723C113.387 67.6723 113.192 67.4782 113.192 66.7665C113.257 65.149 113.257 63.5316 113.192 61.9141C113.192 61.1377 112.933 61.0084 112.286 61.3965C111.897 61.6553 111.185 61.7847 111.768 62.5611C111.833 62.6905 111.768 62.8846 111.768 63.0787C111.768 64.8255 111.833 66.6371 111.768 68.384C111.768 69.0956 111.962 69.225 112.61 69.225C117.336 69.225 122.127 69.225 126.853 69.225C127.5 69.225 128.147 69.4191 128.73 68.8368C128.86 68.7074 128.989 68.7074 129.119 68.9015C129.701 69.4838 130.284 69.2897 130.867 68.9662C131.061 68.8368 131.19 68.578 131.514 68.8368C132.097 69.3544 133.327 69.3544 133.974 68.9015C134.945 67.9958 135.528 67.1547 135.269 65.796ZM126.335 66.3136C126.335 66.5724 126.335 66.8959 126.335 67.1547C126.335 67.4135 126.205 67.6076 125.946 67.5429C125.623 67.5429 125.234 67.6723 125.169 67.2194C125.04 66.5077 125.169 65.796 125.687 65.2784C125.817 65.149 126.011 64.9549 126.205 65.0196C126.464 65.0843 126.335 65.3431 126.335 65.5372C126.335 65.796 126.335 66.0548 126.335 66.3136Z" fill="white"/>
<path d="M197.68 53.4393C195.22 53.7628 194.054 52.7277 194.054 50.2691C194.054 46.4519 194.054 42.6347 194.054 38.8175C194.054 38.2352 193.989 37.7177 192.954 37.8471C193.989 37.1354 194.766 36.6178 195.608 36.1002C196.191 35.7767 196.773 36.0355 196.903 36.6825C196.968 36.8766 196.903 37.006 196.903 37.2001C196.903 41.4702 196.903 45.6755 196.903 49.9456C196.903 51.1749 196.903 52.3395 197.68 53.4393Z" fill="white"/>
<path d="M170.618 37.7172C171.33 37.2643 172.042 36.8114 172.754 36.3585C173.078 36.1644 173.402 35.8409 173.855 36.0997C174.308 36.3585 174.308 36.7467 174.308 37.1996C174.308 41.5344 174.308 45.8692 174.308 50.204C174.308 51.3038 174.373 52.4037 175.02 53.3742C172.884 53.8918 171.459 52.7919 171.459 50.5921C171.459 46.7102 171.459 42.8284 171.459 39.0112C171.459 38.3642 171.524 37.7819 170.618 37.7172Z" fill="white"/>
<path d="M160.583 53.439C158.058 53.6978 156.957 52.7921 156.957 50.3982C156.957 46.581 156.957 42.7638 156.957 38.9466C156.957 38.3643 157.022 37.7174 156.051 37.7821C156.828 37.2645 157.605 36.7469 158.381 36.2293C159.094 35.7764 159.612 36.0352 159.741 36.8763C159.806 37.0704 159.741 37.3292 159.741 37.588C159.741 41.8581 159.676 46.0634 159.676 50.3335C159.741 51.3687 159.87 52.4039 160.583 53.439Z" fill="white"/>
<path d="M172.042 67.3493C171.524 66.9611 171.136 66.573 170.747 66.1201C170.359 65.5378 169.97 64.9555 169.582 64.3085C169.388 63.985 169.193 63.6615 168.805 63.9203C168.158 64.3085 167.575 64.6967 166.863 65.0849C167.51 65.3437 168.222 64.8908 168.611 65.4084C169.064 66.1201 169.582 66.7671 170.229 67.5434H157.929C157.67 67.5434 157.475 67.4787 157.475 67.1552C157.54 65.926 157.152 64.5673 158.252 63.4674C157.281 63.338 156.698 63.7909 156.31 64.4379C155.922 65.0849 155.404 65.279 154.756 65.279C154.433 65.279 154.109 65.279 153.785 65.279C153.138 65.3437 152.749 65.6672 152.555 66.2495C152.296 66.8318 152.555 67.2199 153.008 67.5434C153.202 67.7375 153.397 67.9316 153.591 68.1257C154.95 69.4844 155.08 69.4844 156.116 67.8022V67.7375C156.828 68.708 157.734 68.9021 158.9 68.9021C162.914 68.8374 166.863 68.9021 170.877 68.9021H171.459C172.236 68.9021 172.43 68.2551 172.625 67.7375C172.884 67.3493 172.236 67.5434 172.042 67.3493ZM156.116 67.9316C155.145 68.1904 154.821 67.2199 154.109 66.7671C154.821 66.573 155.404 66.5083 155.857 66.1201C156.116 66.7024 155.727 67.3493 156.116 67.9316C156.181 67.8669 156.116 67.8669 156.116 67.9316Z" fill="white"/>
<path d="M163.885 56.8687C165.763 55.7688 166.475 53.9573 166.54 51.9516C166.604 50.1401 166.54 48.3932 166.54 46.5816C166.54 45.9994 166.475 45.5465 165.698 45.4818C166.54 44.9642 167.381 44.3819 168.223 43.8643C168.741 43.5408 169.388 43.929 169.388 44.576C169.388 47.2286 169.518 49.946 169.323 52.5986C169.194 54.863 166.993 56.6099 164.274 57.0628C164.079 57.0628 163.885 57.1922 163.885 56.8687Z" fill="white"/>
<path d="M136.434 69.8726C135.852 68.1905 136.305 66.6377 137.729 65.3438C136.952 64.9556 137.146 64.2439 137.082 63.5969C137.082 63.2087 137.341 62.7558 136.823 62.497C136.693 62.4323 136.758 62.3676 136.758 62.3029C136.823 62.2382 136.823 62.2382 136.887 62.1735C137.341 61.9794 137.729 61.3325 138.182 61.5266C138.765 61.7207 138.441 62.4323 138.506 62.8852C138.571 63.4028 138.506 63.9204 138.506 64.438C138.506 64.6968 138.441 65.0203 138.894 65.0203C139.283 65.0203 139.542 64.8909 139.412 64.5027C139.283 63.6616 139.607 62.8205 139.218 61.9794C139.089 61.656 139.866 61.4619 140.189 61.2031C140.383 61.0737 140.642 61.009 140.772 61.2031C140.966 61.5266 141.031 61.85 140.707 62.1088C140.513 62.3029 140.124 62.4323 140.772 62.5617C140.837 62.5617 140.901 62.6911 140.901 62.7558C140.901 63.9204 140.901 65.0203 140.901 66.1848C140.901 66.5083 140.578 66.4436 140.383 66.4436C139.866 66.5083 139.283 66.5083 138.765 66.5083C138.377 66.573 138.053 66.7671 137.859 67.0906C137.729 67.3494 137.664 67.6082 138.118 67.5435C138.959 67.3494 139.93 67.9317 140.707 67.22C140.837 67.0906 140.901 67.2847 140.901 67.3494C141.031 67.6082 141.225 67.8023 141.355 68.0611C141.743 68.7728 141.614 68.9669 140.837 68.9669C140.124 68.9669 139.412 68.9669 138.7 68.9669C137.859 69.0316 137.082 69.161 136.434 69.8726Z" fill="white"/>
<path d="M149.123 65.7316C149.188 64.7611 148.476 64.2435 147.828 63.8553C147.31 63.5319 146.728 64.0494 146.21 64.3729C145.692 64.7611 145.433 65.2787 145.239 65.861C144.98 66.7668 145.109 67.7372 145.044 68.643C145.044 68.8371 145.109 69.0312 145.368 69.0312C146.08 68.9665 146.857 69.2253 147.569 68.7077C147.634 69.8723 147.246 70.8428 146.339 71.6191C148.152 71.3603 149.058 70.3899 149.058 68.7724C149.123 67.7372 149.058 66.7021 149.123 65.7316ZM147.699 66.4433C147.505 66.8315 148.152 67.6725 146.987 67.5432C146.792 67.5432 146.663 67.4785 146.663 67.2197C146.663 66.5727 146.598 65.9904 147.051 65.4728C147.181 65.3434 147.31 65.1493 147.505 65.1493C147.764 65.214 147.634 65.4728 147.699 65.6669C147.699 65.9257 147.699 66.1845 147.699 66.4433Z" fill="white"/>
<path d="M144.463 69.8077C143.103 69.8724 142.65 69.4842 142.585 68.3196C142.585 66.5081 142.585 64.7612 142.585 62.9497C142.585 62.6909 142.844 62.238 142.326 62.1086C142.197 62.0439 142.261 61.9145 142.326 61.8498C142.391 61.8498 142.391 61.7851 142.456 61.7851C142.909 61.591 143.233 60.944 143.815 61.2028C144.333 61.4616 144.074 62.1086 144.074 62.5615C144.074 64.4377 144.009 66.3787 144.009 68.2549C144.074 68.7078 144.074 69.2901 144.463 69.8077Z" fill="white"/>
<path d="M193.406 35.5824C193.406 35.5177 193.406 35.453 193.406 35.453C193.665 34.4825 194.507 33.7708 194.183 32.4769C193.924 31.4417 195.931 30.6006 196.967 31.2476C197.55 31.6358 197.679 32.2181 197.42 32.8004C197.291 33.1239 197.161 33.4473 196.773 32.9298C196.579 32.671 196.32 32.671 195.996 32.671C195.607 32.671 195.348 32.8651 195.348 33.1886C195.348 33.512 195.607 33.7061 195.931 33.7061C196.384 33.7061 196.773 33.7061 197.226 33.7061C197.873 33.7708 198.068 34.0296 197.744 34.6766C197.614 34.9354 197.485 35.1942 197.291 35.3883C197.226 35.5177 197.161 35.7118 196.967 35.6471C195.802 35.1295 194.572 35.5177 193.406 35.5824Z" fill="white"/>
<path d="M112.222 80.2884C111.704 80.2237 111.639 79.8355 111.509 79.4473C110.991 78.0887 110.538 76.6653 110.02 75.3066C109.826 74.789 109.502 74.4009 108.92 74.4656C108.726 74.5302 108.402 74.6596 108.596 74.9184C108.984 75.3066 108.726 75.6948 108.596 76.0183C108.078 77.1829 107.56 78.2828 107.042 79.4473C106.848 79.8355 106.654 80.159 106.848 80.6119C106.978 80.8707 107.236 81.0001 107.625 80.8707C107.949 80.7413 107.884 80.6119 107.819 80.2884C107.625 79.2532 108.143 78.7356 109.243 78.7356C109.308 78.7356 109.438 78.7356 109.502 78.7356C109.826 78.8003 110.344 78.5415 110.409 79.0591C110.474 79.4473 111.25 79.9649 110.344 80.3531C110.15 80.4178 110.215 80.806 110.603 80.806C111.121 80.806 111.574 80.806 112.092 80.806C112.222 80.806 112.351 80.806 112.416 80.6119C112.416 80.4178 112.416 80.2884 112.222 80.2884ZM108.531 77.9593C108.79 77.3123 109.049 76.73 109.373 75.9536C109.632 76.6653 109.826 77.2476 110.085 77.9593H108.531Z" fill="white"/>
<path d="M180.264 76.6664C181.688 76.0841 182.53 76.2135 183.177 77.0546C183.825 77.8957 183.76 79.319 183.048 80.1601C182.53 80.8071 181.624 81.0659 180.976 80.8071C180.717 80.6777 180.393 80.5483 180.588 80.1601C180.782 79.7719 180.976 80.0307 181.17 80.1601C181.235 80.2248 181.365 80.2895 181.494 80.2895C182.206 80.2895 182.53 79.8366 182.724 79.1896C182.983 78.1544 182.659 77.2487 181.947 76.9899C181.365 76.7958 180.782 77.0546 180.458 77.7663C180.135 78.4779 180.329 79.1896 180.264 79.9013C180.199 80.613 179.746 81.0012 179.099 80.8071C178.969 80.8071 178.84 80.7424 178.84 80.6777C178.775 80.5483 178.84 80.3542 179.034 80.3542C179.617 80.3542 179.487 79.9013 179.487 79.5778C179.487 78.3485 179.487 77.1193 179.487 75.89C179.487 75.4371 179.746 74.8548 178.969 74.7901C178.775 74.7901 178.775 74.5313 178.969 74.4019C179.552 74.0785 180.264 74.4666 180.264 75.1783C180.264 75.4371 180.264 75.6959 180.264 75.9547C180.264 76.1488 180.264 76.4076 180.264 76.6664Z" fill="white"/>
<path d="M195.672 76.6009C196.06 76.4715 196.319 76.3421 196.578 76.2774C197.679 76.0186 198.52 76.5362 198.65 77.7007C198.715 78.283 198.65 78.8653 198.65 79.3829C198.65 79.7064 198.456 80.224 199.103 80.2887C199.233 80.2887 199.233 80.4828 199.233 80.5475C199.233 80.6769 199.103 80.6769 198.974 80.6769C198.326 80.8063 197.873 80.4828 197.873 79.8358C197.873 79.1888 197.873 78.5418 197.873 77.8948C197.873 77.3773 197.743 76.9244 197.161 76.795C196.643 76.7303 196.125 76.9891 195.995 77.442C195.737 78.3477 195.348 79.3829 196.19 80.2887C196.384 80.4828 196.319 80.6769 196.06 80.6769C195.737 80.6769 195.413 80.6769 195.089 80.6769C194.83 80.6769 194.506 80.8063 194.377 80.5475C194.183 80.1593 194.636 80.224 194.83 80.0946C195.024 79.9652 194.96 79.7064 194.96 79.5123C194.96 78.0889 194.96 76.6656 194.96 75.2422C194.96 75.0481 194.96 74.9187 194.895 74.7246C194.83 74.4658 194.183 74.7246 194.442 74.207C194.571 74.0129 194.895 74.0776 195.154 74.1423C195.542 74.1423 195.737 74.4658 195.801 74.854C195.672 75.501 195.672 76.0186 195.672 76.6009Z" fill="white"/>
<path d="M116.3 79.1242C116.43 79.5123 116.041 80.1593 116.753 80.4828C116.948 80.5475 116.753 80.8063 116.494 80.8063C116.041 80.8063 115.653 80.8063 115.2 80.8063C115.07 80.8063 114.876 80.8063 114.876 80.6122C114.876 80.4828 114.941 80.4181 115.135 80.2887C115.653 79.9652 115.718 77.1832 115.135 76.795C115.005 76.7303 114.876 76.6656 114.876 76.5362C114.876 76.3421 115.07 76.2774 115.2 76.3421C116.041 76.6656 116.753 76.3421 117.53 76.2127C118.437 76.0833 119.084 76.7303 119.149 77.7008C119.214 78.2831 119.149 78.8654 119.149 79.3829C119.149 79.7711 118.955 80.224 119.602 80.2887C119.667 80.2887 119.732 80.4828 119.732 80.5475C119.732 80.7416 119.537 80.7416 119.408 80.7416C118.76 80.8063 118.372 80.5475 118.307 79.8358C118.242 79.1889 118.307 78.5419 118.307 77.8949C118.307 77.3773 118.242 76.9244 117.66 76.8597C117.077 76.7303 116.689 77.0538 116.43 77.5067C116.3 78.0243 116.365 78.5419 116.3 79.1242Z" fill="white"/>
<path d="M175.797 80.6123C175.732 80.677 175.603 80.7417 175.538 80.7417C175.085 80.8064 174.696 80.677 174.437 80.2241C174.437 78.6066 174.243 78.3478 173.078 78.736C172.56 78.8654 172.236 79.1889 172.43 79.7065C172.625 80.2888 173.078 80.3535 173.531 80.0947C174.049 79.7712 174.178 79.9006 174.178 80.2241C174.178 80.3535 174.114 80.4182 174.114 80.6123C173.79 80.8064 173.401 80.8064 173.013 80.8064C172.236 80.7417 171.589 80.2888 171.589 79.6418C171.524 78.8654 171.977 78.4125 172.689 78.2184C173.078 78.1537 173.401 78.1537 173.79 78.089C174.049 78.0243 174.437 78.2831 174.437 77.7656C174.437 77.3774 174.373 76.9892 173.984 76.8598C173.466 76.7304 172.948 76.7304 172.689 77.3127C172.625 77.5068 172.689 77.9597 172.236 77.7009C171.912 77.5068 171.848 77.1833 172.042 76.8598C172.495 76.1481 173.207 76.0834 173.919 76.2128C174.567 76.2775 175.085 76.6657 175.149 77.3127C175.214 78.0243 175.214 78.736 175.279 79.4477C175.279 79.8359 175.085 80.2888 175.732 80.4182C175.797 80.3535 175.862 80.5476 175.797 80.6123Z" fill="white"/>
<path d="M154.432 78.8657C154.238 78.8657 154.044 78.8657 153.85 78.8657C153.655 78.8657 153.332 79.1245 153.267 78.6716C153.202 78.2834 153.526 78.2187 153.785 78.2187C154.044 78.2187 154.238 78.2187 154.497 78.2187C154.756 78.154 155.209 78.4128 155.274 78.0246C155.339 77.6364 155.209 77.3129 154.885 77.0541C154.756 76.9247 154.562 76.86 154.432 76.86C153.785 76.7306 153.332 77.0541 153.073 77.6364C152.684 78.4128 152.878 79.6421 153.461 80.0949C154.044 80.4831 154.562 80.4184 155.144 80.0302C155.339 79.9008 155.468 79.3833 155.792 79.7714C156.115 80.1596 155.792 80.4831 155.468 80.6772C154.756 81.1948 153.396 81.0007 152.749 80.4184C152.037 79.7068 151.843 78.2834 152.36 77.3129C152.814 76.4718 153.85 76.0189 154.756 76.2777C155.533 76.4718 156.18 77.3129 156.115 78.154C156.115 78.6069 155.921 78.9304 155.403 78.9304C155.08 78.801 154.756 78.801 154.432 78.8657C154.432 78.8657 154.432 78.801 154.432 78.8657Z" fill="white"/>
<path d="M142.714 80.6128C142.714 80.7422 142.585 80.7422 142.455 80.7422C142.002 80.8069 141.613 80.6775 141.354 80.2246C141.354 78.5424 141.225 78.3483 139.995 78.6718C139.477 78.8012 139.153 79.1247 139.348 79.6423C139.542 80.2246 139.995 80.2893 140.448 80.0305C140.966 79.707 141.096 79.8364 141.096 80.0952C141.096 80.2246 141.031 80.2893 141.031 80.4834C140.837 80.5481 140.642 80.6128 140.448 80.6775C139.412 80.8716 138.635 80.4187 138.506 79.5776C138.376 78.8012 138.894 78.2189 139.93 78.0248C140.124 77.9601 140.254 78.0248 140.448 77.9601C140.772 77.8307 141.29 78.2836 141.354 77.6367C141.419 77.2485 141.29 76.7956 140.837 76.6662C140.319 76.5368 139.865 76.6015 139.606 77.1838C139.477 77.4426 139.477 77.8308 139.089 77.5073C138.83 77.3132 138.83 76.9897 138.959 76.7309C139.477 76.0192 140.189 75.9545 140.966 76.0839C141.613 76.1486 142.067 76.6015 142.131 77.2485C142.196 77.8954 142.131 78.4777 142.131 79.1247C142.131 79.5129 141.937 80.0952 142.649 80.2246C142.649 80.354 142.714 80.5481 142.714 80.6128Z" fill="white"/>
<path d="M191.204 80.6128C191.204 80.7422 191.075 80.7422 190.945 80.7422C190.492 80.8069 190.104 80.6775 189.845 80.2246C189.845 78.6071 189.715 78.3483 188.55 78.6718C188.032 78.8012 187.708 79.1247 187.903 79.6423C188.097 80.1599 188.55 80.2893 189.003 80.0305C189.521 79.707 189.651 79.8364 189.651 80.0952C189.651 80.2246 189.586 80.2893 189.586 80.4834C189.392 80.5481 189.197 80.6128 189.003 80.6775C187.967 80.8069 187.191 80.354 187.061 79.5776C186.932 78.8012 187.449 78.2189 188.485 78.0248C188.68 77.9601 188.809 78.0248 189.003 77.9601C189.327 77.8307 189.845 78.2836 189.91 77.6367C189.974 77.2485 189.91 76.8603 189.456 76.7309C189.003 76.6015 188.55 76.6015 188.226 77.0544C188.162 77.1191 188.162 77.1838 188.162 77.1838C188.097 77.3779 188.162 77.8307 187.708 77.572C187.385 77.3779 187.32 77.0544 187.514 76.7309C187.967 76.0192 188.744 75.9545 189.521 76.0839C190.169 76.1486 190.622 76.6015 190.687 77.2485C190.751 77.8954 190.687 78.4777 190.687 79.1247C190.687 79.5129 190.492 80.0952 191.204 80.2246C191.204 80.354 191.269 80.5481 191.204 80.6128Z" fill="white"/>
<path d="M108.143 71.361C108.79 70.8434 109.178 70.1317 109.178 69.2906C109.178 68.3848 109.243 67.4144 109.243 66.5086C109.243 66.1851 109.178 65.9263 108.725 65.7322C109.437 65.5381 109.826 64.697 110.409 65.0205C111.056 65.344 110.603 66.1204 110.667 66.638C110.732 67.2203 110.667 67.8026 110.667 68.4495C110.667 70.1964 110.15 70.9081 108.466 71.5551C108.272 71.6198 108.143 71.6845 108.143 71.361Z" fill="white"/>
<path d="M125.234 76.1484C123.875 76.1484 123.033 76.9895 123.033 78.4776C123.033 79.9009 123.875 80.8714 125.234 80.8714C126.529 80.8714 127.436 79.9009 127.436 78.4776C127.436 77.0542 126.594 76.1484 125.234 76.1484ZM125.234 80.2891C124.328 80.2891 123.875 79.7068 123.81 78.607C123.81 77.4424 124.328 76.7954 125.234 76.7954C126.141 76.7954 126.594 77.3777 126.594 78.4776C126.594 79.6421 126.141 80.2891 125.234 80.2891Z" fill="white"/>
<path d="M134.687 78.4124C134.687 78.8653 134.687 79.3182 134.687 79.7711C134.687 80.0299 134.687 80.224 135.011 80.2887C135.269 80.2887 135.399 80.4181 135.334 80.6122C135.269 80.871 134.946 80.8063 134.816 80.7416C134.104 80.4181 133.392 80.6122 132.68 80.8063C131.709 81.065 131.061 80.4181 131.061 79.3829C131.061 78.8006 131.061 78.2183 131.061 77.5713C131.061 77.2479 131.126 76.8597 130.608 76.795C130.414 76.795 130.349 76.6656 130.414 76.4715C130.414 76.3421 130.543 76.3421 130.673 76.3421C131.385 76.2127 131.773 76.5362 131.773 77.1832C131.773 77.8948 131.773 78.6065 131.773 79.3182C131.773 79.7064 131.903 80.0946 132.356 80.224C132.809 80.3534 133.198 80.1593 133.457 79.7711C134.039 79.0594 133.975 77.636 133.392 76.7303C133.263 76.5362 133.327 76.4068 133.521 76.3421C134.104 76.148 134.622 76.4715 134.622 77.1185C134.687 77.5713 134.687 77.9595 134.687 78.4124Z" fill="white"/>
<path d="M167.51 77.8955C167.51 76.9897 167.057 76.7309 166.28 76.7956C166.021 76.8603 165.762 76.925 165.697 77.1838C165.632 77.5073 165.827 77.7661 166.086 77.8955C166.539 78.0896 167.057 78.2837 167.51 78.4778C168.028 78.6719 168.416 79.0601 168.352 79.6424C168.287 80.2246 167.898 80.6128 167.316 80.8069C166.539 81.0657 165.762 80.9363 165.114 80.4834C164.791 80.2246 164.726 79.9011 164.985 79.6424C165.309 79.3189 165.438 79.7071 165.632 79.9011C165.827 80.1599 166.086 80.2893 166.409 80.2893C166.798 80.2893 167.251 80.354 167.445 79.8365C167.639 79.3189 167.186 79.1895 166.798 78.9954C166.345 78.8013 165.891 78.6719 165.503 78.4131C164.726 77.9602 164.661 76.9897 165.503 76.4721C166.15 76.0192 166.927 76.0192 167.639 76.3427C168.287 76.6662 168.287 77.3132 167.51 77.8955Z" fill="white"/>
<path d="M146.21 78.6713C146.21 78.1537 146.21 77.7655 146.21 77.3774C146.21 77.1833 146.21 76.9892 146.081 76.9245C145.951 76.7951 145.433 76.8598 145.692 76.4716C145.822 76.2128 146.275 76.2775 146.469 76.4069C146.858 76.7304 147.117 76.5363 147.505 76.3422C148.217 76.0187 149.059 76.4716 148.994 77.1833C148.994 77.5068 148.865 77.7655 148.541 77.7655C148.217 77.7655 148.217 77.5714 148.282 77.3127C148.282 77.1186 148.282 76.9892 148.023 76.9245C147.764 76.8598 147.57 76.9245 147.376 77.1186C147.052 77.442 146.922 77.8949 146.987 78.2831C147.117 78.9948 146.534 79.9006 147.44 80.4829C147.57 80.5476 147.505 80.8064 147.246 80.8064C146.922 80.8064 146.534 80.8064 146.21 80.8064C146.016 80.8064 145.692 80.9358 145.628 80.677C145.498 80.3535 145.951 80.4182 146.016 80.2888C146.405 79.7065 146.081 79.1242 146.21 78.6713Z" fill="white"/>
<path d="M188.939 41.7933C188.227 41.7933 187.58 41.1463 187.58 40.4346C187.58 39.6582 188.162 39.0112 188.939 39.0112C189.651 39.0112 190.299 39.6582 190.299 40.3699C190.363 41.0816 189.716 41.7933 188.939 41.7933Z" fill="white"/>
<path d="M131.643 55.4448C131.643 56.2212 130.996 56.8682 130.219 56.8035C129.507 56.8035 128.924 56.1565 128.924 55.3801C128.924 54.6038 129.507 54.0215 130.284 54.0215C130.996 54.0215 131.643 54.6685 131.643 55.4448Z" fill="white"/>
<path d="M160.454 77.1832C160.454 77.8948 160.389 78.6712 160.454 79.3829C160.518 80.1593 160.713 80.2887 161.36 79.7711C161.554 79.6417 161.684 79.6417 161.813 79.7711C162.072 80.0299 161.943 80.2887 161.748 80.4828C161.425 80.8063 160.972 80.871 160.583 80.7416C160.065 80.6122 159.806 80.224 159.806 79.7711C159.741 79.0594 159.806 78.3477 159.741 77.636C159.741 76.9891 159.741 76.3421 159.741 75.6951C159.741 75.3069 159.936 74.7893 159.224 74.7246C159.029 74.7246 158.965 74.4011 159.224 74.3364C159.741 74.0776 160.454 74.4658 160.454 75.1128C160.454 75.7598 160.454 76.4715 160.454 77.1832Z" fill="white"/>
<path d="M137.276 60.8151C137.276 60.8151 137.017 60.8151 136.823 60.8151C136.564 60.8798 136.37 60.7504 136.564 60.4916C136.823 60.1034 136.887 59.8446 136.823 59.3917C136.758 58.8741 137.535 58.4213 138.053 58.5507C138.441 58.6801 138.635 58.9388 138.571 59.327C138.441 59.8446 138.182 59.5211 137.988 59.3917C137.794 59.327 137.535 59.3917 137.535 59.6505C137.535 59.8446 137.729 59.8446 137.923 59.9093C138.247 59.974 138.765 59.6505 138.7 60.2975C138.635 60.8798 138.182 60.9445 137.729 60.8151C137.664 60.7504 137.535 60.8151 137.276 60.8151Z" fill="white"/>
<path d="M126.076 63.0791C125.687 63.0144 125.428 62.8203 125.428 62.3674C125.428 61.9146 125.687 61.6558 126.076 61.6558C126.529 61.6558 126.788 61.9146 126.788 62.3674C126.788 62.7556 126.529 63.0144 126.076 63.0791Z" fill="white"/>
<path d="M156.504 62.9499C156.439 63.3381 156.245 63.6616 155.791 63.6616C155.403 63.6616 155.079 63.3381 155.144 62.9499C155.144 62.497 155.468 62.1735 155.921 62.2382C156.309 62.1735 156.504 62.497 156.504 62.9499Z" fill="white"/>
<path d="M182.271 70.1313C182.724 70.196 182.918 70.4548 182.918 70.843C182.918 71.2959 182.659 71.5547 182.206 71.5547C181.753 71.5547 181.559 71.2312 181.559 70.843C181.559 70.3901 181.818 70.1313 182.271 70.1313Z" fill="white"/>
<path d="M154.626 62.885C154.562 63.1438 154.95 63.6614 154.303 63.6614C153.914 63.6614 153.591 63.3379 153.655 62.885C153.655 62.4968 153.914 62.1733 154.367 62.1733C154.885 62.1733 154.562 62.6262 154.626 62.885Z" fill="white"/>
<path d="M184.019 70.1955C184.213 70.2602 184.472 70.4543 184.472 70.9072C184.472 71.2953 184.213 71.5541 183.824 71.5541C183.112 71.4894 183.63 70.9719 183.501 70.6484C183.306 70.3896 183.371 70.0661 184.019 70.1955Z" fill="white"/>
</g>
<defs>
<filter id="filter0_d" x="0.767578" y="-0.000976562" width="228.465" height="120" filterUnits="userSpaceOnUse" color-interpolation-filters="sRGB">
<feFlood flood-opacity="0" result="BackgroundImageFix"/>
<feColorMatrix in="SourceAlpha" type="matrix" values="0 0 0 0 0 0 0 0 0 0 0 0 0 0 0 0 0 0 127 0"/>
<feOffset dy="4"/>
<feGaussianBlur stdDeviation="15"/>
<feColorMatrix type="matrix" values="0 0 0 0 0 0 0 0 0 0 0 0 0 0 0 0 0 0 0.1 0"/>
<feBlend mode="normal" in2="BackgroundImageFix" result="effect1_dropShadow"/>
<feBlend mode="normal" in="SourceGraphic" in2="effect1_dropShadow" result="shape"/>
</filter>
</defs>
</svg>
