<svg width="40" height="40" viewBox="0 0 40 40" fill="none" xmlns="http://www.w3.org/2000/svg">
<g opacity="0.5">
<g clip-path="url(#clip0)">
<path d="M28.8414 14.988C28.8548 15.163 28.8548 15.338 28.8548 15.513C28.8548 20.8505 24.5242 27.0005 16.6092 27.0005C14.1707 27.0005 11.9055 26.338 10 25.188C10.3465 25.2255 10.6795 25.238 11.0393 25.238C13.0514 25.238 14.9036 24.6005 16.3826 23.513C14.4905 23.4755 12.9048 22.313 12.3585 20.713C12.625 20.7505 12.8915 20.7755 13.1713 20.7755C13.5578 20.7755 13.9442 20.7255 14.304 20.638C12.3319 20.263 10.8528 18.638 10.8528 16.6755V16.6255C11.4257 16.9255 12.092 17.113 12.7982 17.138C11.6389 16.413 10.8794 15.1755 10.8794 13.7755C10.8794 13.0255 11.0926 12.338 11.4657 11.738C13.5844 14.188 16.769 15.7879 20.3401 15.963C20.2735 15.663 20.2335 15.3505 20.2335 15.038C20.2335 12.813 22.1523 11.0005 24.5374 11.0005C25.7766 11.0005 26.8959 11.488 27.6821 12.2755C28.6548 12.1005 29.5875 11.763 30.4137 11.3005C30.0939 12.238 29.4143 13.0255 28.5216 13.5255C29.3877 13.438 30.2272 13.213 31 12.9005C30.4138 13.7005 29.6809 14.4129 28.8414 14.988Z" fill="white"/>
</g>
</g>
<defs>
<clipPath id="clip0">
<rect width="21" height="17" fill="white" transform="translate(10 11.0005)"/>
</clipPath>
</defs>
</svg>
