<svg width="40" height="40" viewBox="0 0 40 40" fill="none" xmlns="http://www.w3.org/2000/svg">
<g opacity="0.5">
<g clip-path="url(#clip0)">
<path d="M30.8693 14.4176C30.6129 13.4662 29.8574 12.7169 28.898 12.4626C27.1592 12.0005 20.1867 12.0005 20.1867 12.0005C20.1867 12.0005 13.2142 12.0005 11.4753 12.4626C10.516 12.7169 9.76044 13.4662 9.50401 14.4176C9.03809 16.1422 9.03809 19.7402 9.03809 19.7402C9.03809 19.7402 9.03809 23.3383 9.50401 25.0628C9.76044 26.0143 10.516 26.7324 11.4753 26.9867C13.2142 27.4488 20.1867 27.4488 20.1867 27.4488C20.1867 27.4488 27.1592 27.4488 28.898 26.9867C29.8574 26.7324 30.6129 26.0143 30.8693 25.0628C31.3353 23.3383 31.3353 19.7402 31.3353 19.7402C31.3353 19.7402 31.3353 16.1422 30.8693 14.4176ZM17.9063 23.007V16.4734L23.7339 19.7403L17.9063 23.007Z" fill="white"/>
</g>
</g>
<defs>
<clipPath id="clip0">
<rect width="22.3734" height="15.4483" fill="white" transform="translate(9 12.0005)"/>
</clipPath>
</defs>
</svg>
