<svg width="18" height="18" viewBox="0 0 18 18" fill="none" xmlns="http://www.w3.org/2000/svg">
<path d="M14.625 2.8125H3.375C3.06434 2.8125 2.8125 3.06434 2.8125 3.375V14.625C2.8125 14.9357 3.06434 15.1875 3.375 15.1875H14.625C14.9357 15.1875 15.1875 14.9357 15.1875 14.625V3.375C15.1875 3.06434 14.9357 2.8125 14.625 2.8125Z" stroke="#FFBA0B" stroke-linecap="round" stroke-linejoin="round"/>
<path d="M12.375 1.6875V3.9375" stroke="#FFBA0B" stroke-linecap="round" stroke-linejoin="round"/>
<path d="M5.625 1.6875V3.9375" stroke="#FFBA0B" stroke-linecap="round" stroke-linejoin="round"/>
<path d="M2.8125 6.1875H15.1875" stroke="#FFBA0B" stroke-linecap="round" stroke-linejoin="round"/>
<path d="M6.46875 8.99976H8.4375L7.3125 10.406C7.49748 10.406 7.6796 10.4516 7.84275 10.5388C8.00589 10.626 8.14502 10.7521 8.24781 10.9058C8.3506 11.0596 8.41389 11.2364 8.43206 11.4205C8.45023 11.6046 8.42273 11.7903 8.352 11.9612C8.28126 12.1321 8.16947 12.283 8.02652 12.4004C7.88358 12.5178 7.71389 12.5981 7.53248 12.6343C7.35107 12.6705 7.16355 12.6613 6.9865 12.6077C6.80946 12.5541 6.64837 12.4577 6.51749 12.327" stroke="#FFBA0B" stroke-linecap="round" stroke-linejoin="round"/>
<path d="M10.125 9.84351L11.25 8.99976V12.656" stroke="#FFBA0B" stroke-linecap="round" stroke-linejoin="round"/>
</svg>
